<?xml version="1.0" encoding="utf-8"?>
<!-- Svg Vector Icons : http://www.onlinewebfonts.com/icon -->
<!DOCTYPE svg PUBLIC "-//W3C//DTD SVG 1.1//EN" "http://www.w3.org/Graphics/SVG/1.1/DTD/svg11.dtd">
<svg version="1.1" xmlns="http://www.w3.org/2000/svg" xmlns:xlink="http://www.w3.org/1999/xlink" x="0px" y="0px" viewBox="0 0 256 256" enable-background="new 0 0 256 256" xml:space="preserve">
<metadata> Svg Vector Icons : http://www.onlinewebfonts.com/icon </metadata>
<g><g><g><path fill="#000000" d="M52.3,10.4c-2.1,0.6-4.4,2.7-5.6,4.8l-1,2l0,85l0,85l3.1,25.2c1.7,13.9,3.3,26,3.6,26.9c0.7,2.2,2.4,4.3,4.9,5.6l1.9,1h68.4H196l2.2-1.3c2.4-1.4,4.5-4.3,4.9-7c0.1-0.8,1.8-13.1,3.7-27.2l3.5-25.7V101c0-53.7-0.1-84.2-0.4-85c-0.7-2-3-4.2-5-5.1c-1.8-0.8-5-0.9-76.6-0.8C87.2,10,53,10.2,52.3,10.4z M203.9,14.2c0.6,0.3,1.4,1,1.8,1.5c0.8,0.9,0.8,6.1,0.8,84.2v83.3h-78.4H49.6v-83.1v-83l1-1.3c0.6-0.7,1.4-1.5,2-1.7C54.2,13.5,202.7,13.6,203.9,14.2z M62.1,189.2c2.8,4.4,8.8,8.1,16.2,9.9c5.3,1.3,11.9,1.7,34.2,2.3c32.6,0.9,62.7-0.8,71.3-4.2c4.9-1.9,9-5.2,10.6-8.5l0.9-1.7h5.4c3.5,0,5.4,0.2,5.4,0.5c0,0.6-6.4,48-6.8,50.3c-0.1,0.9-0.8,2.2-1.6,2.9l-1.3,1.3h-68.5c-49.4,0-68.7-0.1-69.6-0.5c-0.6-0.3-1.4-1.2-1.9-2c-0.5-1-1.6-9.6-3.5-26c-1.5-13.5-2.9-25-3-25.6c-0.1-1-0.1-1,5.3-1h5.5L62.1,189.2z M190.7,187.8c-1.5,2.8-7.4,6.1-13.1,7.2c-10.9,2.2-39.7,3.4-65.1,2.6c-27.8-0.8-32.7-1.3-38.9-4c-3.1-1.4-6.2-3.6-7.5-5.4l-1-1.4h63.1C189.5,186.9,191.1,186.9,190.7,187.8z"/><path fill="#000000" d="M101.2,16.3c-2.2,0.8-4.4,3.1-4.4,4.6c0,4,9,6.6,14.5,4.2c4.1-1.8,5.1-4.1,3-6.6C112.1,15.8,105.6,14.7,101.2,16.3z M110.6,19.9c2.6,1.2,0.3,2.4-4.4,2.4c-3.4,0-5.6-0.7-5.6-1.6c0-0.2,0.5-0.7,1.1-0.9C103.1,19.2,109.2,19.2,110.6,19.9z"/><path fill="#000000" d="M123.2,16.3c-2.2,0.8-4.4,3.1-4.4,4.6c0,4,9,6.6,14.5,4.2c4.1-1.8,5.1-4.1,3-6.6C134.1,15.8,127.5,14.7,123.2,16.3z M132.5,19.8c2.9,1.1,0.4,2.5-4.4,2.5c-3.4,0-5.6-0.7-5.6-1.6c0-0.2,0.5-0.7,1.1-0.9C125,19.2,131,19.2,132.5,19.8z"/><path fill="#000000" d="M145.1,16.3c-2.3,0.8-4.4,3.1-4.4,4.7c0,4,9,6.5,14.5,4.1c4.1-1.8,5.1-4.1,3-6.6C156,15.8,149.5,14.7,145.1,16.3z M154.5,19.9c2.6,1.2,0.3,2.4-4.4,2.4c-3.4,0-5.6-0.7-5.6-1.6c0-0.2,0.5-0.7,1.1-0.9C147,19.2,153.1,19.2,154.5,19.9z"/><path fill="#000000" d="M120.4,46.7c-8.3,1.3-15.3,3.5-21.8,6.8c-18,9.2-30.6,26-34.8,45.9c-1.2,5.8-1.2,18.4,0,24c2.9,13.8,8.5,24.2,18.2,33.9c9.7,9.6,20.9,15.6,34.2,18.3c5.6,1.1,17.6,1.1,23.2,0c13.4-2.7,24.6-8.6,34.2-18.3c9.7-9.7,15.3-20.1,18.2-33.9c1.2-5.6,1.2-18.2,0-24c-5.4-26-24.7-45.7-50.7-51.6C137.3,46.8,123.9,46.2,120.4,46.7z M137,50.8c19.6,2.9,36.5,15,45.4,32.2c13.1,25.6,6.9,57.3-14.8,75.4c-12.7,10.6-29.1,15.7-45,14.1c-20-2-36.3-11.9-46.8-28.6c-11.1-17.6-12.2-41.1-2.9-60c4.4-8.8,12.5-18.1,20.3-23.3C106.2,52,121.8,48.5,137,50.8z"/><path fill="#000000" d="M130.4,64.1c-3.8,0.6-10.6,2.5-13.9,4c-7.2,3.3-9.3,10.3-5.7,19.2c1.9,4.8,7.2,13.1,9.5,15c0.7,0.6,13.5-3.2,14.5-4.2c1.7-1.7,8.5-14.7,10.3-19.4c1.8-4.6,1.3-8.5-1.3-11.5C141.5,64.4,136.6,63.3,130.4,64.1z M139.2,68.3c1.4,0.7,2.2,1.4,2.7,2.6c0.4,0.9,1,1.6,1.4,1.6s0.7,0.3,0.7,0.7s-0.3,0.7-0.7,0.7s-0.8,0.7-0.9,1.6c-0.4,1.9-6,13.3-8.5,17.3l-1.8,2.8l-4.9,1.5c-3.7,1.1-5,1.4-5.6,1c-1.3-1-6-8.6-7.3-11.8c-1.6-4-1.8-8.5-0.6-10.8c1.2-2.2,3.9-4,8.4-5.4C130.1,67.3,135.8,66.8,139.2,68.3z"/><path fill="#000000" d="M86.9,93.4c-2.8,0.9-5.2,3.3-6,5.9c-2,7,1.5,22.4,6.3,27.4c4,4.2,9.7,4.7,17.4,1.4c3.4-1.4,10.2-5.6,13.2-8.2l1.5-1.3l-2.1-7c-1.2-3.8-2.5-7.2-2.9-7.5c-2.1-1.5-14.8-8.2-17.9-9.5C91.9,92.8,89.7,92.5,86.9,93.4z M90.5,96.2c0.1,0.4,0.6,0.7,1,0.7c1.3,0,8.1,3.2,14.3,6.7l6,3.4l1.2,4c0.7,2.2,1.4,4.5,1.6,5.3c0.3,1.2,0.1,1.4-3,3.6c-5.5,3.9-10.5,6.1-14.5,6.4c-5.9,0.4-8.2-1.4-10.6-8.5c-2.8-8.4-3.5-15.5-1.6-18.3c0.4-0.7,1.5-1.5,2.4-1.9c1-0.4,1.6-1,1.6-1.6C88.9,94.9,90,95,90.5,96.2z"/><path fill="#000000" d="M155.2,93.3c-4.1,1.2-9.8,4.2-14.1,7.3c-2.1,1.6-4.1,3.1-4.3,3.3c-0.5,0.3-0.3,0.9,2.3,9.5l1.6,5.1l5.5,3.1c8.5,4.9,15.2,7.9,18.1,8.2c4.9,0.5,9.4-2.1,10.5-6.3c1.4-5.2-0.5-17-3.8-23.7C168,94,161.9,91.4,155.2,93.3z M164.6,98c4.4,2.9,8.8,19.5,6.5,24.8c-0.7,1.5-2.3,2.9-3.5,2.9c-0.4,0-0.7,0.4-0.7,0.9c0,0.5-0.3,0.9-0.7,0.9s-0.7-0.3-0.7-0.6c0-0.3-1-0.9-2.2-1.2c-3.6-0.9-17.9-8.4-19.2-10c-0.3-0.3-1.1-2.7-2-5.4c-1.7-5.5-2-4.6,2.8-8C153.1,96.8,160.2,95.1,164.6,98z"/><path fill="#000000" d="M125.6,104.5c-6,2.1-6.9,9.2-1.8,13.1c1.8,1.4,6.4,1.3,8.2-0.1c2.2-1.8,3-3.4,3-6C135.1,106.4,130.2,102.8,125.6,104.5z M130.6,108.8c1,1,1.1,4.2,0,5.4c-0.9,1-3.7,1.1-5.2,0.1c-0.8-0.6-1-1.2-1-2.7C124.4,108,127.9,106.4,130.6,108.8z"/><path fill="#000000" d="M133.5,120.4c-0.2,0.1-3.2,1-6.5,2.1l-6.1,1.9l-2.3,3.8c-3.8,6.3-7.6,14.1-8.7,17.6c-1,3.3-1,3.4-0.2,6.1c0.9,2.9,2.2,4.7,4.6,5.9c2.1,1.2,11.4,1.2,16,0c5.5-1.4,10.2-3.5,12.2-5.2c5.3-4.5,5.4-11.6,0.3-21.3c-2.4-4.5-7.1-10.9-8.1-11C134.3,120.3,133.7,120.3,133.5,120.4z M135.5,126.8c4.5,6.1,7.1,11.9,7.1,16.3c0,5.8-2.8,8.2-13,11c-5.6,1.5-11.2,1.7-13.5,0.5c-0.8-0.5-1.9-1.5-2.3-2.4c-0.4-0.9-1.2-1.6-1.7-1.7c-0.9-0.1-0.9-0.2-0.2-0.9c0.4-0.5,1.3-2.2,2-4c1.2-3.3,5.7-12,8.2-16c1.3-2.1,1.5-2.2,6.2-3.7c2.7-0.8,4.9-1.5,5.1-1.5C133.5,124.4,134.5,125.5,135.5,126.8z"/><path fill="#000000" d="M125,206.3l-1.6,1.6v12.5v12.5l1.4,1.4c2,1.9,4.5,1.9,6.4-0.1l1.4-1.4l0.1-10.6c0.2-12.6,0-14.2-1.8-16.1C129,204.1,127.1,204.2,125,206.3z M128.6,220.1c0,10.1-0.1,11.7-0.7,11.7s-0.7-1.6-0.7-11.7s0.1-11.7,0.7-11.7C128.5,208.4,128.6,210,128.6,220.1z"/></g></g></g>
</svg>