<svg xmlns="http://www.w3.org/2000/svg" xmlns:xlink="http://www.w3.org/1999/xlink" version="1.1" x="0px" y="0px" viewBox="0 0 64 80" enable-background="new 0 0 64 64" xml:space="preserve"><g><path d="M32.034,51c0.552,0,1-0.447,1-1s-0.448-1-1-1h-0.011c-0.552,0-0.994,0.447-0.994,1S31.481,51,32.034,51z"/><path d="M32.034,55c0.552,0,1-0.447,1-1s-0.448-1-1-1h-0.011c-0.552,0-0.994,0.447-0.994,1S31.481,55,32.034,55z"/><path d="M32.034,59c0.552,0,1-0.447,1-1s-0.448-1-1-1h-0.011c-0.552,0-0.994,0.447-0.994,1S31.481,59,32.034,59z"/><path d="M11,63.002c0.001,0,0.001,0,0.002,0H53c1.103,0,2-0.897,2-2v-0.001V61v-7.998c0-4.963-4.037-9-9-9L40,44v-4.165   c4.774-2.771,8-7.928,8-13.834v-1.982c0-0.007,0.004-0.013,0.004-0.02S48,23.986,48,23.979v-0.98h1   c0.127,0,0.252-0.027,0.371-0.075c0.051-0.02,0.09-0.055,0.136-0.083c0.056-0.033,0.115-0.056,0.165-0.101   c0.007-0.006,0.009-0.014,0.015-0.021c0.054-0.051,0.089-0.115,0.131-0.176c0.031-0.048,0.072-0.09,0.095-0.141   c0.021-0.046,0.023-0.1,0.037-0.15c0.02-0.077,0.044-0.151,0.046-0.23c0-0.008,0.005-0.015,0.005-0.023   c0-0.049-0.021-0.091-0.027-0.138c-0.011-0.075-0.018-0.148-0.045-0.22c-0.026-0.069-0.07-0.126-0.111-0.187   c-0.027-0.042-0.041-0.088-0.075-0.126c-0.055-0.061-0.555-0.591-1.741-1.262v-2.067C48,9.514,41.355,2.57,33,2.049V1.999   c0-0.552-0.447-1-1-1s-1,0.448-1,1v0.051C22.645,2.57,16,9.514,16,17.999v2.067c-1.187,0.67-1.687,1.201-1.741,1.262   c-0.035,0.039-0.049,0.086-0.076,0.128c-0.04,0.06-0.084,0.116-0.11,0.185c-0.024,0.064-0.029,0.131-0.04,0.199   C14.023,21.893,14,21.942,14,21.999c0,0.009,0.005,0.017,0.005,0.026c0.002,0.046,0.02,0.088,0.027,0.134   c0.06,0.356,0.292,0.648,0.622,0.771c0.017,0.006,0.034,0.005,0.051,0.01c0.095,0.03,0.19,0.06,0.295,0.06h1V26   c0,5.906,3.226,11.063,8,13.834v4.167L18.002,44C13.038,44,9,48.038,9,53.002L9.002,61C9.002,62.103,9.898,62.999,11,63.002z    M43.004,26.999c0,4.278-3.378,7.772-7.605,7.98l-0.688-0.688c-0.188-0.188-0.441-0.293-0.707-0.293h-4   c-0.266,0-0.52,0.105-0.707,0.293l-0.688,0.688c-4.228-0.208-7.605-3.702-7.605-7.98c0-1.86-1.281-3.414-3.004-3.859v-0.141h28   v0.143C44.281,23.59,43.004,25.142,43.004,26.999z M18.717,20.999c2.436-0.97,6.582-2,13.283-2c6.705,0,10.852,1.031,13.285,2   H18.717z M18,17.999c0-7.72,6.28-14,14-14s14,6.28,14,14v1.125c-2.702-1.069-7.111-2.125-14-2.125s-11.298,1.056-14,2.125V17.999z    M18,26v-0.726c0.597,0.347,1.004,0.985,1.004,1.724c0,5.514,4.486,10,10,10c0.13,0,0.26-0.026,0.382-0.077   c0.123-0.051,0.234-0.124,0.326-0.217l0.706-0.706h3.172l0.706,0.706c0.092,0.093,0.203,0.166,0.326,0.217   c0.122,0.051,0.252,0.077,0.382,0.077c5.514,0,10-4.486,10-10c0-0.735,0.403-1.372,0.996-1.72V26c0,7.719-6.28,14-14,14   S18,33.72,18,26z M32,42c2.122,0,4.146-0.424,6-1.178v3.56l-3.076,1.536l-2.608-0.867c-0.04-0.013-0.08-0.007-0.12-0.015   c-0.064-0.013-0.128-0.022-0.195-0.022s-0.13,0.01-0.194,0.022c-0.041,0.008-0.081,0.002-0.121,0.015l-2.608,0.868L26,44.384   v-3.562C27.854,41.576,29.878,42,32,42z M18.002,46l6.763,0.002l3.789,1.891c0.03,0.016,0.063,0.021,0.094,0.034   c0.026,0.01,0.052,0.021,0.079,0.028c0.09,0.026,0.182,0.043,0.272,0.043c0,0,0,0,0.001,0l0,0c0.002,0,0.004-0.001,0.006-0.001   c0.098-0.001,0.193-0.018,0.286-0.046c0.008-0.003,0.016-0.001,0.023-0.004L32,47.054l2.685,0.894   c0.008,0.003,0.016,0.001,0.022,0.004c0.094,0.028,0.189,0.045,0.287,0.046c0.002,0,0.004,0.001,0.006,0.001l0,0   c0.001,0,0.001,0,0.001,0c0.001,0,0.001,0,0.002,0c0.139-0.001,0.27-0.039,0.394-0.094c0.017-0.007,0.034-0.004,0.051-0.012   L39.236,46L46,46.002c3.859,0,7,3.141,7,7V61v0.001v0.001H11.007c-0.002,0-0.003-0.001-0.005-0.001V61L11,53.002   C11,49.141,14.141,46,18.002,46z"/><path d="M34.854,11.49c0.033-0.057,0.063-0.112,0.084-0.176c0.023-0.069,0.034-0.138,0.042-0.21   c0.004-0.037,0.021-0.068,0.021-0.106c0-0.022-0.012-0.042-0.013-0.063c-0.005-0.073-0.022-0.142-0.043-0.212   c-0.017-0.057-0.031-0.112-0.057-0.164c-0.029-0.058-0.067-0.106-0.107-0.158c-0.041-0.054-0.082-0.105-0.133-0.149   c-0.019-0.016-0.027-0.038-0.047-0.052c-0.032-0.024-0.071-0.03-0.105-0.05c-0.059-0.035-0.116-0.065-0.182-0.087   c-0.066-0.022-0.132-0.032-0.199-0.04c-0.039-0.004-0.074-0.023-0.114-0.023h-2l1.8-2.4c0.332-0.442,0.242-1.069-0.2-1.4   c-0.441-0.332-1.068-0.241-1.399,0.2l-3,4c-0.024,0.032-0.03,0.07-0.05,0.104c-0.034,0.059-0.065,0.117-0.087,0.184   c-0.022,0.066-0.033,0.132-0.041,0.2c-0.004,0.039-0.022,0.072-0.022,0.112c0,0.024,0.012,0.044,0.014,0.067   c0.005,0.07,0.021,0.135,0.041,0.202c0.017,0.061,0.032,0.119,0.06,0.174c0.027,0.055,0.064,0.102,0.102,0.151   c0.043,0.056,0.086,0.109,0.14,0.155c0.018,0.015,0.026,0.037,0.045,0.051c0.042,0.031,0.089,0.046,0.133,0.07   c0.038,0.021,0.073,0.043,0.113,0.059c0.114,0.043,0.232,0.071,0.353,0.071l0,0c0.001,0,0.001,0,0.001,0h2.001l-1.8,2.4   c-0.332,0.442-0.242,1.069,0.2,1.4c0.18,0.135,0.39,0.2,0.599,0.2c0.305,0,0.604-0.138,0.801-0.4l3-4   C34.827,11.565,34.833,11.525,34.854,11.49z"/></g></svg>