<svg xmlns="http://www.w3.org/2000/svg" xmlns:xlink="http://www.w3.org/1999/xlink" xmlns:serif="http://www.serif.com/" viewBox="-4.800000000000001 -9.600000000000001 105.6 129.6" version="1.1" xml:space="preserve" style="" x="0px" y="0px" fill-rule="evenodd" clip-rule="evenodd" stroke-linejoin="round" stroke-miterlimit="2"><rect x="0" y="0" width="96" height="96" style="" fill="none"/><path d="M15.137,79.466l0,8.277c0,0.828 0.672,1.5 1.5,1.5l12.839,-0c0.828,-0 1.5,-0.672 1.5,-1.5l-0,-8.277c-0,-0.828 -0.673,-1.5 -1.5,-1.5c-0.828,0 -1.5,0.672 -1.5,1.5l-0,6.777c-0,-0 -9.839,-0 -9.839,-0c0,-0 0,-6.777 0,-6.777c0,-0.828 -0.672,-1.5 -1.5,-1.5c-0.828,0 -1.5,0.672 -1.5,1.5Z"/><path d="M65.024,79.466l0,8.277c0,0.828 0.672,1.5 1.5,1.5l12.839,-0c0.828,-0 1.5,-0.672 1.5,-1.5l-0,-8.277c-0,-0.828 -0.672,-1.5 -1.5,-1.5c-0.828,0 -1.5,0.672 -1.5,1.5l-0,6.777c-0,-0 -9.839,-0 -9.839,-0c0,-0 0,-6.777 0,-6.777c0,-0.828 -0.672,-1.5 -1.5,-1.5c-0.827,0 -1.5,0.672 -1.5,1.5Z"/><path d="M84.739,7.48c-0.272,-0.449 -0.759,-0.723 -1.283,-0.723l-70.912,0c-0.524,0 -1.011,0.274 -1.283,0.723l-10.544,17.402c-0.142,0.235 -0.217,0.504 -0.217,0.778l0,53.806c0,0.829 0.672,1.5 1.5,1.5l92,0c0.828,0 1.5,-0.671 1.5,-1.5l0,-53.806c0,-0.274 -0.075,-0.543 -0.217,-0.778l-10.544,-17.402Zm-2.128,2.277l9.889,16.322c0,-0 0,51.887 0,51.887c0,0 -89,0 -89,0c0,0 0,-51.887 0,-51.887c0,-0 9.889,-16.322 9.889,-16.322l69.222,0Z"/><path d="M26.672,28.372c-9.953,-0 -18.033,8.08 -18.033,18.033c-0,9.953 8.08,18.033 18.033,18.033c9.952,-0 18.033,-8.08 18.033,-18.033c-0,-9.953 -8.081,-18.033 -18.033,-18.033Zm-0,3c8.297,-0 15.033,6.736 15.033,15.033c-0,8.297 -6.736,15.033 -15.033,15.033c-8.297,-0 -15.033,-6.736 -15.033,-15.033c-0,-8.297 6.736,-15.033 15.033,-15.033Z"/><path d="M26.672,36.888c-5.253,-0 -9.517,4.264 -9.517,9.517c-0,5.252 4.264,9.517 9.517,9.517c5.252,-0 9.517,-4.265 9.517,-9.517c-0,-5.253 -4.265,-9.517 -9.517,-9.517Zm-0,3c3.596,-0 6.517,2.92 6.517,6.517c-0,3.597 -2.921,6.517 -6.517,6.517c-3.597,-0 -6.517,-2.92 -6.517,-6.517c-0,-3.597 2.92,-6.517 6.517,-6.517Z"/><path d="M9.078,30.933l33.139,33.139c0.585,0.585 1.536,0.585 2.121,-0c0.586,-0.586 0.586,-1.536 0,-2.122l-33.139,-33.139c-0.585,-0.585 -1.536,-0.585 -2.121,0c-0.585,0.586 -0.585,1.536 -0,2.122Z"/><path d="M42.217,28.811l-33.139,33.139c-0.585,0.586 -0.585,1.536 -0,2.122c0.585,0.585 1.536,0.585 2.121,-0l33.139,-33.139c0.586,-0.586 0.586,-1.536 0,-2.122c-0.585,-0.585 -1.536,-0.585 -2.121,0Z"/><path d="M87.361,29.872c0,-0.828 -0.671,-1.5 -1.5,-1.5l-33.066,-0c-0.828,-0 -1.5,0.672 -1.5,1.5l0,33.066c0,0.828 0.672,1.5 1.5,1.5l33.066,-0c0.829,-0 1.5,-0.672 1.5,-1.5l0,-33.066Zm-3,1.5l0,30.066c0,-0 -30.066,-0 -30.066,-0c0,-0 0,-30.066 0,-30.066l30.066,-0Z"/><path d="M65.965,39.588l6.727,0c0.828,0 1.5,-0.672 1.5,-1.5c0,-0.827 -0.672,-1.5 -1.5,-1.5l-6.727,0c-0.828,0 -1.5,0.673 -1.5,1.5c-0,0.828 0.672,1.5 1.5,1.5Z"/><path d="M60.3,46.819l0,7.902c0,0.828 0.672,1.5 1.5,1.5c0.828,0 1.5,-0.672 1.5,-1.5l0,-7.902c0,-0.828 -0.672,-1.5 -1.5,-1.5c-0.828,-0 -1.5,0.672 -1.5,1.5Z"/><path d="M75.357,46.819l-0,7.902c-0,0.828 0.672,1.5 1.5,1.5c0.827,0 1.5,-0.672 1.5,-1.5l-0,-7.902c-0,-0.828 -0.673,-1.5 -1.5,-1.5c-0.828,-0 -1.5,0.672 -1.5,1.5Z"/></svg>