<?xml version="1.0" encoding="utf-8"?>
<!-- Svg Vector Icons : http://www.onlinewebfonts.com/icon -->
<!DOCTYPE svg PUBLIC "-//W3C//DTD SVG 1.1//EN" "http://www.w3.org/Graphics/SVG/1.1/DTD/svg11.dtd">
<svg version="1.1" xmlns="http://www.w3.org/2000/svg" xmlns:xlink="http://www.w3.org/1999/xlink" x="0px" y="0px" viewBox="0 0 256 256" enable-background="new 0 0 256 256" xml:space="preserve">
<metadata> Svg Vector Icons : http://www.onlinewebfonts.com/icon </metadata>
<g><g><path fill="#000000" d="M234.1,240h-5.6V37.1c0-9.4-7.7-17.1-17.1-17.1h-95.8c-9.4,0-17.1,7.7-17.1,17.1V240h-5.6V37.1c0-12.5,10.2-22.7,22.7-22.7h95.8c12.5,0,22.7,10.2,22.7,22.7V240z"/><path fill="#000000" d="M216.6,122.3h-2.8V43.7c0-8-6.5-14.5-14.5-14.5h-19.9c-8,0-14.5,6.5-14.5,14.5v78.6H162V43.7c0-9.6,7.8-17.3,17.3-17.3h19.9c9.6,0,17.3,7.8,17.3,17.3L216.6,122.3L216.6,122.3z"/><path fill="#000000" d="M95.6,119.5h135.6v5.6H95.6V119.5z"/><path fill="#000000" d="M95.6,159h135.6v5.6H95.6V159z"/><path fill="#000000" d="M95.6,169.1h135.6v5.6H95.6V169.1z"/><path fill="#000000" d="M197.1,196.6h-67.2c-0.8,0-1.4-0.6-1.4-1.4s0.6-1.4,1.4-1.4h67.2c0.8,0,1.4,0.6,1.4,1.4C198.4,196,197.8,196.6,197.1,196.6z"/><path fill="#000000" d="M204.9,70.3h-31.4c-0.8,0-1.4-0.6-1.4-1.4V47.6c0-0.8,0.6-1.4,1.4-1.4h31.4c0.8,0,1.4,0.6,1.4,1.4v21.3C206.3,69.7,205.7,70.3,204.9,70.3z M174.9,67.5h28.6V49h-28.6V67.5z"/><path fill="#000000" d="M197.1,59.7h-14.8c-0.8,0-1.4-0.6-1.4-1.4s0.6-1.4,1.4-1.4h14.8c0.8,0,1.4,0.6,1.4,1.4C198.4,59.1,197.8,59.7,197.1,59.7z"/><path fill="#000000" d="M204.9,106.7h-31.4c-0.8,0-1.4-0.6-1.4-1.4V84c0-0.8,0.6-1.4,1.4-1.4h31.4c0.8,0,1.4,0.6,1.4,1.4v21.3C206.3,106.1,205.7,106.7,204.9,106.7z M174.9,103.9h28.6V85.4h-28.6V103.9z"/><path fill="#000000" d="M197.1,96h-14.8c-0.8,0-1.4-0.6-1.4-1.4c0-0.8,0.6-1.4,1.4-1.4h14.8c0.8,0,1.4,0.6,1.4,1.4C198.4,95.4,197.8,96,197.1,96z"/><path fill="#000000" d="M137.9,112.1c-0.8,0-1.4-0.6-1.4-1.4s0.6-1.4,1.4-1.4c8.1,0,14.6-6.6,14.6-14.6c0-8.1-6.6-14.6-14.6-14.6c-0.8,0-1.4-0.6-1.4-1.4s0.6-1.4,1.4-1.4c9.6,0,17.4,7.8,17.4,17.4C155.4,104.2,147.5,112.1,137.9,112.1z"/><path fill="#000000" d="M137.9,123.7c-0.8,0-1.4-0.6-1.4-1.4V69.3h-23.3l6.1,8.5c0.2,0.2,0.3,0.5,0.3,0.8v43.7c0,0.8-0.6,1.4-1.4,1.4c-0.8,0-1.4-0.6-1.4-1.4V79l-7.4-10.4c-0.3-0.4-0.4-1-0.1-1.5c0.2-0.5,0.7-0.8,1.3-0.8h27.4c0.8,0,1.4,0.6,1.4,1.4v54.5C139.3,123.1,138.7,123.7,137.9,123.7z"/><path fill="#000000" d="M137.9,106.7h-19.8c-0.8,0-1.4-0.6-1.4-1.4c0-0.8,0.6-1.4,1.4-1.4h19.8c0.8,0,1.4,0.6,1.4,1.4C139.3,106,138.7,106.7,137.9,106.7z"/><path fill="#000000" d="M205.7,158.1c-5.2,0-9.5-4.3-9.5-9.5c0-5.2,4.3-9.5,9.5-9.5c5.2,0,9.5,4.3,9.5,9.5C215.2,153.8,211,158.1,205.7,158.1z M205.7,141.9c-3.7,0-6.7,3-6.7,6.7s3,6.7,6.7,6.7s6.7-3,6.7-6.7S209.4,141.9,205.7,141.9z"/><path fill="#000000" d="M246,242.8H80.9v-17.3h5.6v11.7h153.9V37.1c0-16-13-29-29-29h-95.8C103.1,8.1,92,16,88,27.8L82.7,26c4.8-14.1,18-23.5,32.8-23.5h95.8C230.5,2.5,246,18,246,37.1V242.8L246,242.8z"/><path fill="#000000" d="M84.3,29.5l-29-12.4c-4.6-1.5-8.5-1.8-11.6-0.9l-1.6-5.4c4.2-1.2,9.3-0.9,15,1l0.2,0.1l29.1,12.4L84.3,29.5z"/><path fill="#000000" d="M84.8,228l-2.3-5.1l10.3-4.6V33.1l-8.6-3.7l2.2-5.2l12,5.1v192.5L84.8,228z"/><path fill="#000000" d="M44.1,243.1c-1.9,0-3.7-0.3-5.2-0.8l1.8-5.3c3.1,1.1,8,0.4,14.6-1.9l27.3-12.2l2.3,5.1l-27.5,12.3l-0.1,0.1C52,242.2,47.7,243.1,44.1,243.1z"/><path fill="#000000" d="M38.8,242.3c-3.8-1.3-6.4-4.1-7.8-8.4c-1.2-3.8-1.4-8.3-1.4-12.2V32.2c0-11.3,4.6-19.1,12.5-21.4l1.6,5.4c-7.4,2.1-8.5,10.9-8.5,16v189.5c0,9.7,1.5,14,5.4,15.3L38.8,242.3z"/><path fill="#000000" d="M34.2,243.1c-3.7,0-6.6-0.9-8.9-2.8c-4.9-4-5.5-11.3-5.5-18.6V32.2c0-8.4,2.5-14.8,7.1-18.6c4.2-3.4,9.8-4.3,16.6-2.8l-1.2,5.5c-5.1-1.1-9.1-0.5-11.9,1.7c-3.2,2.6-5,7.7-5,14.2v189.5c0,5.9,0.4,11.8,3.5,14.2c2,1.6,5.5,1.9,10.3,0.9l1.2,5.5C38.1,242.9,36.1,243.1,34.2,243.1z"/><path fill="#000000" d="M22.6,157.4h-9.8c-1.6,0-2.8-1.3-2.8-2.8v-32.3c0-1.6,1.3-2.8,2.8-2.8h9.8c1.6,0,2.8,1.3,2.8,2.8c0,1.6-1.3,2.8-2.8,2.8h-6.9v26.7h7c1.6,0,2.8,1.3,2.8,2.8C25.4,156.2,24.1,157.4,22.6,157.4z"/><path fill="#000000" d="M97.2,253.5H89c-1.3,0-2.3-0.8-2.7-2l-3.2-10.8c-0.3-0.8-0.1-1.8,0.4-2.5c0.5-0.7,1.4-1.1,2.3-1.1h14.6c0.9,0,1.7,0.4,2.3,1.1c0.5,0.7,0.7,1.6,0.4,2.5l-3.2,10.8C99.6,252.7,98.5,253.5,97.2,253.5z M91.1,247.9h4.1l1.5-5.1h-7.1L91.1,247.9z"/><path fill="#000000" d="M238.8,253.5h-8.3c-1.3,0-2.3-0.8-2.7-2l-3.2-10.8c-0.3-0.8-0.1-1.8,0.4-2.5c0.5-0.7,1.4-1.1,2.3-1.1H242c0.9,0,1.7,0.4,2.3,1.1c0.5,0.7,0.7,1.6,0.4,2.5l-3.2,10.8C241.1,252.7,240,253.5,238.8,253.5z M232.6,247.9h4.1l1.5-5.1h-7.1L232.6,247.9z"/><path fill="#000000" d="M214.7,251.5H208c-1.3,0-2.3-0.8-2.7-2l-2.6-8.7c-0.3-0.8-0.1-1.8,0.4-2.5c0.5-0.7,1.4-1.1,2.3-1.1h11.9c0.9,0,1.7,0.4,2.3,1.1c0.5,0.7,0.7,1.6,0.4,2.5l-2.6,8.7C217,250.7,215.9,251.5,214.7,251.5z M210.1,245.9h2.5l0.9-3.1h-4.4L210.1,245.9z"/><path fill="#000000" d="M121.6,251.5h-6.7c-1.3,0-2.3-0.8-2.7-2l-2.6-8.7c-0.3-0.8-0.1-1.8,0.4-2.5c0.5-0.7,1.4-1.1,2.3-1.1h11.9c0.9,0,1.7,0.4,2.3,1.1c0.5,0.7,0.7,1.6,0.4,2.5l-2.6,8.7C123.9,250.7,122.8,251.5,121.6,251.5z M117,245.9h2.5l0.9-3.1h-4.4L117,245.9z"/></g></g>
</svg>