<?xml version="1.0" encoding="utf-8"?>
<!-- Svg Vector Icons : http://www.onlinewebfonts.com/icon -->
<!DOCTYPE svg PUBLIC "-//W3C//DTD SVG 1.1//EN" "http://www.w3.org/Graphics/SVG/1.1/DTD/svg11.dtd">
<svg version="1.1" xmlns="http://www.w3.org/2000/svg" xmlns:xlink="http://www.w3.org/1999/xlink" x="0px" y="0px" viewBox="0 0 256 256" enable-background="new 0 0 256 256" xml:space="preserve">
<metadata> Svg Vector Icons : http://www.onlinewebfonts.com/icon </metadata>
<g><g><g><path fill="#000000" d="M76.9,63.1c-0.4,0.4-0.6,7.3-0.6,28v27.5l-31.9,27.6c-17.6,15.2-32.5,28.2-33.2,28.9c-1.3,1.2-1.3,1.3-1.3,7.2c0,6.5,0.4,7.8,3.4,10l1.3,1l113.4,0.1c95.7,0.1,113.6,0,114.9-0.6c2.6-1.1,3.1-2.8,3.1-11v-7.1L212.8,146l-33.2-28.8V90.5c0-20.2-0.1-26.9-0.6-27.3C178.3,62.4,77.7,62.4,76.9,63.1z M175.9,92.1v25.8l-47.8-0.1l-47.8-0.1L80.2,92l-0.1-25.7H128h47.9V92.1z M208.6,147.3l29.6,25.7l-6.7,0.2c-5.8,0.2-6.8,0.4-7.3,1c-0.4,0.6-0.4,1.1,0,1.6c0.5,0.7,1.5,0.8,9.4,1l8.8,0.1v5.6c0,3-0.2,5.9-0.5,6.5c-0.5,0.9-2.3,0.9-113.3,0.9H15.8l-1.1-1c-1-0.9-1.1-1.4-1.1-5.9c0-3.5,0.2-5.1,0.6-5.3c0.3-0.2,44.9-0.5,99.2-0.6c93.2-0.2,98.6-0.3,99.1-1.1c0.4-0.6,0.4-1,0-1.6c-0.5-0.7-5.8-0.8-96.9-1L19.3,173l29.5-25.7l29.5-25.7h50.3h50.2L208.6,147.3z"/><path fill="#000000" d="M159.9,72.4c-0.3,0.3-0.6,0.9-0.6,1.3c0,1.4,1.1,1.8,4.2,1.8h3.1l0.1,5.1c0.1,4.3,0.3,5.3,1,5.7c0.6,0.4,1,0.4,1.6,0c0.7-0.5,0.8-1.4,0.9-6.9c0.1-4.3,0-6.5-0.4-7C169.2,71.6,160.7,71.5,159.9,72.4z"/><path fill="#000000" d="M167.2,90.9c-0.4,0.4-0.5,2-0.4,4.2c0.1,2.8,0.3,3.6,1,4.1c0.6,0.4,1,0.4,1.6,0c0.6-0.4,0.8-1.3,0.9-4.1c0.1-3.7-0.3-4.9-1.8-4.9C168.1,90.3,167.5,90.5,167.2,90.9z"/><path fill="#000000" d="M28.7,179.3c-2.2,2.2-2.2,4,0,6.1c1.8,1.8,3.2,2,5.3,0.9c1.7-0.9,2.3-2,2.3-4.1c0-2.3-1.6-4-4-4.3C30.5,177.7,30.1,177.9,28.7,179.3z M32.6,182.4c0,0.5-0.3,0.9-0.6,0.9c-0.8,0-1.3-0.7-1-1.4C31.5,181.1,32.6,181.5,32.6,182.4z"/><path fill="#000000" d="M41.8,179.2c-2.9,2.9-0.9,7.9,3,7.9c1.2,0,2.1-0.4,3.1-1.3c1.2-1.1,1.5-1.7,1.5-3.3s-0.3-2.2-1.5-3.3C45.9,177.3,43.6,177.4,41.8,179.2z M45.7,182.4c0,0.4-0.4,0.7-0.8,0.8c-0.6,0.1-0.8-0.1-0.8-0.8c0-0.7,0.2-0.9,0.8-0.8C45.4,181.7,45.7,182.1,45.7,182.4z"/><path fill="#000000" d="M53,179.3c-0.3,0.3-0.6,0.9-0.6,1.3c0,1.6,1.1,1.8,7.6,1.7c5.5-0.1,6.4-0.2,6.9-1c0.4-0.6,0.4-1,0-1.6c-0.5-0.7-1.4-0.8-6.9-0.9C55.4,178.8,53.4,178.9,53,179.3z"/><path fill="#000000" d="M53,184.8c-0.3,0.3-0.6,0.9-0.6,1.3c0,1.6,1.1,1.8,7.6,1.7c5.5-0.1,6.4-0.2,6.9-1c0.4-0.6,0.4-1,0-1.6c-0.5-0.7-1.4-0.8-6.9-0.9C55.4,184.3,53.4,184.4,53,184.8z"/></g></g></g>
</svg>