<?xml version="1.0" ?>
<!-- Uploaded to: SVG Repo, www.svgrepo.com, Generator: SVG Repo Mixer Tools -->
<svg fill="#000000" width="800px" height="800px" viewBox="0 0 100 100" enable-background="new 0 0 100 100" id="Layer_1" version="1.1" xml:space="preserve" xmlns="http://www.w3.org/2000/svg" xmlns:xlink="http://www.w3.org/1999/xlink">
<g>
<path d="M73.893,46.915c-1.446,0-2.623,1.177-2.623,2.624v22.673c0,1.447,1.177,2.624,2.623,2.624c1.447,0,2.624-1.177,2.624-2.624   V49.539C76.517,48.092,75.34,46.915,73.893,46.915z M74.517,72.212c0,0.344-0.28,0.624-0.624,0.624s-0.623-0.28-0.623-0.624V49.539   c0-0.344,0.279-0.624,0.623-0.624s0.624,0.28,0.624,0.624V72.212z"/>
<path d="M79.89,74.872V46.878c3.958-2.175,6.391-6.257,6.391-10.798c0-4.045-1.993-7.84-5.331-10.152   c-0.307-0.211-0.704-0.236-1.033-0.063c-0.33,0.172-0.536,0.514-0.536,0.886v7.94l-0.925,0.671C77.913,17.977,63.612,4,46.1,4   C28.245,4,13.72,18.525,13.72,36.38c0,15.164,10.479,27.92,24.574,31.423l-1.982,12.246h-3.439c-0.405,0-0.771,0.244-0.925,0.619   l-5.751,13.952c-0.127,0.308-0.092,0.66,0.094,0.937S26.788,96,27.122,96h37.956c0.334,0,0.646-0.167,0.831-0.444   c0.082-0.123,0.13-0.261,0.152-0.403c0.277,0.23,0.551,0.462,0.85,0.669C67.082,95.94,67.28,96,67.48,96   c0.159,0,0.318-0.038,0.464-0.114c0.33-0.172,0.536-0.514,0.536-0.886v-7.94l5.449-3.954l5.45,3.954V95   c0,0.372,0.206,0.713,0.536,0.886c0.328,0.172,0.726,0.147,1.033-0.063c3.338-2.312,5.331-6.107,5.331-10.152   C86.28,81.129,83.848,77.047,79.89,74.872z M15.72,36.38C15.72,19.628,29.348,6,46.1,6S76.48,19.628,76.48,36.38   c0,0.138,0,0.275-0.001,0.413l-2.551,1.852l-0.659-0.478c0.042-0.563,0.07-1.145,0.07-1.787c0-15.02-12.22-27.24-27.24-27.24   c-15.02,0-27.239,12.22-27.239,27.24c0,15.026,12.22,27.25,27.239,27.25c8.674,0,16.774-4.154,21.87-11.023v4.864   c-5.781,5.994-13.532,9.29-21.87,9.29C29.348,66.76,15.72,53.131,15.72,36.38z M62.872,41.561c-1.07,0.309-2.225,0.27-3.281-0.111   l-8.338-3.018c0.024-0.06,0.032-0.126,0.054-0.188c0.068-0.191,0.122-0.386,0.168-0.583c0.025-0.108,0.056-0.214,0.075-0.324   c0.054-0.313,0.089-0.631,0.089-0.954c0,0,0-0.001,0-0.001c0,0,0-0.001,0-0.001c0-0.003-0.001-0.007-0.001-0.01   c-0.001-0.32-0.035-0.635-0.089-0.945c-0.018-0.105-0.048-0.207-0.072-0.31c-0.048-0.206-0.105-0.409-0.177-0.608   c-0.021-0.058-0.029-0.12-0.052-0.177l8.337-3.018c0.989-0.353,2.035-0.411,3.029-0.179c-0.028,0.064-0.047,0.132-0.074,0.196   c-0.064,0.152-0.117,0.306-0.175,0.46c-0.112,0.302-0.214,0.606-0.303,0.916c-0.047,0.166-0.092,0.332-0.132,0.5   c-0.077,0.323-0.138,0.649-0.19,0.978c-0.023,0.151-0.053,0.299-0.07,0.451c-0.056,0.479-0.092,0.961-0.092,1.446   c0,0.431,0.03,0.858,0.074,1.283c0.008,0.081,0.015,0.161,0.025,0.241c0.051,0.409,0.122,0.814,0.213,1.214   c0.017,0.073,0.036,0.146,0.055,0.219c0.101,0.41,0.218,0.815,0.361,1.211c0.002,0.005,0.003,0.01,0.005,0.016   c0.146,0.404,0.32,0.797,0.509,1.183C62.841,41.484,62.853,41.524,62.872,41.561z M68.614,34.787   c-0.035-0.167-0.081-0.342-0.133-0.52V26.75c0-0.372-0.206-0.713-0.536-0.886c-0.329-0.173-0.728-0.148-1.033,0.063   c-1.327,0.919-2.425,2.073-3.3,3.412c-1.523-0.483-3.16-0.46-4.702,0.09l-8.772,3.175c-0.085-0.091-0.171-0.177-0.262-0.262   l3.174-8.766c0.293-0.805,0.441-1.648,0.441-2.507c0-4.068-3.315-7.377-7.391-7.377c-2.438,0-4.641,1.144-6.043,3.138   c-1.4,1.993-1.731,4.451-0.906,6.745l3.175,8.768c-0.092,0.086-0.178,0.172-0.264,0.264l-8.767-3.175   c-0.805-0.292-1.648-0.44-2.507-0.44c-4.067,0-7.377,3.315-7.377,7.39c0,2.438,1.144,4.641,3.138,6.043   c1.272,0.895,2.733,1.353,4.22,1.353c0.844,0,1.695-0.147,2.525-0.446l8.768-3.175c0.086,0.092,0.172,0.178,0.264,0.264   l-3.174,8.766c-0.293,0.805-0.441,1.648-0.441,2.507c0,4.068,3.315,7.377,7.39,7.377c2.438,0,4.642-1.144,6.044-3.138   c1.4-1.993,1.731-4.45,0.906-6.744l-3.175-8.768c0.092-0.086,0.179-0.173,0.265-0.266l8.77,3.175   c0.808,0.292,1.649,0.439,2.5,0.439c0.87,0,1.737-0.16,2.55-0.465c1.06,1.464,2.413,2.693,4.009,3.573v2.098   C63.474,56.788,55.118,61.63,46.1,61.63c-13.917,0-25.239-11.327-25.239-25.25c0-13.917,11.322-25.24,25.239-25.24   c13.918,0,25.24,11.322,25.24,25.24c0,0.13-0.001,0.258-0.003,0.384L68.614,34.787z M48.15,31.232   c-0.086-0.034-0.179-0.048-0.267-0.078c-0.105-0.035-0.211-0.064-0.318-0.092c-0.476-0.13-0.963-0.22-1.466-0.22   c-0.502,0-0.988,0.089-1.463,0.219c-0.11,0.029-0.218,0.059-0.326,0.095c-0.086,0.029-0.177,0.042-0.261,0.076l-3.018-8.336   c-0.602-1.671-0.36-3.463,0.661-4.916c1.021-1.454,2.628-2.288,4.406-2.288c2.973,0,5.391,2.412,5.391,5.377   c0,0.625-0.107,1.239-0.321,1.825L48.15,31.232z M43.193,34.357c0.234-0.335,0.548-0.648,0.88-0.88   c1.187-0.826,2.848-0.829,4.041-0.007c0.004,0.003,0.008,0.004,0.012,0.007c0.335,0.233,0.646,0.545,0.88,0.879   c0.414,0.595,0.633,1.296,0.634,2.026c0,0.057-0.01,0.111-0.012,0.167c-0.031,0.669-0.239,1.311-0.621,1.86   c-0.233,0.335-0.546,0.647-0.879,0.88c-0.149,0.104-0.306,0.195-0.468,0.272c-0.487,0.233-1.023,0.35-1.56,0.35   c-0.358,0-0.715-0.052-1.058-0.156c-0.342-0.104-0.67-0.259-0.967-0.466c-0.334-0.232-0.646-0.545-0.881-0.879   c-0.414-0.596-0.634-1.297-0.634-2.027C42.56,35.653,42.779,34.952,43.193,34.357z M44.05,41.532   c0.05,0.02,0.105,0.026,0.156,0.045c0.223,0.081,0.451,0.145,0.684,0.197c0.078,0.017,0.153,0.04,0.232,0.054   c0.321,0.057,0.647,0.095,0.979,0.095c0.332,0,0.659-0.038,0.98-0.095c0.077-0.013,0.15-0.036,0.226-0.052   c0.233-0.052,0.462-0.116,0.686-0.197c0.052-0.019,0.107-0.025,0.158-0.045l3.018,8.336c0.602,1.671,0.36,3.463-0.661,4.916   c-1.022,1.454-2.629,2.288-4.407,2.288c-2.972,0-5.39-2.412-5.39-5.377c0-0.625,0.107-1.239,0.321-1.825L44.05,41.532z    M40.95,38.432l-8.337,3.019c-1.674,0.602-3.462,0.36-4.915-0.661c-1.454-1.022-2.288-2.629-2.288-4.407   c0-2.972,2.412-5.39,5.377-5.39c0.625,0,1.238,0.108,1.824,0.321l8.339,3.02c-0.02,0.051-0.027,0.107-0.046,0.158   c-0.076,0.209-0.136,0.421-0.186,0.638c-0.023,0.098-0.051,0.195-0.068,0.295c-0.055,0.315-0.09,0.634-0.09,0.959   c0,0.325,0.035,0.644,0.09,0.959c0.017,0.1,0.046,0.197,0.068,0.295c0.05,0.216,0.11,0.429,0.186,0.637   C40.923,38.325,40.93,38.381,40.95,38.432z M60.252,80.667c-0.154-0.375-0.52-0.619-0.925-0.619h-3.439l-1.985-12.259   c5.214-1.302,10.068-3.891,14.067-7.545v14.628c-3.503,1.926-5.808,5.346-6.291,9.256L60.252,80.667z M46.1,68.76   c1.972,0,3.927-0.193,5.846-0.548l2.105,12.996c0,0,0,0.001,0,0.001l0.549,3.428h-17l0.55-3.428c0,0,0-0.001,0-0.001l2.102-12.987   C42.151,68.569,44.103,68.76,46.1,68.76z M28.616,94l4.926-11.952h2.448l-0.55,3.431c-0.047,0.289,0.036,0.584,0.227,0.807   c0.189,0.223,0.468,0.351,0.761,0.351h19.346c0.293,0,0.571-0.128,0.761-0.351c0.19-0.223,0.273-0.518,0.227-0.807l-0.55-3.431   h2.448L63.584,94H28.616z M81.38,92.843V86.55c0-0.32-0.153-0.621-0.413-0.81l-6.45-4.68c-0.35-0.254-0.824-0.254-1.174,0   l-6.449,4.68c-0.26,0.188-0.413,0.489-0.413,0.81v6.294c-1.842-1.912-2.9-4.477-2.9-7.174c0-3.981,2.232-7.541,5.827-9.291   c0.344-0.167,0.563-0.516,0.563-0.899V57.87v-8.63v-2.97c0-0.382-0.218-0.731-0.563-0.899c-1.763-0.859-3.235-2.186-4.262-3.844   c-1.024-1.626-1.565-3.509-1.565-5.447c0-0.473,0.038-0.942,0.101-1.407c0.175-1.276,0.581-2.509,1.211-3.625   c0.441-0.79,0.973-1.506,1.588-2.145V34.4v0.8c0,0.32,0.153,0.621,0.412,0.809l0.22,0.16c0,0,0,0,0,0l4.53,3.29   c0.006,0.004,0.012,0.006,0.018,0.01l1.683,1.221c0.35,0.253,0.822,0.254,1.174-0.001l6.449-4.679   c0.26-0.188,0.413-0.489,0.413-0.81v-6.293c1.843,1.912,2.9,4.477,2.9,7.173c0,3.981-2.233,7.541-5.828,9.291   c-0.344,0.167-0.563,0.516-0.563,0.899v29.21c0,0.383,0.219,0.732,0.563,0.899c3.595,1.75,5.828,5.31,5.828,9.291   C84.28,88.367,83.223,90.932,81.38,92.843z"/>
<path d="M47.682,89.304h-2.876c-0.553,0-1,0.448-1,1s0.447,1,1,1h2.876c0.553,0,1-0.448,1-1S48.234,89.304,47.682,89.304z"/>
<path d="M39.519,89.304h-2.876c-0.553,0-1,0.448-1,1s0.447,1,1,1h2.876c0.553,0,1-0.448,1-1S40.071,89.304,39.519,89.304z"/>
<path d="M55.558,89.304h-2.876c-0.553,0-1,0.448-1,1s0.447,1,1,1h2.876c0.553,0,1-0.448,1-1S56.11,89.304,55.558,89.304z"/>
</g>
</svg>