<svg xmlns="http://www.w3.org/2000/svg" viewBox="0 0 100 125" x="0px" y="0px"><title>Artboard 24@2x</title><g data-name="Burner, Cooker, Gas, Kitchen, Stove"><path d="M42.06,34.94a1.49,1.49,0,0,0-2.12,0l-2.81,2.81a12,12,0,0,0-15.26,0l-2.81-2.81a1.5,1.5,0,0,0-2.12,2.12l2.88,2.88a11.9,11.9,0,0,0,0,14.12l-2.88,2.88a1.49,1.49,0,0,0,0,2.12,1.5,1.5,0,0,0,2.12,0l2.81-2.81a12,12,0,0,0,15.26,0l2.81,2.81a1.5,1.5,0,0,0,2.12,0,1.49,1.49,0,0,0,0-2.12l-2.88-2.88a11.9,11.9,0,0,0,0-14.12l2.88-2.88A1.49,1.49,0,0,0,42.06,34.94Zm-5,17-2-2a1.5,1.5,0,0,0-2.12,2.12l2.05,2a8.92,8.92,0,0,1-11,0l2-2a1.5,1.5,0,0,0-2.12-2.12l-2,2a8.94,8.94,0,0,1,0-9.82l2,2a1.5,1.5,0,0,0,2.12,0,1.49,1.49,0,0,0,0-2.12l-2-2a8.92,8.92,0,0,1,11,0l-2.05,2a1.49,1.49,0,0,0,0,2.12,1.5,1.5,0,0,0,2.12,0l2-2a8.94,8.94,0,0,1,0,9.82Z"/><path d="M82,59.5a1.51,1.51,0,0,0,1.06-.44,1.49,1.49,0,0,0,0-2.12l-2.88-2.88a11.9,11.9,0,0,0,0-14.12l2.88-2.88a1.5,1.5,0,0,0-2.12-2.12l-2.81,2.81a12,12,0,0,0-15.26,0l-2.81-2.81a1.5,1.5,0,0,0-2.12,2.12l2.88,2.88a11.9,11.9,0,0,0,0,14.12l-2.88,2.88a1.49,1.49,0,0,0,0,2.12,1.5,1.5,0,0,0,2.12,0l2.81-2.81a12,12,0,0,0,15.26,0l2.81,2.81A1.51,1.51,0,0,0,82,59.5Zm-4-7.59-2-2a1.5,1.5,0,0,0-2.12,2.12l2,2a8.92,8.92,0,0,1-11,0l2-2a1.5,1.5,0,0,0-2.12-2.12l-2,2a8.94,8.94,0,0,1,0-9.82l2,2a1.5,1.5,0,0,0,2.12,0,1.49,1.49,0,0,0,0-2.12l-2-2a8.92,8.92,0,0,1,11,0l-2,2a1.49,1.49,0,0,0,0,2.12,1.5,1.5,0,0,0,2.12,0l2-2a8.94,8.94,0,0,1,0,9.82Z"/><path d="M88.64,26H11.36A3.86,3.86,0,0,0,7.5,29.86V70.14A3.86,3.86,0,0,0,11.36,74H88.64a3.86,3.86,0,0,0,3.86-3.86V29.86A3.86,3.86,0,0,0,88.64,26Zm.86,44.14a.85.85,0,0,1-.86.86H11.36a.85.85,0,0,1-.86-.86V29.86a.85.85,0,0,1,.86-.86H88.64a.85.85,0,0,1,.86.86Z"/><path d="M68.5,64h-2a1.5,1.5,0,0,0,0,3h2a1.5,1.5,0,0,0,0-3Z"/><path d="M75.5,64h-2a1.5,1.5,0,0,0,0,3h2a1.5,1.5,0,0,0,0-3Z"/><path d="M82.5,64h-2a1.5,1.5,0,0,0,0,3h2a1.5,1.5,0,0,0,0-3Z"/></g></svg>