<svg xmlns="http://www.w3.org/2000/svg" xmlns:xlink="http://www.w3.org/1999/xlink" version="1.1" x="0px" y="0px" viewBox="0 0 60 75" enable-background="new 0 0 60 60" xml:space="preserve"><path d="M32,42h-4c-0.55,0-1,0.45-1,1s0.45,1,1,1h4c0.55,0,1-0.45,1-1S32.55,42,32,42z"/><path d="M23,42h-1c-0.55,0-1,0.45-1,1s0.45,1,1,1h1c0.55,0,1-0.45,1-1S23.55,42,23,42z"/><path d="M38,42h-1c-0.55,0-1,0.45-1,1s0.45,1,1,1h1c0.55,0,1-0.45,1-1S38.55,42,38,42z"/><path d="M36,54h4c0.55,0,1-0.45,1-1v-6.06c1.42-0.27,2.84-0.59,4.26-0.97C45.7,45.84,46,45.45,46,45V9c0-0.45-0.3-0.85-0.74-0.97  c-10.13-2.7-20.39-2.7-30.52,0C14.3,8.15,14,8.54,14,9v36c0,0.45,0.3,0.85,0.74,0.97c1.42,0.38,2.84,0.7,4.26,0.97V53  c0,0.55,0.45,1,1,1h4c0.55,0,1-0.45,1-1v-5.23c1.67,0.14,3.33,0.22,5,0.22s3.33-0.08,5-0.22V53C35,53.55,35.45,54,36,54z M39,52h-2  v-4.44c0.67-0.08,1.33-0.17,2-0.28V52z M44,9.77V38H16V9.77C25.29,7.42,34.71,7.42,44,9.77z M23,52h-2v-4.72  c0.67,0.1,1.33,0.2,2,0.28V52z M16,44.22V40h28v4.23C34.71,46.57,25.29,46.57,16,44.22z"/><path d="M30,31c2.21,0,4-1.79,4-4V17c0-2.21-1.79-4-4-4s-4,1.79-4,4v10C26,29.2,27.79,31,30,31z M30,15c1.1,0,2,0.9,2,2v10  c0,1.1-0.9,2-2,2s-2-0.9-2-2v-7h1c0.55,0,1-0.45,1-1s-0.45-1-1-1h-1v-1C28,15.89,28.9,15,30,15z"/></svg>