<?xml version="1.0" encoding="utf-8"?>
<!-- Svg Vector Icons : http://www.onlinewebfonts.com/icon -->
<!DOCTYPE svg PUBLIC "-//W3C//DTD SVG 1.1//EN" "http://www.w3.org/Graphics/SVG/1.1/DTD/svg11.dtd">
<svg version="1.1" xmlns="http://www.w3.org/2000/svg" xmlns:xlink="http://www.w3.org/1999/xlink" x="0px" y="0px" viewBox="0 0 256 256" enable-background="new 0 0 256 256" xml:space="preserve">
<metadata> Svg Vector Icons : http://www.onlinewebfonts.com/icon </metadata>
<g><g><g><path fill="#000000" d="M12,52.8c-0.6,0.4-1.2,1.2-1.5,1.8c-0.4,0.7-0.5,20.3-0.5,70.9c0,77.5-0.2,72,3,73.3c0.9,0.4,2.7,0.6,4.1,0.6c2.3,0,2.6,0.1,2.9,1.2c0.5,1.8,2.7,3.5,4.7,3.5c2.1,0,3.6-1.1,4.5-3l0.6-1.6H128h98.1l0.6,1.4c0.8,2,2.6,3.2,4.6,3.2c2.1,0,3.6-1.1,4.5-3c0.6-1.5,0.7-1.6,3.2-1.6c1.4,0,3.3-0.3,4.1-0.6c3.2-1.4,3,4.1,3-73.3c0-76,0.1-71.8-2.5-73c-0.9-0.4-27.9-0.6-115.8-0.6C19.7,51.9,13,52,12,52.8z M177.3,76.4c0,14.7,0,14.8-1,14.8c-0.6,0-1.7,0.7-2.5,1.6l-1.6,1.6v30.9c0,34.6-0.1,33,3.2,34.3l1.8,0.7v14.5v14.5H98.5H19.7v-63.8V61.6h78.8h78.8V76.4z M236.3,76.4v14.8h-24.7H187V76.4V61.6h24.7h24.7V76.4z M236.2,145.1l0.1,44.2h-24.7H187v-44.2v-44.2l24.6,0.1l24.5,0.1L236.2,145.1z"/><path fill="#000000" d="M29.8,125.5v54.2h66.4h66.4l-0.1-54.1l-0.1-54l-66.2-0.1l-66.3-0.1L29.8,125.5L29.8,125.5z M152.4,125.7v44.2H96H39.5v-44.2V81.4H96h56.5L152.4,125.7L152.4,125.7z"/><path fill="#000000" d="M198.6,112.1c-1.7,1.4-2.2,3.5-1.3,5.5c0.7,1.6,2.7,3,4.4,3s3.7-1.4,4.4-3.1C208.1,112.9,202.5,108.9,198.6,112.1z"/><path fill="#000000" d="M218.5,111.8c-4.7,3.7-0.1,11,5.1,8.2c4.4-2.3,2.8-9-2.2-9C220.3,110.9,219.1,111.3,218.5,111.8z"/><path fill="#000000" d="M199.6,131c-1.8,0.9-3.1,3.4-2.7,5.3c0.1,0.7,0.8,1.8,1.4,2.5c1.6,1.6,3.5,1.9,5.4,1c1.5-0.7,3-3,3-4.4c0-1.4-1.6-3.7-3-4.3C201.9,130.1,201.4,130.1,199.6,131z"/><path fill="#000000" d="M219.4,130.9c-1.5,0.7-2.9,2.8-2.9,4.4c0,1.7,1.4,3.7,3.1,4.4c4.7,2,8.8-3.9,5.3-7.7C223.4,130.5,221.4,130.1,219.4,130.9z"/><path fill="#000000" d="M199.2,151c-1.9,1.2-2.8,3.7-2,5.6c1.8,4.4,7.7,4.2,9.2-0.2c1-3-1.5-6.3-4.7-6.3C201.1,150.1,200,150.5,199.2,151z"/><path fill="#000000" d="M218.1,151.7c-3.4,3.4-1.1,8.1,3.8,8.1c4.7,0,6-7,1.7-9.2C221.6,149.7,219.7,150,218.1,151.7z"/><path fill="#000000" d="M198.6,171.1c-1.8,1.5-2.2,3.3-1.3,5.4c1.2,2.9,2.1,3.1,14.3,3.1c9.4,0,11.1-0.1,12.2-0.8c2.7-1.6,3.1-5.3,1-7.6l-1.3-1.3h-11.8H200L198.6,171.1z"/></g></g></g>
</svg>