<?xml version="1.0" encoding="utf-8"?>
<!-- Svg Vector Icons : http://www.onlinewebfonts.com/icon -->
<!DOCTYPE svg PUBLIC "-//W3C//DTD SVG 1.1//EN" "http://www.w3.org/Graphics/SVG/1.1/DTD/svg11.dtd">
<svg version="1.1" xmlns="http://www.w3.org/2000/svg" xmlns:xlink="http://www.w3.org/1999/xlink" x="0px" y="0px" viewBox="0 0 256 256" enable-background="new 0 0 256 256" xml:space="preserve">
<metadata> Svg Vector Icons : http://www.onlinewebfonts.com/icon </metadata>
<g><g><path fill="#000000" d="M218.5,68h-181V22.5c0-6.7,5.8-12.4,12.7-12.4L206.3,10c6.8,0,12.2,5.5,12.2,12.4V68L218.5,68z M46.8,58.7h162.4V22.4c0-1.5-1-3.1-2.9-3.1L50.2,19.4c-1.8,0-3.4,1.5-3.4,3.1L46.8,58.7L46.8,58.7z"/><path fill="#000000" d="M102,52.4c-7.5,0-13.7-6.2-13.7-13.8c0-7.5,6.1-13.7,13.7-13.7c7.5,0,13.7,6.1,13.7,13.7C115.6,46.2,109.5,52.4,102,52.4z M102,31.2c-4.1,0-7.4,3.3-7.4,7.5c0,4.2,3.3,7.5,7.4,7.5c4.1,0,7.4-3.4,7.4-7.5C109.4,34.5,106.1,31.2,102,31.2z"/><path fill="#000000" d="M69.8,52.4c-7.5,0-13.7-6.2-13.7-13.8c0-7.5,6.1-13.7,13.7-13.7s13.7,6.1,13.7,13.7C83.5,46.2,77.4,52.4,69.8,52.4z M69.8,31.2c-4.1,0-7.4,3.3-7.4,7.5c0,4.2,3.3,7.5,7.4,7.5s7.4-3.4,7.4-7.5C77.3,34.5,73.9,31.2,69.8,31.2z"/><path fill="#000000" d="M218.5,246l-181,0v-177c0-6.9,5.5-12.4,12.3-12.4H206c6.9,0,12.6,5.6,12.6,12.4V246L218.5,246z M46.8,236.6l162.4,0V68.9c0-1.7-1.5-3.1-3.3-3.1H49.8c-1.7,0-3,1.4-3,3.1L46.8,236.6L46.8,236.6z M127,206.7c-33.1,0-60-26.9-60-60c0-33.1,26.9-60,60-60c33.1,0,60,26.9,60,60C187,179.8,160.1,206.7,127,206.7z M127,96.1c-27.9,0-50.6,22.7-50.6,50.6c0,27.9,22.7,50.6,50.6,50.6c27.9,0,50.6-22.7,50.6-50.6C177.6,118.8,154.9,96.1,127,96.1z"/></g></g>
</svg>