<svg xmlns="http://www.w3.org/2000/svg" xmlns:xlink="http://www.w3.org/1999/xlink" version="1.1" x="0px" y="0px" viewBox="0 0 1024 1280" style="enable-background:new 0 0 1024 1024;" xml:space="preserve"><g><g><path d="M747.28,938.5H276.72c-16.11,0-29.22-13.11-29.22-29.22V127c0-4.14,3.36-7.5,7.5-7.5h514c4.14,0,7.5,3.36,7.5,7.5v782.28    C776.5,925.39,763.39,938.5,747.28,938.5z M262.5,134.5v774.78c0,7.84,6.38,14.22,14.22,14.22h470.56    c7.84,0,14.22-6.38,14.22-14.22V134.5H262.5z"/></g><g><path d="M718.63,898.19H557.21c-2.06,0-4.02-0.84-5.44-2.33c-1.42-1.49-2.16-3.5-2.05-5.55c1.25-24.4,4.01-46.71,8.44-68.19    c1.8-8.7,3.92-17.5,5.97-26.01c6.61-27.42,12.88-53.41,10.11-79.41H449.76c-2.14,20.46,1.42,41.07,5.28,58.77    c1.5,6.87,3.2,13.9,4.84,20.69c2.05,8.49,4.17,17.28,5.96,25.96c4.44,21.49,7.2,43.79,8.45,68.19c0.1,2.05-0.64,4.06-2.05,5.55    s-3.38,2.33-5.44,2.33H305.37c-31.91,0-57.87-25.96-57.87-57.86V389.37c0-31.91,25.96-57.87,57.87-57.87h413.26    c31.91,0,57.87,25.96,57.87,57.87v450.96C776.5,872.23,750.54,898.19,718.63,898.19z M565.16,883.19h153.47    c23.64,0,42.87-19.23,42.87-42.86V389.37c0-23.64-19.23-42.87-42.87-42.87H305.37c-23.64,0-42.87,19.23-42.87,42.87v450.96    c0,23.63,19.23,42.86,42.87,42.86h153.47c-1.37-20.58-3.89-39.64-7.69-58.04c-1.74-8.44-3.83-17.1-5.85-25.48    c-1.66-6.87-3.37-13.97-4.91-21.01c-4.46-20.45-8.52-44.63-4.84-69.05c0.66-4.5,4.62-7.92,9.22-7.92h134.48    c4.59,0,8.56,3.42,9.22,7.96c4.59,30.49-2.7,60.73-9.75,89.97c-2.02,8.39-4.12,17.07-5.86,25.53    C569.06,843.55,566.53,862.61,565.16,883.19z M573.62,711.85c0,0.02,0,0.03,0.01,0.05C573.63,711.88,573.63,711.86,573.62,711.85z     M450.38,711.81c0,0.02-0.01,0.03-0.01,0.05C450.38,711.85,450.38,711.83,450.38,711.81z"/></g><g><path d="M769,134.5H255c-2.8,0-5.37-1.56-6.66-4.05c-1.29-2.49-1.08-5.49,0.53-7.78l14.05-19.91c0,0,0,0,0,0    c7.64-10.81,20.1-17.26,33.33-17.26h431.5c13.23,0,25.69,6.45,33.33,17.26l14.05,19.91c1.62,2.29,1.82,5.29,0.53,7.78    C774.37,132.94,771.8,134.5,769,134.5z M269.47,119.5h485.06l-5.71-8.09c-4.83-6.83-12.71-10.91-21.07-10.91h-431.5    c-8.37,0-16.24,4.08-21.08,10.92L269.47,119.5z"/></g><g><path d="M691.06,346.5H332.94c-3.89,0-7.13-2.97-7.47-6.85l-18.44-212c-0.18-2.09,0.52-4.17,1.94-5.72s3.43-2.43,5.53-2.43h395    c2.1,0,4.11,0.88,5.53,2.43s2.13,3.62,1.94,5.72l-18.44,212C698.19,343.53,694.95,346.5,691.06,346.5z M339.82,331.5h344.37    l17.14-197H322.68L339.82,331.5z"/></g><g><path d="M386.16,419.43c-14.11,0-27.12-8.22-33.18-20.97l-26.75-56.24c-1.1-2.32-0.94-5.05,0.43-7.23    c1.37-2.18,3.77-3.49,6.34-3.49h358c2.58,0,4.98,1.33,6.35,3.51c1.37,2.19,1.52,4.92,0.4,7.25l-26.77,55.51    c-6.06,12.58-19.01,20.74-32.99,20.79l-251.71,0.87C386.24,419.43,386.2,419.43,386.16,419.43z M344.87,346.5l21.65,45.52    c0,0,0,0,0,0c3.58,7.54,11.28,12.41,19.63,12.41c0.03,0,0.05,0,0.08,0l251.71-0.87c8.28-0.03,15.94-4.86,19.53-12.31l21.58-44.75    H344.87z"/></g><g><path d="M481.66,544.13c-16.01,0-29.7-12.35-31.3-28.34c0,0,0,0,0,0l-10.32-103.6c-0.21-2.11,0.48-4.21,1.9-5.78    s3.44-2.47,5.56-2.47h129c2.12,0,4.14,0.9,5.56,2.47s2.11,3.67,1.9,5.78l-10.37,102.63c-1.6,15.87-14.83,28.03-30.78,28.29    l-60.63,1C482.01,544.13,481.83,544.13,481.66,544.13z M465.28,514.31c0.85,8.46,8.17,15,16.65,14.82l60.63-1    c8.34-0.14,15.26-6.5,16.1-14.8l9.54-94.38H455.78L465.28,514.31z"/></g><g><path d="M535.71,482.5h-47.4c-8.27,0-15-6.72-15-14.99V412c0-4.14,3.36-7.5,7.5-7.5h62.39c4.14,0,7.5,3.36,7.5,7.5v55.51    C550.7,475.78,543.98,482.5,535.71,482.5z M488.31,419.5v48.01c0,0.01,0,0.01,0,0.01l47.4-0.02l-0.01-48H488.31z"/></g><g><path d="M518.51,441.5h-13.02c-4.96,0-8.99-4.03-8.99-8.99V412c0-4.14,3.36-7.5,7.5-7.5h16c4.14,0,7.5,3.36,7.5,7.5v20.51    C527.5,437.47,523.47,441.5,518.51,441.5z M511.5,426.5h1v-7h-1V426.5z"/></g><g><path d="M620.13,244.73c-12.22,0-23.88-1.09-34.31-2.65c-20.02-2.99-39.8-8.03-58.94-12.9c-19.95-5.08-40.57-10.33-61.08-13.12    c-48.4-6.59-97.72,0.09-142.64,19.3l-5.9-13.79c47.41-20.28,99.47-27.33,150.56-20.38c21.35,2.9,42.4,8.26,62.75,13.44    c18.77,4.78,38.18,9.72,57.45,12.6c26.73,4,76.69,6.42,110.91-22.26l9.63,11.5C682.54,238.3,649.74,244.73,620.13,244.73z"/></g><g><rect x="408.94" y="368" width="21" height="15"/></g><g><rect x="447.94" y="368" width="21" height="15"/></g><g><rect x="555.06" y="368" width="21" height="15"/></g><g><rect x="594.06" y="368" width="21" height="15"/></g><g><rect x="487" y="368" width="50" height="15"/></g><g><g><path d="M451.4,784.02l-11.05-10.14c10.5-11.44,26.27-19.01,43.27-20.77c11.98-1.25,23.69,0.39,35.02,1.97     c6.2,0.87,12.06,1.68,17.97,2.06c14.89,0.96,32.39-2.45,37.92-12.25l13.06,7.38c-9.32,16.51-32.95,21.07-51.95,19.85     c-6.47-0.42-12.88-1.31-19.07-2.18c-10.92-1.52-21.23-2.96-31.4-1.91C471.95,769.39,459.33,775.37,451.4,784.02z"/></g><g><path d="M546.32,938.5h-68.64c-9.73,0-17.65-7.93-17.65-17.68c0-10.2-0.25-20.21-0.73-29.75c-1.21-23.63-3.88-45.19-8.15-65.92     c-1.74-8.44-3.83-17.1-5.85-25.47c-1.66-6.87-3.37-13.97-4.91-21.01c-4.46-20.42-8.53-44.59-4.84-69.05     c0.66-4.5,4.62-7.92,9.22-7.92h134.48c4.59,0,8.55,3.42,9.22,7.95c4.59,30.49-2.7,60.74-9.75,89.98     c-2.02,8.39-4.11,17.07-5.86,25.53l0,0c-4.28,20.73-6.95,42.3-8.15,65.93c-0.5,9.56-0.74,19.56-0.73,29.74     C563.97,930.57,556.05,938.5,546.32,938.5z M449.76,716.69c-2.15,20.5,1.41,41.09,5.28,58.77c1.5,6.88,3.2,13.9,4.84,20.7     c2.05,8.49,4.17,17.28,5.96,25.96c4.44,21.49,7.2,43.79,8.45,68.2c0.5,9.8,0.75,20.06,0.75,30.51c0,1.48,1.19,2.68,2.65,2.68     h68.64c1.46,0,2.65-1.2,2.65-2.68c-0.01-10.43,0.24-20.7,0.75-30.52c1.25-24.4,4.01-46.7,8.45-68.19l0,0     c1.79-8.7,3.92-17.5,5.97-26.01c6.61-27.42,12.88-53.42,10.11-79.42H449.76z M573.62,711.85c0,0.01,0,0.02,0,0.04     C573.63,711.87,573.63,711.86,573.62,711.85z M450.38,711.81c0,0.02-0.01,0.04-0.01,0.05     C450.38,711.85,450.38,711.83,450.38,711.81z"/></g></g><g><path d="M511.98,672.1c-9.98,0-19.36-3.89-26.42-10.95c-7.06-7.06-10.95-16.46-10.95-26.45c0-12.48,8.02-24.42,16.52-37.06    c4.97-7.4,10.11-15.04,14.14-23.34l6.96-14.34l6.61,14.5c4.25,9.33,9.73,17.42,15.03,25.24c8.34,12.31,15.54,22.94,15.54,35    c0,20.62-16.78,37.4-37.4,37.4C511.99,672.1,511.98,672.1,511.98,672.1z M511.84,593.3c-2.76,4.5-5.61,8.74-8.28,12.7    c-7.49,11.15-13.97,20.79-13.97,28.7c0,5.99,2.33,11.62,6.56,15.85c4.23,4.23,9.84,6.55,15.82,6.55c0.01,0,0.01,0,0.02,0    c12.36,0,22.41-10.05,22.41-22.4c0-7.46-6.01-16.33-12.96-26.59C518.35,603.55,515.02,598.64,511.84,593.3z"/></g><g><rect x="325.5" y="536.64" width="15" height="165.98"/></g><g><rect x="325.5" y="734.96" width="15" height="37.94"/></g></g></svg>