<svg width="979" height="251" viewBox="0 0 979 251" fill="none" xmlns="http://www.w3.org/2000/svg">
<path d="M65.7285 211.333C66.2477 211.333 66.6372 211.489 66.8968 211.8C67.1564 212.112 67.2862 212.527 67.2862 213.047C67.2862 213.436 67.2343 213.8 67.1304 214.137L59.3031 240.111C59.1214 240.605 58.8553 241 58.5048 241.299C58.1543 241.598 57.7454 241.747 57.2781 241.747C56.8108 241.747 56.3955 241.598 56.032 241.299C55.6685 241 55.4089 240.617 55.2532 240.15L49.4508 217.72L43.5706 240.111C43.3889 240.605 43.1228 241 42.7723 241.299C42.4218 241.598 42.0129 241.747 41.5456 241.747C41.0783 241.747 40.6629 241.604 40.2995 241.318C39.936 241.033 39.6764 240.643 39.5206 240.15L31.6933 214.137C31.5895 213.8 31.5375 213.449 31.5375 213.086C31.5375 212.54 31.6868 212.112 31.9854 211.8C32.2839 211.489 32.6928 211.333 33.212 211.333C33.6794 211.333 34.0882 211.463 34.4387 211.723C34.7892 211.982 35.0423 212.359 35.1981 212.852L41.5846 235.049L47.4648 213.086C47.5686 212.696 47.8023 212.372 48.1657 212.112C48.5292 211.852 48.9446 211.723 49.4119 211.723C49.8532 211.723 50.2556 211.839 50.6191 212.073C50.9825 212.307 51.2162 212.631 51.32 213.047L57.2781 235.205L63.7425 212.657C63.8723 212.19 64.0995 211.852 64.424 211.645C64.7485 211.437 65.1833 211.333 65.7285 211.333ZM93.8446 230.765C93.8446 231.258 93.6758 231.667 93.3383 231.992C93.0008 232.316 92.5725 232.479 92.0532 232.479H77.2553C77.5409 234.296 78.3652 235.763 79.7281 236.879C81.0911 237.995 82.7591 238.554 84.7322 238.554C85.511 238.554 86.3223 238.411 87.166 238.125C88.0098 237.84 88.7042 237.489 89.2494 237.074C89.6129 236.788 90.0412 236.645 90.5345 236.645C91.0278 236.645 91.4172 236.775 91.7028 237.035C92.1701 237.424 92.4037 237.866 92.4037 238.359C92.4037 238.826 92.196 239.216 91.7806 239.527C90.898 240.228 89.8011 240.799 88.4901 241.241C87.179 241.682 85.9264 241.903 84.7322 241.903C82.6033 241.903 80.6952 241.442 79.0077 240.52C77.3202 239.599 76.0027 238.32 75.0551 236.684C74.1075 235.049 73.6337 233.193 73.6337 231.116C73.6337 229.039 74.0816 227.176 74.9772 225.528C75.8729 223.879 77.119 222.594 78.7156 221.672C80.3123 220.751 82.1231 220.29 84.148 220.29C86.1471 220.29 87.8735 220.731 89.3273 221.614C90.7811 222.497 91.8975 223.73 92.6763 225.313C93.4551 226.897 93.8446 228.714 93.8446 230.765ZM84.148 223.639C82.2529 223.639 80.7147 224.158 79.5334 225.197C78.3522 226.235 77.6058 227.624 77.2943 229.363H90.2619C90.0283 227.624 89.3792 226.235 88.3148 225.197C87.2504 224.158 85.8615 223.639 84.148 223.639ZM133.371 220.29C135.058 220.29 136.57 220.562 137.907 221.108C139.244 221.653 140.302 222.406 141.081 223.366C141.419 223.782 141.587 224.197 141.587 224.612C141.587 225.054 141.367 225.456 140.925 225.82C140.64 226.027 140.276 226.131 139.835 226.131C139.16 226.131 138.55 225.884 138.005 225.391C137.356 224.794 136.668 224.372 135.941 224.126C135.214 223.879 134.331 223.756 133.293 223.756C132.098 223.756 131.118 223.957 130.353 224.359C129.587 224.762 129.204 225.326 129.204 226.053C129.204 226.572 129.334 227.007 129.593 227.358C129.853 227.708 130.346 228.033 131.073 228.331C131.8 228.63 132.851 228.922 134.227 229.208C137.057 229.779 139.063 230.57 140.244 231.583C141.425 232.595 142.016 233.907 142.016 235.516C142.016 236.71 141.691 237.794 141.042 238.768C140.393 239.741 139.439 240.507 138.18 241.065C136.921 241.623 135.409 241.903 133.643 241.903C131.878 241.903 130.216 241.63 128.659 241.085C127.101 240.54 125.881 239.826 124.998 238.943C124.661 238.605 124.492 238.203 124.492 237.736C124.492 237.113 124.751 236.606 125.271 236.217C125.764 235.854 126.218 235.672 126.634 235.672C127.153 235.672 127.646 235.906 128.113 236.373C128.607 236.918 129.347 237.392 130.333 237.794C131.32 238.197 132.371 238.398 133.487 238.398C134.967 238.398 136.116 238.151 136.934 237.658C137.752 237.165 138.16 236.503 138.16 235.672C138.16 234.867 137.758 234.199 136.953 233.666C136.148 233.134 134.785 232.686 132.864 232.323C127.88 231.362 125.387 229.311 125.387 226.17C125.387 224.898 125.764 223.821 126.517 222.938C127.27 222.055 128.256 221.393 129.476 220.952C130.697 220.51 131.995 220.29 133.371 220.29ZM172.39 220.407C172.987 220.407 173.468 220.588 173.831 220.952C174.195 221.315 174.376 221.796 174.376 222.393V239.761C174.376 240.332 174.195 240.806 173.831 241.182C173.468 241.559 172.987 241.747 172.39 241.747C171.819 241.747 171.345 241.559 170.969 241.182C170.593 240.806 170.404 240.332 170.404 239.761V239.332C169.574 240.163 168.587 240.806 167.445 241.26C166.302 241.714 165.082 241.942 163.784 241.942C161.993 241.942 160.383 241.552 158.955 240.773C157.528 239.994 156.411 238.859 155.606 237.366C154.802 235.873 154.399 234.075 154.399 231.972V222.393C154.399 221.822 154.587 221.348 154.964 220.971C155.34 220.595 155.814 220.407 156.385 220.407C156.956 220.407 157.43 220.595 157.807 220.971C158.183 221.348 158.371 221.822 158.371 222.393V231.972C158.371 234.075 158.936 235.665 160.065 236.743C161.195 237.82 162.694 238.359 164.563 238.359C165.653 238.359 166.646 238.138 167.542 237.697C168.438 237.256 169.139 236.658 169.645 235.906C170.151 235.153 170.404 234.309 170.404 233.374V222.393C170.404 221.796 170.593 221.315 170.969 220.952C171.345 220.588 171.819 220.407 172.39 220.407ZM199.883 220.29C201.882 220.29 203.706 220.764 205.355 221.711C207.003 222.659 208.295 223.957 209.229 225.605C210.164 227.254 210.631 229.091 210.631 231.116C210.631 233.141 210.196 234.977 209.327 236.626C208.457 238.274 207.263 239.566 205.744 240.501C204.225 241.435 202.531 241.903 200.662 241.903C199.156 241.903 197.754 241.591 196.456 240.968C195.158 240.345 194.055 239.475 193.146 238.359V248.873C193.146 249.47 192.965 249.951 192.601 250.314C192.238 250.677 191.757 250.859 191.16 250.859C190.589 250.859 190.115 250.677 189.739 250.314C189.363 249.951 189.174 249.47 189.174 248.873V231.116C189.174 229.091 189.648 227.254 190.596 225.605C191.543 223.957 192.828 222.659 194.451 221.711C196.074 220.764 197.884 220.29 199.883 220.29ZM199.883 238.398C201.181 238.398 202.356 238.08 203.408 237.444C204.459 236.808 205.29 235.938 205.9 234.835C206.51 233.731 206.815 232.492 206.815 231.116C206.815 229.74 206.51 228.494 205.9 227.377C205.29 226.261 204.459 225.385 203.408 224.749C202.356 224.113 201.181 223.795 199.883 223.795C198.585 223.795 197.411 224.113 196.359 224.749C195.308 225.385 194.483 226.261 193.886 227.377C193.289 228.494 192.991 229.74 192.991 231.116C192.991 232.492 193.289 233.731 193.886 234.835C194.483 235.938 195.308 236.808 196.359 237.444C197.411 238.08 198.585 238.398 199.883 238.398ZM235.048 220.29C237.047 220.29 238.871 220.764 240.519 221.711C242.168 222.659 243.459 223.957 244.394 225.605C245.329 227.254 245.796 229.091 245.796 231.116C245.796 233.141 245.361 234.977 244.491 236.626C243.622 238.274 242.427 239.566 240.909 240.501C239.39 241.435 237.696 241.903 235.827 241.903C234.321 241.903 232.919 241.591 231.621 240.968C230.323 240.345 229.22 239.475 228.311 238.359V248.873C228.311 249.47 228.129 249.951 227.766 250.314C227.402 250.677 226.922 250.859 226.325 250.859C225.754 250.859 225.28 250.677 224.903 250.314C224.527 249.951 224.339 249.47 224.339 248.873V231.116C224.339 229.091 224.813 227.254 225.76 225.605C226.708 223.957 227.993 222.659 229.615 221.711C231.238 220.764 233.049 220.29 235.048 220.29ZM235.048 238.398C236.346 238.398 237.521 238.08 238.572 237.444C239.624 236.808 240.454 235.938 241.064 234.835C241.674 233.731 241.98 232.492 241.98 231.116C241.98 229.74 241.674 228.494 241.064 227.377C240.454 226.261 239.624 225.385 238.572 224.749C237.521 224.113 236.346 223.795 235.048 223.795C233.75 223.795 232.575 224.113 231.524 224.749C230.472 225.385 229.648 226.261 229.051 227.377C228.454 228.494 228.155 229.74 228.155 231.116C228.155 232.492 228.454 233.731 229.051 234.835C229.648 235.938 230.472 236.808 231.524 237.444C232.575 238.08 233.75 238.398 235.048 238.398ZM269.161 220.29C271.212 220.29 273.049 220.751 274.671 221.672C276.294 222.594 277.566 223.872 278.488 225.508C279.409 227.144 279.87 229.013 279.87 231.116C279.87 233.193 279.416 235.049 278.507 236.684C277.598 238.32 276.333 239.599 274.71 240.52C273.088 241.442 271.238 241.903 269.161 241.903C267.084 241.903 265.228 241.442 263.592 240.52C261.957 239.599 260.685 238.32 259.776 236.684C258.867 235.049 258.413 233.193 258.413 231.116C258.413 229.013 258.867 227.144 259.776 225.508C260.685 223.872 261.957 222.594 263.592 221.672C265.228 220.751 267.084 220.29 269.161 220.29ZM269.161 223.795C267.837 223.795 266.649 224.106 265.598 224.729C264.546 225.352 263.722 226.222 263.125 227.338C262.528 228.455 262.229 229.714 262.229 231.116C262.229 232.518 262.528 233.77 263.125 234.874C263.722 235.977 264.546 236.84 265.598 237.463C266.649 238.086 267.837 238.398 269.161 238.398C270.485 238.398 271.673 238.086 272.724 237.463C273.776 236.84 274.593 235.977 275.177 234.874C275.762 233.77 276.054 232.518 276.054 231.116C276.054 229.714 275.762 228.455 275.177 227.338C274.593 226.222 273.776 225.352 272.724 224.729C271.673 224.106 270.485 223.795 269.161 223.795ZM304.014 220.212C305.39 220.212 306.467 220.42 307.246 220.835C308.025 221.25 308.414 221.77 308.414 222.393C308.414 222.574 308.401 222.704 308.375 222.782C308.142 223.613 307.623 224.028 306.818 224.028C306.688 224.028 306.493 224.002 306.234 223.95C305.195 223.769 304.351 223.678 303.702 223.678C301.833 223.678 300.327 224.106 299.185 224.963C298.043 225.82 297.472 226.975 297.472 228.429V239.8C297.472 240.423 297.309 240.903 296.985 241.241C296.66 241.578 296.174 241.747 295.525 241.747C294.902 241.747 294.421 241.585 294.084 241.26C293.746 240.936 293.578 240.449 293.578 239.8V222.393C293.578 221.77 293.746 221.289 294.084 220.952C294.421 220.614 294.902 220.446 295.525 220.446C296.823 220.446 297.472 221.095 297.472 222.393V223.133C298.251 222.224 299.211 221.51 300.353 220.991C301.496 220.472 302.716 220.212 304.014 220.212ZM329.365 237.853C329.832 237.853 330.228 238.034 330.553 238.398C330.877 238.761 331.04 239.229 331.04 239.8C331.04 240.371 330.825 240.838 330.397 241.202C329.969 241.565 329.417 241.747 328.742 241.747H328.041C326.769 241.747 325.607 241.416 324.556 240.754C323.504 240.092 322.68 239.19 322.083 238.047C321.486 236.905 321.187 235.62 321.187 234.192V224.573H319.396C318.851 224.573 318.409 224.418 318.072 224.106C317.734 223.795 317.566 223.405 317.566 222.938C317.566 222.419 317.734 222.003 318.072 221.692C318.409 221.38 318.851 221.224 319.396 221.224H321.187V215.617C321.187 215.046 321.369 214.578 321.733 214.215C322.096 213.851 322.563 213.67 323.134 213.67C323.706 213.67 324.173 213.851 324.536 214.215C324.9 214.578 325.082 215.046 325.082 215.617V221.224H328.392C328.937 221.224 329.378 221.38 329.716 221.692C330.053 222.003 330.222 222.419 330.222 222.938C330.222 223.405 330.053 223.795 329.716 224.106C329.378 224.418 328.937 224.573 328.392 224.573H325.082V234.192C325.082 235.231 325.367 236.1 325.938 236.801C326.509 237.502 327.21 237.853 328.041 237.853H329.365ZM372.084 214.916C370.631 214.916 369.462 215.396 368.58 216.357C367.697 217.317 367.256 218.589 367.256 220.173V221.224H371.228C371.773 221.224 372.214 221.38 372.552 221.692C372.889 222.003 373.058 222.419 373.058 222.938C373.058 223.405 372.889 223.795 372.552 224.106C372.214 224.418 371.773 224.573 371.228 224.573H367.256V239.761C367.256 240.358 367.074 240.838 366.71 241.202C366.347 241.565 365.841 241.747 365.192 241.747C364.672 241.747 364.225 241.565 363.848 241.202C363.472 240.838 363.283 240.358 363.283 239.761V224.573H361.609C361.064 224.573 360.622 224.418 360.285 224.106C359.947 223.795 359.779 223.405 359.779 222.938C359.779 222.419 359.947 222.003 360.285 221.692C360.622 221.38 361.064 221.224 361.609 221.224H363.283V220.562C363.283 218.719 363.653 217.103 364.393 215.714C365.133 214.325 366.172 213.248 367.509 212.482C368.846 211.716 370.371 211.333 372.084 211.333C372.656 211.333 373.129 211.502 373.506 211.839C373.882 212.177 374.07 212.605 374.07 213.125C374.07 213.644 373.882 214.072 373.506 214.41C373.129 214.747 372.656 214.916 372.084 214.916ZM393.853 220.29C395.904 220.29 397.741 220.751 399.363 221.672C400.986 222.594 402.258 223.872 403.179 225.508C404.101 227.144 404.562 229.013 404.562 231.116C404.562 233.193 404.108 235.049 403.199 236.684C402.29 238.32 401.025 239.599 399.402 240.52C397.78 241.442 395.93 241.903 393.853 241.903C391.776 241.903 389.92 241.442 388.284 240.52C386.649 239.599 385.377 238.32 384.468 236.684C383.559 235.049 383.105 233.193 383.105 231.116C383.105 229.013 383.559 227.144 384.468 225.508C385.377 223.872 386.649 222.594 388.284 221.672C389.92 220.751 391.776 220.29 393.853 220.29ZM393.853 223.795C392.529 223.795 391.341 224.106 390.29 224.729C389.238 225.352 388.414 226.222 387.817 227.338C387.22 228.455 386.921 229.714 386.921 231.116C386.921 232.518 387.22 233.77 387.817 234.874C388.414 235.977 389.238 236.84 390.29 237.463C391.341 238.086 392.529 238.398 393.853 238.398C395.177 238.398 396.365 238.086 397.416 237.463C398.467 236.84 399.285 235.977 399.869 234.874C400.454 233.77 400.746 232.518 400.746 231.116C400.746 229.714 400.454 228.455 399.869 227.338C399.285 226.222 398.467 225.352 397.416 224.729C396.365 224.106 395.177 223.795 393.853 223.795ZM428.706 220.212C430.082 220.212 431.159 220.42 431.938 220.835C432.717 221.25 433.106 221.77 433.106 222.393C433.106 222.574 433.093 222.704 433.067 222.782C432.834 223.613 432.314 224.028 431.51 224.028C431.38 224.028 431.185 224.002 430.926 223.95C429.887 223.769 429.043 223.678 428.394 223.678C426.525 223.678 425.019 224.106 423.877 224.963C422.735 225.82 422.164 226.975 422.164 228.429V239.8C422.164 240.423 422.001 240.903 421.677 241.241C421.352 241.578 420.866 241.747 420.217 241.747C419.593 241.747 419.113 241.585 418.776 241.26C418.438 240.936 418.269 240.449 418.269 239.8V222.393C418.269 221.77 418.438 221.289 418.776 220.952C419.113 220.614 419.593 220.446 420.217 220.446C421.515 220.446 422.164 221.095 422.164 222.393V223.133C422.942 222.224 423.903 221.51 425.045 220.991C426.188 220.472 427.408 220.212 428.706 220.212ZM466.168 211.333C465.571 211.333 465.091 211.515 464.727 211.878C464.364 212.242 464.182 212.722 464.182 213.319V231.077C464.182 233.102 464.656 234.938 465.603 236.587C466.551 238.236 467.836 239.534 469.459 240.481C471.081 241.429 472.892 241.903 474.891 241.903C476.89 241.903 478.714 241.429 480.362 240.481C482.011 239.534 483.302 238.236 484.237 236.587C485.172 234.938 485.639 233.102 485.639 231.077C485.639 229.052 485.204 227.215 484.334 225.566C483.465 223.918 482.27 222.626 480.752 221.692C479.233 220.757 477.539 220.29 475.67 220.29C474.164 220.29 472.762 220.601 471.464 221.224C470.166 221.847 469.063 222.717 468.154 223.834V213.319C468.154 212.722 467.966 212.242 467.589 211.878C467.213 211.515 466.739 211.333 466.168 211.333ZM474.891 238.398C473.593 238.398 472.418 238.08 471.367 237.444C470.315 236.808 469.491 235.931 468.894 234.815C468.297 233.699 467.998 232.453 467.998 231.077C467.998 229.701 468.297 228.461 468.894 227.358C469.491 226.254 470.315 225.385 471.367 224.749C472.418 224.113 473.593 223.795 474.891 223.795C476.189 223.795 477.364 224.113 478.415 224.749C479.467 225.385 480.297 226.254 480.907 227.358C481.518 228.461 481.823 229.701 481.823 231.077C481.823 232.453 481.518 233.699 480.907 234.815C480.297 235.931 479.467 236.808 478.415 237.444C477.364 238.08 476.189 238.398 474.891 238.398ZM518.467 230.765C518.467 231.258 518.298 231.667 517.961 231.992C517.623 232.316 517.195 232.479 516.676 232.479H501.878C502.163 234.296 502.987 235.763 504.35 236.879C505.713 237.995 507.381 238.554 509.355 238.554C510.133 238.554 510.945 238.411 511.788 238.125C512.632 237.84 513.327 237.489 513.872 237.074C514.235 236.788 514.664 236.645 515.157 236.645C515.65 236.645 516.04 236.775 516.325 237.035C516.792 237.424 517.026 237.866 517.026 238.359C517.026 238.826 516.818 239.216 516.403 239.527C515.52 240.228 514.423 240.799 513.112 241.241C511.801 241.682 510.549 241.903 509.355 241.903C507.226 241.903 505.318 241.442 503.63 240.52C501.943 239.599 500.625 238.32 499.677 236.684C498.73 235.049 498.256 233.193 498.256 231.116C498.256 229.039 498.704 227.176 499.6 225.528C500.495 223.879 501.741 222.594 503.338 221.672C504.935 220.751 506.745 220.29 508.77 220.29C510.769 220.29 512.496 220.731 513.95 221.614C515.403 222.497 516.52 223.73 517.299 225.313C518.077 226.897 518.467 228.714 518.467 230.765ZM508.77 223.639C506.875 223.639 505.337 224.158 504.156 225.197C502.975 226.235 502.228 227.624 501.917 229.363H514.884C514.651 227.624 514.002 226.235 512.937 225.197C511.873 224.158 510.484 223.639 508.77 223.639ZM540.391 237.853C540.858 237.853 541.254 238.034 541.579 238.398C541.903 238.761 542.066 239.229 542.066 239.8C542.066 240.371 541.851 240.838 541.423 241.202C540.995 241.565 540.443 241.747 539.768 241.747H539.067C537.795 241.747 536.633 241.416 535.582 240.754C534.53 240.092 533.706 239.19 533.109 238.047C532.512 236.905 532.213 235.62 532.213 234.192V224.573H530.422C529.877 224.573 529.436 224.418 529.098 224.106C528.761 223.795 528.592 223.405 528.592 222.938C528.592 222.419 528.761 222.003 529.098 221.692C529.436 221.38 529.877 221.224 530.422 221.224H532.213V215.617C532.213 215.046 532.395 214.578 532.759 214.215C533.122 213.851 533.589 213.67 534.161 213.67C534.732 213.67 535.199 213.851 535.562 214.215C535.926 214.578 536.108 215.046 536.108 215.617V221.224H539.418C539.963 221.224 540.404 221.38 540.742 221.692C541.079 222.003 541.248 222.419 541.248 222.938C541.248 223.405 541.079 223.795 540.742 224.106C540.404 224.418 539.963 224.573 539.418 224.573H536.108V234.192C536.108 235.231 536.393 236.1 536.964 236.801C537.535 237.502 538.236 237.853 539.067 237.853H540.391ZM563.795 237.853C564.263 237.853 564.658 238.034 564.983 238.398C565.307 238.761 565.47 239.229 565.47 239.8C565.47 240.371 565.256 240.838 564.827 241.202C564.399 241.565 563.847 241.747 563.172 241.747H562.471C561.199 241.747 560.037 241.416 558.986 240.754C557.935 240.092 557.11 239.19 556.513 238.047C555.916 236.905 555.617 235.62 555.617 234.192V224.573H553.826C553.281 224.573 552.84 224.418 552.502 224.106C552.165 223.795 551.996 223.405 551.996 222.938C551.996 222.419 552.165 222.003 552.502 221.692C552.84 221.38 553.281 221.224 553.826 221.224H555.617V215.617C555.617 215.046 555.799 214.578 556.163 214.215C556.526 213.851 556.993 213.67 557.565 213.67C558.136 213.67 558.603 213.851 558.966 214.215C559.33 214.578 559.512 215.046 559.512 215.617V221.224H562.822C563.367 221.224 563.808 221.38 564.146 221.692C564.483 222.003 564.652 222.419 564.652 222.938C564.652 223.405 564.483 223.795 564.146 224.106C563.808 224.418 563.367 224.573 562.822 224.573H559.512V234.192C559.512 235.231 559.797 236.1 560.368 236.801C560.94 237.502 561.64 237.853 562.471 237.853H563.795ZM597.246 230.765C597.246 231.258 597.078 231.667 596.74 231.992C596.403 232.316 595.974 232.479 595.455 232.479H580.657C580.943 234.296 581.767 235.763 583.13 236.879C584.493 237.995 586.161 238.554 588.134 238.554C588.913 238.554 589.724 238.411 590.568 238.125C591.412 237.84 592.106 237.489 592.651 237.074C593.015 236.788 593.443 236.645 593.936 236.645C594.43 236.645 594.819 236.775 595.105 237.035C595.572 237.424 595.806 237.866 595.806 238.359C595.806 238.826 595.598 239.216 595.182 239.527C594.3 240.228 593.203 240.799 591.892 241.241C590.581 241.682 589.328 241.903 588.134 241.903C586.005 241.903 584.097 241.442 582.409 240.52C580.722 239.599 579.404 238.32 578.457 236.684C577.509 235.049 577.036 233.193 577.036 231.116C577.036 229.039 577.483 227.176 578.379 225.528C579.275 223.879 580.521 222.594 582.117 221.672C583.714 220.751 585.525 220.29 587.55 220.29C589.549 220.29 591.275 220.731 592.729 221.614C594.183 222.497 595.299 223.73 596.078 225.313C596.857 226.897 597.246 228.714 597.246 230.765ZM587.55 223.639C585.655 223.639 584.116 224.158 582.935 225.197C581.754 226.235 581.008 227.624 580.696 229.363H593.664C593.43 227.624 592.781 226.235 591.717 225.197C590.652 224.158 589.263 223.639 587.55 223.639ZM620.534 220.212C621.91 220.212 622.987 220.42 623.766 220.835C624.545 221.25 624.934 221.77 624.934 222.393C624.934 222.574 624.921 222.704 624.895 222.782C624.661 223.613 624.142 224.028 623.337 224.028C623.208 224.028 623.013 224.002 622.753 223.95C621.715 223.769 620.871 223.678 620.222 223.678C618.353 223.678 616.847 224.106 615.705 224.963C614.563 225.82 613.991 226.975 613.991 228.429V239.8C613.991 240.423 613.829 240.903 613.505 241.241C613.18 241.578 612.693 241.747 612.044 241.747C611.421 241.747 610.941 241.585 610.603 241.26C610.266 240.936 610.097 240.449 610.097 239.8V222.393C610.097 221.77 610.266 221.289 610.603 220.952C610.941 220.614 611.421 220.446 612.044 220.446C613.342 220.446 613.991 221.095 613.991 222.393V223.133C614.77 222.224 615.731 221.51 616.873 220.991C618.015 220.472 619.236 220.212 620.534 220.212ZM666.602 220.251C668.393 220.251 670.003 220.64 671.431 221.419C672.859 222.198 673.975 223.334 674.78 224.827C675.584 226.319 675.987 228.117 675.987 230.22V239.8C675.987 240.371 675.799 240.845 675.422 241.221C675.046 241.598 674.572 241.786 674.001 241.786C673.43 241.786 672.956 241.598 672.579 241.221C672.203 240.845 672.015 240.371 672.015 239.8V230.22C672.015 228.117 671.45 226.527 670.321 225.45C669.191 224.372 667.692 223.834 665.823 223.834C664.733 223.834 663.74 224.054 662.844 224.496C661.948 224.937 661.247 225.534 660.741 226.287C660.235 227.04 659.982 227.883 659.982 228.818V239.8C659.982 240.371 659.8 240.845 659.437 241.221C659.073 241.598 658.593 241.786 657.996 241.786C657.425 241.786 656.951 241.598 656.574 241.221C656.198 240.845 656.01 240.371 656.01 239.8V213.319C656.01 212.722 656.198 212.242 656.574 211.878C656.951 211.515 657.425 211.333 657.996 211.333C658.593 211.333 659.073 211.515 659.437 211.878C659.8 212.242 659.982 212.722 659.982 213.319V222.86C660.812 222.029 661.799 221.387 662.941 220.932C664.084 220.478 665.304 220.251 666.602 220.251ZM709.516 230.765C709.516 231.258 709.347 231.667 709.01 231.992C708.672 232.316 708.244 232.479 707.724 232.479H692.927C693.212 234.296 694.036 235.763 695.399 236.879C696.762 237.995 698.43 238.554 700.403 238.554C701.182 238.554 701.994 238.411 702.837 238.125C703.681 237.84 704.375 237.489 704.921 237.074C705.284 236.788 705.712 236.645 706.206 236.645C706.699 236.645 707.088 236.775 707.374 237.035C707.841 237.424 708.075 237.866 708.075 238.359C708.075 238.826 707.867 239.216 707.452 239.527C706.569 240.228 705.472 240.799 704.161 241.241C702.85 241.682 701.598 241.903 700.403 241.903C698.275 241.903 696.366 241.442 694.679 240.52C692.991 239.599 691.674 238.32 690.726 236.684C689.779 235.049 689.305 233.193 689.305 231.116C689.305 229.039 689.753 227.176 690.648 225.528C691.544 223.879 692.79 222.594 694.387 221.672C695.983 220.751 697.794 220.29 699.819 220.29C701.818 220.29 703.545 220.731 704.999 221.614C706.452 222.497 707.569 223.73 708.348 225.313C709.126 226.897 709.516 228.714 709.516 230.765ZM699.819 223.639C697.924 223.639 696.386 224.158 695.205 225.197C694.023 226.235 693.277 227.624 692.966 229.363H705.933C705.7 227.624 705.05 226.235 703.986 225.197C702.922 224.158 701.533 223.639 699.819 223.639ZM731.245 220.29C733.244 220.29 735.055 220.764 736.678 221.711C738.3 222.659 739.585 223.957 740.533 225.605C741.481 227.254 741.954 229.091 741.954 231.116V239.8C741.954 240.371 741.766 240.845 741.39 241.221C741.013 241.598 740.539 241.786 739.968 241.786C739.397 241.786 738.923 241.598 738.547 241.221C738.171 240.845 737.982 240.371 737.982 239.8V238.359C737.074 239.475 735.97 240.345 734.672 240.968C733.374 241.591 731.972 241.903 730.467 241.903C728.597 241.903 726.903 241.435 725.385 240.501C723.866 239.566 722.672 238.274 721.802 236.626C720.932 234.977 720.497 233.141 720.497 231.116C720.497 229.091 720.965 227.254 721.899 225.605C722.834 223.957 724.126 222.659 725.774 221.711C727.423 220.764 729.246 220.29 731.245 220.29ZM731.245 238.398C732.543 238.398 733.718 238.08 734.77 237.444C735.821 236.808 736.645 235.938 737.242 234.835C737.84 233.731 738.138 232.492 738.138 231.116C738.138 229.74 737.84 228.494 737.242 227.377C736.645 226.261 735.821 225.385 734.77 224.749C733.718 224.113 732.543 223.795 731.245 223.795C729.947 223.795 728.773 224.113 727.721 224.749C726.67 225.385 725.839 226.261 725.229 227.377C724.619 228.494 724.314 229.74 724.314 231.116C724.314 232.492 724.619 233.731 725.229 234.835C725.839 235.938 726.67 236.808 727.721 237.444C728.773 238.08 729.947 238.398 731.245 238.398ZM754.883 213.28C754.883 212.709 755.065 212.242 755.428 211.878C755.792 211.515 756.259 211.333 756.83 211.333C757.401 211.333 757.869 211.515 758.232 211.878C758.596 212.242 758.777 212.709 758.777 213.28V234.543C758.777 235.503 758.959 236.295 759.322 236.918C759.686 237.541 760.153 237.853 760.724 237.853H761.698C762.217 237.853 762.639 238.034 762.964 238.398C763.288 238.761 763.45 239.229 763.45 239.8C763.45 240.371 763.204 240.838 762.71 241.202C762.217 241.565 761.581 241.747 760.802 241.747H760.724C759.608 241.747 758.602 241.442 757.706 240.832C756.811 240.222 756.116 239.365 755.623 238.262C755.13 237.158 754.883 235.918 754.883 234.543V213.28ZM784.206 237.853C784.674 237.853 785.07 238.034 785.394 238.398C785.719 238.761 785.881 239.229 785.881 239.8C785.881 240.371 785.667 240.838 785.238 241.202C784.81 241.565 784.258 241.747 783.583 241.747H782.882C781.61 241.747 780.448 241.416 779.397 240.754C778.346 240.092 777.521 239.19 776.924 238.047C776.327 236.905 776.029 235.62 776.029 234.192V224.573H774.237C773.692 224.573 773.251 224.418 772.913 224.106C772.576 223.795 772.407 223.405 772.407 222.938C772.407 222.419 772.576 222.003 772.913 221.692C773.251 221.38 773.692 221.224 774.237 221.224H776.029V215.617C776.029 215.046 776.21 214.578 776.574 214.215C776.937 213.851 777.405 213.67 777.976 213.67C778.547 213.67 779.014 213.851 779.378 214.215C779.741 214.578 779.923 215.046 779.923 215.617V221.224H783.233C783.778 221.224 784.219 221.38 784.557 221.692C784.894 222.003 785.063 222.419 785.063 222.938C785.063 223.405 784.894 223.795 784.557 224.106C784.219 224.418 783.778 224.573 783.233 224.573H779.923V234.192C779.923 235.231 780.208 236.1 780.779 236.801C781.351 237.502 782.052 237.853 782.882 237.853H784.206ZM809.129 220.251C810.92 220.251 812.53 220.64 813.958 221.419C815.386 222.198 816.502 223.334 817.307 224.827C818.112 226.319 818.514 228.117 818.514 230.22V239.8C818.514 240.371 818.326 240.845 817.95 241.221C817.573 241.598 817.099 241.786 816.528 241.786C815.957 241.786 815.483 241.598 815.107 241.221C814.73 240.845 814.542 240.371 814.542 239.8V230.22C814.542 228.117 813.977 226.527 812.848 225.45C811.719 224.372 810.22 223.834 808.35 223.834C807.26 223.834 806.267 224.054 805.371 224.496C804.476 224.937 803.775 225.534 803.268 226.287C802.762 227.04 802.509 227.883 802.509 228.818V239.8C802.509 240.371 802.327 240.845 801.964 241.221C801.6 241.598 801.12 241.786 800.523 241.786C799.952 241.786 799.478 241.598 799.102 241.221C798.725 240.845 798.537 240.371 798.537 239.8V213.319C798.537 212.722 798.725 212.242 799.102 211.878C799.478 211.515 799.952 211.333 800.523 211.333C801.12 211.333 801.6 211.515 801.964 211.878C802.327 212.242 802.509 212.722 802.509 213.319V222.86C803.34 222.029 804.326 221.387 805.469 220.932C806.611 220.478 807.831 220.251 809.129 220.251ZM842.386 220.29C845.449 220.29 847.993 221.458 850.018 223.795C850.278 224.08 850.408 224.418 850.408 224.807C850.408 225.378 850.122 225.859 849.551 226.248C849.291 226.43 848.993 226.521 848.655 226.521C848.058 226.521 847.552 226.287 847.136 225.82C846.487 225.119 845.78 224.606 845.014 224.281C844.248 223.957 843.372 223.795 842.386 223.795C840.386 223.795 838.764 224.463 837.518 225.8C836.272 227.137 835.649 228.909 835.649 231.116C835.649 232.518 835.941 233.77 836.525 234.874C837.109 235.977 837.927 236.84 838.978 237.463C840.03 238.086 841.23 238.398 842.58 238.398C844.346 238.398 845.773 237.943 846.864 237.035C847.357 236.671 847.837 236.49 848.305 236.49C848.668 236.49 849.006 236.606 849.317 236.84C849.81 237.256 850.057 237.723 850.057 238.242C850.057 238.631 849.901 238.982 849.59 239.293C847.721 241.033 845.384 241.903 842.58 241.903C840.529 241.903 838.686 241.435 837.05 240.501C835.415 239.566 834.136 238.274 833.215 236.626C832.293 234.977 831.832 233.141 831.832 231.116C831.832 229.039 832.28 227.176 833.176 225.528C834.071 223.879 835.324 222.594 836.934 221.672C838.543 220.751 840.361 220.29 842.386 220.29ZM873.773 220.29C875.772 220.29 877.582 220.764 879.205 221.711C880.828 222.659 882.113 223.957 883.06 225.605C884.008 227.254 884.482 229.091 884.482 231.116V239.8C884.482 240.371 884.294 240.845 883.917 241.221C883.541 241.598 883.067 241.786 882.496 241.786C881.925 241.786 881.451 241.598 881.074 241.221C880.698 240.845 880.51 240.371 880.51 239.8V238.359C879.601 239.475 878.498 240.345 877.2 240.968C875.902 241.591 874.5 241.903 872.994 241.903C871.125 241.903 869.431 241.435 867.912 240.501C866.393 239.566 865.199 238.274 864.329 236.626C863.46 234.977 863.025 233.141 863.025 231.116C863.025 229.091 863.492 227.254 864.427 225.605C865.361 223.957 866.653 222.659 868.301 221.711C869.95 220.764 871.774 220.29 873.773 220.29ZM873.773 238.398C875.071 238.398 876.245 238.08 877.297 237.444C878.348 236.808 879.173 235.938 879.77 234.835C880.367 233.731 880.665 232.492 880.665 231.116C880.665 229.74 880.367 228.494 879.77 227.377C879.173 226.261 878.348 225.385 877.297 224.749C876.245 224.113 875.071 223.795 873.773 223.795C872.475 223.795 871.3 224.113 870.248 224.749C869.197 225.385 868.366 226.261 867.756 227.377C867.146 228.494 866.841 229.74 866.841 231.116C866.841 232.492 867.146 233.731 867.756 234.835C868.366 235.938 869.197 236.808 870.248 237.444C871.3 238.08 872.475 238.398 873.773 238.398ZM908.626 220.212C910.002 220.212 911.079 220.42 911.858 220.835C912.637 221.25 913.026 221.77 913.026 222.393C913.026 222.574 913.013 222.704 912.987 222.782C912.754 223.613 912.234 224.028 911.429 224.028C911.3 224.028 911.105 224.002 910.845 223.95C909.807 223.769 908.963 223.678 908.314 223.678C906.445 223.678 904.939 224.106 903.797 224.963C902.655 225.82 902.083 226.975 902.083 228.429V239.8C902.083 240.423 901.921 240.903 901.597 241.241C901.272 241.578 900.785 241.747 900.136 241.747C899.513 241.747 899.033 241.585 898.696 241.26C898.358 240.936 898.189 240.449 898.189 239.8V222.393C898.189 221.77 898.358 221.289 898.696 220.952C899.033 220.614 899.513 220.446 900.136 220.446C901.434 220.446 902.083 221.095 902.083 222.393V223.133C902.862 222.224 903.823 221.51 904.965 220.991C906.107 220.472 907.328 220.212 908.626 220.212ZM942.466 230.765C942.466 231.258 942.297 231.667 941.96 231.992C941.622 232.316 941.194 232.479 940.675 232.479H925.877C926.162 234.296 926.987 235.763 928.35 236.879C929.713 237.995 931.381 238.554 933.354 238.554C934.133 238.554 934.944 238.411 935.788 238.125C936.631 237.84 937.326 237.489 937.871 237.074C938.234 236.788 938.663 236.645 939.156 236.645C939.649 236.645 940.039 236.775 940.324 237.035C940.792 237.424 941.025 237.866 941.025 238.359C941.025 238.826 940.818 239.216 940.402 239.527C939.52 240.228 938.423 240.799 937.112 241.241C935.801 241.682 934.548 241.903 933.354 241.903C931.225 241.903 929.317 241.442 927.629 240.52C925.942 239.599 924.624 238.32 923.677 236.684C922.729 235.049 922.255 233.193 922.255 231.116C922.255 229.039 922.703 227.176 923.599 225.528C924.494 223.879 925.741 222.594 927.337 221.672C928.934 220.751 930.745 220.29 932.77 220.29C934.769 220.29 936.495 220.731 937.949 221.614C939.403 222.497 940.519 223.73 941.298 225.313C942.077 226.897 942.466 228.714 942.466 230.765ZM932.77 223.639C930.874 223.639 929.336 224.158 928.155 225.197C926.974 226.235 926.227 227.624 925.916 229.363H938.884C938.65 227.624 938.001 226.235 936.936 225.197C935.872 224.158 934.483 223.639 932.77 223.639Z" fill="black"/>
<path d="M67.0992 68.6654C78.3002 68.6654 88.3628 71.0999 97.2931 75.9688C106.223 80.8378 113.2 87.9403 118.234 97.2704C123.268 106.607 125.783 117.842 125.783 130.988V190.876C125.783 194.448 124.608 197.412 122.252 199.762C119.896 202.117 116.937 203.292 113.364 203.292C109.791 203.292 106.832 202.117 104.476 199.762C102.121 197.412 100.946 194.448 100.946 190.876V130.988C100.946 117.842 97.4149 107.903 90.3534 101.166C83.2919 94.4343 73.9172 91.0626 62.2293 91.0626C55.4113 91.0626 49.2021 92.4441 43.6016 95.2011C38.0011 97.9643 33.6182 101.695 30.4527 106.4C27.2872 111.11 25.7044 116.381 25.7044 122.224V190.876C25.7044 194.448 24.5661 197.412 22.2954 199.762C20.0248 202.117 17.0176 203.292 13.286 203.292C9.71264 203.292 6.75413 202.117 4.39828 199.762C2.04243 197.412 0.867535 194.448 0.867535 190.876V25.3319C0.867535 21.6011 2.04243 18.6006 4.39828 16.3243C6.75413 14.0542 9.71264 12.9161 13.286 12.9161C17.0176 12.9161 20.0248 14.0542 22.2954 16.3243C24.5661 18.6006 25.7044 21.6011 25.7044 25.3319V84.9764C30.8971 79.7849 37.0698 75.768 44.2104 72.9257C51.351 70.0896 58.9846 68.6654 67.0992 68.6654ZM286.735 134.396C286.735 137.482 285.682 140.038 283.57 142.065C281.458 144.097 278.779 145.108 275.534 145.108H183.005C184.788 156.471 189.945 165.643 198.467 172.617C206.989 179.598 217.417 183.085 229.757 183.085C234.627 183.085 239.697 182.197 244.975 180.408C250.253 178.624 254.593 176.433 258.002 173.835C260.273 172.051 262.952 171.157 266.038 171.157C269.124 171.157 271.559 171.972 273.343 173.591C276.265 176.026 277.726 178.789 277.726 181.868C277.726 184.79 276.429 187.224 273.83 189.172C268.309 193.554 261.454 197.126 253.254 199.883C245.054 202.646 237.226 204.022 229.757 204.022C216.443 204.022 204.512 201.143 193.962 195.38C183.413 189.622 175.17 181.625 169.247 171.4C163.324 161.175 160.359 149.575 160.359 136.587C160.359 123.605 163.16 111.962 168.76 101.652C174.361 91.3486 182.153 83.3149 192.136 77.5513C202.119 71.7937 213.442 68.9089 226.104 68.9089C238.602 68.9089 249.401 71.672 258.489 77.1861C267.578 82.7062 274.56 90.4174 279.43 100.314C284.3 110.216 286.735 121.579 286.735 134.396ZM226.104 89.8453C214.252 89.8453 204.634 93.0953 197.249 99.5832C189.865 106.077 185.196 114.762 183.248 125.632H264.333C262.872 114.762 258.812 106.077 252.159 99.5832C245.505 93.0953 236.818 89.8453 226.104 89.8453ZM373.908 68.9089C386.406 68.9089 397.728 71.8729 407.876 77.7947C418.024 83.7226 426.059 91.8355 431.983 102.139C437.906 112.449 440.87 123.928 440.87 136.587V190.876C440.87 194.448 439.695 197.412 437.339 199.762C434.984 202.117 432.025 203.292 428.452 203.292C424.878 203.292 421.92 202.117 419.564 199.762C417.208 197.412 416.033 194.448 416.033 190.876V181.868C410.354 188.849 403.451 194.284 395.336 198.179C387.221 202.074 378.455 204.022 369.038 204.022C357.35 204.022 346.758 201.101 337.261 195.258C327.765 189.415 320.296 181.345 314.86 171.035C309.423 160.731 306.702 149.246 306.702 136.587C306.702 123.928 309.624 112.449 315.468 102.139C321.312 91.8355 329.39 83.7226 339.696 77.7947C350.003 71.8729 361.41 68.9089 373.908 68.9089ZM373.908 182.112C382.023 182.112 389.37 180.128 395.945 176.147C402.519 172.173 407.675 166.738 411.407 159.836C415.139 152.941 417.007 145.193 417.007 136.587C417.007 127.987 415.139 120.197 411.407 113.216C407.675 106.241 402.519 100.764 395.945 96.7836C389.37 92.8093 382.023 90.8191 373.908 90.8191C365.793 90.8191 358.446 92.8093 351.871 96.7836C345.297 100.764 340.104 106.241 336.287 113.216C332.471 120.197 330.565 127.987 330.565 136.587C330.565 145.193 332.471 152.941 336.287 159.836C340.104 166.738 345.297 172.173 351.871 176.147C358.446 180.128 365.793 182.112 373.908 182.112ZM473.012 25.0885C473.012 21.522 474.15 18.6006 476.421 16.3243C478.692 14.0542 481.614 12.9161 485.187 12.9161C488.76 12.9161 491.682 14.0542 493.953 16.3243C496.224 18.6006 497.362 21.522 497.362 25.0885V158.01C497.362 164.018 498.5 168.966 500.771 172.861C503.042 176.756 505.964 178.703 509.537 178.703H515.624C518.869 178.703 521.511 179.842 523.538 182.112C525.565 184.388 526.582 187.309 526.582 190.876C526.582 194.448 525.042 197.37 521.955 199.64C518.869 201.916 514.894 203.048 510.024 203.048H509.537C502.555 203.048 496.266 201.143 490.666 197.327C485.065 193.517 480.725 188.161 477.639 181.26C474.552 174.364 473.012 166.616 473.012 158.01V25.0885ZM563.35 12.9161C559.619 12.9161 556.611 14.0542 554.341 16.3243C552.07 18.6006 550.932 21.6011 550.932 25.3319V136.344C550.932 149.003 553.896 160.488 559.82 170.791C565.743 181.101 573.778 189.214 583.926 195.136C594.074 201.064 605.396 204.022 617.894 204.022C630.392 204.022 641.8 201.064 652.106 195.136C662.412 189.214 670.49 181.101 676.334 170.791C682.178 160.488 685.1 149.003 685.1 136.344C685.1 123.684 682.379 112.206 676.943 101.896C671.506 91.5921 664.037 83.5157 654.541 77.673C645.044 71.8303 634.452 68.9089 622.764 68.9089C613.347 68.9089 604.581 70.8565 596.466 74.7516C588.351 78.6468 581.448 84.0878 575.769 91.0626V25.3319C575.769 21.6011 574.594 18.6006 572.238 16.3243C569.882 14.0542 566.924 12.9161 563.35 12.9161ZM617.894 182.112C609.779 182.112 602.432 180.128 595.857 176.147C589.283 172.173 584.127 166.695 580.395 159.715C576.664 152.74 574.795 144.95 574.795 136.344C574.795 127.744 576.664 119.996 580.395 113.095C584.127 106.199 589.283 100.764 595.857 96.7836C602.432 92.8093 609.779 90.8191 617.894 90.8191C626.009 90.8191 633.356 92.8093 639.931 96.7836C646.505 100.764 651.698 106.199 655.515 113.095C659.331 119.996 661.237 127.744 661.237 136.344C661.237 144.95 659.331 152.74 655.515 159.715C651.698 166.695 646.505 172.173 639.931 176.147C633.356 180.128 626.009 182.112 617.894 182.112ZM782.499 68.9089C795.326 68.9089 806.807 71.7937 816.954 77.5513C827.102 83.3149 835.053 91.306 840.817 101.531C846.582 111.756 849.462 123.441 849.462 136.587C849.462 149.575 846.619 161.175 840.939 171.4C835.26 181.625 827.346 189.622 817.198 195.38C807.05 201.143 795.484 204.022 782.499 204.022C769.515 204.022 757.906 201.143 747.679 195.38C737.452 189.622 729.496 181.625 723.816 171.4C718.136 161.175 715.294 149.575 715.294 136.587C715.294 123.441 718.136 111.756 723.816 101.531C729.496 91.306 737.452 83.3149 747.679 77.5513C757.906 71.7937 769.515 68.9089 782.499 68.9089ZM782.499 90.8191C774.22 90.8191 766.794 92.7667 760.219 96.6618C753.645 100.557 748.489 105.998 744.757 112.973C741.025 119.954 739.157 127.823 739.157 136.587C739.157 145.351 741.025 153.184 744.757 160.08C748.489 166.981 753.645 172.374 760.219 176.269C766.794 180.164 774.22 182.112 782.499 182.112C790.778 182.112 798.205 180.164 804.78 176.269C811.354 172.374 816.467 166.981 820.12 160.08C823.772 153.184 825.599 145.351 825.599 136.587C825.599 127.823 823.772 119.954 820.12 112.973C816.467 105.998 811.354 100.557 804.78 96.6618C798.205 92.7667 790.778 90.8191 782.499 90.8191ZM975.351 184.303C977.621 186.737 978.76 189.579 978.76 192.823C978.76 195.745 977.743 198.179 975.716 200.127C973.689 202.074 971.047 203.048 967.802 203.048C963.906 203.048 960.984 201.752 959.036 199.153L920.32 152.898L883.551 199.153C881.116 201.752 878.194 203.048 874.785 203.048C871.541 203.048 868.984 202.074 867.115 200.127C865.246 198.179 864.315 195.745 864.315 192.823C864.315 189.579 865.453 186.579 867.724 183.816L905.466 136.587L865.289 89.115C862.854 86.1936 861.637 83.114 861.637 79.864C861.637 77.107 862.568 74.7516 864.437 72.804C866.306 70.8565 868.942 69.8827 872.351 69.8827C876.247 69.8827 879.333 71.2642 881.603 74.0213L921.537 121.737L957.332 74.0213C959.444 71.2642 962.445 69.8827 966.341 69.8827C969.586 69.8827 972.142 70.8991 974.011 72.9257C975.88 74.9585 976.812 77.4295 976.812 80.3509C976.812 83.9235 975.673 87.1674 973.403 90.0888L936.634 138.048L975.351 184.303Z" fill="#0214EA"/>
<path d="M742.739 60.0726V17.5087H754.774V60.0726H742.739ZM793.856 17.5087H805.648V60.0726H795.74L776.959 37.3921V60.0726H765.167V17.5087H775.075L793.856 40.1892V17.5087ZM815.981 60.0726V17.5087H836.099C840.759 17.5087 844.892 18.3802 848.499 20.1233C852.105 21.8664 854.901 24.3392 856.887 27.5416C858.872 30.7441 859.865 34.4937 859.865 38.7907C859.865 43.0876 858.872 46.8373 856.887 50.0397C854.901 53.2421 852.105 55.7149 848.499 57.458C844.892 59.2011 840.759 60.0726 836.099 60.0726H815.981ZM828.015 50.4653H835.613C839.26 50.4653 842.188 49.4316 844.396 47.3643C846.604 45.2969 847.709 42.439 847.709 38.7907C847.709 35.1423 846.604 32.2845 844.396 30.2171C842.188 28.1497 839.26 27.116 835.613 27.116H828.015V50.4653Z" fill="black"/>
<path d="M950.478 22.6037L942.189 22.5425C939.95 22.5425 938.129 20.635 938.129 18.289L938.123 10.2469C938.123 4.66288 933.493 0.119812 927.803 0.119812H912.681C906.991 0.119812 902.36 4.66288 902.36 10.2469L902.414 33.4771C902.414 38.6186 906.343 42.8762 911.407 43.5175H928.368C930.234 43.7265 931.733 45.0927 932.055 46.8443V70.7209C932.055 72.9587 930.147 74.7796 927.802 74.7796H912.681C910.336 74.7796 908.427 72.9587 908.427 70.7209V61.233C907.868 56.4422 903.887 52.6577 898.949 52.2968H890.005C887.767 52.2968 885.946 50.3892 885.946 48.0432V32.9235C885.946 30.5775 887.767 28.67 890.005 28.67H896.294V22.6027H890.005C884.42 22.6027 879.878 27.2324 879.878 32.9235V48.0432C879.878 53.7343 884.42 58.364 890.005 58.364H898.682C900.542 58.5751 902.036 59.9362 902.36 61.6796V70.7198C902.36 76.3039 906.991 80.8469 912.681 80.8469H927.802C933.492 80.8469 938.122 76.3039 938.122 70.7198V53.8363H938.19L938.122 46.3997C937.567 41.5987 933.577 37.805 928.627 37.4513H911.863C909.934 37.0669 908.483 35.4326 908.483 33.4791L908.429 10.2489C908.429 8.01104 910.337 6.19015 912.682 6.19015H927.803C930.148 6.19015 932.056 8.01104 932.056 10.2489L932.061 18.2911C932.061 23.9811 936.606 28.6119 942.19 28.6119L950.479 28.673C952.717 28.673 954.539 30.5806 954.539 32.9265V48.0463C954.539 50.3923 952.717 52.2998 950.479 52.2998H944.191V58.3671H950.479C956.063 58.3671 960.606 53.7374 960.606 48.0463V32.9265C960.604 27.2334 956.061 22.6037 950.478 22.6037Z" fill="#FF7900"/>
</svg>
