<svg width="218" height="87" viewBox="0 0 218 87" fill="none" xmlns="http://www.w3.org/2000/svg">
<g clip-path="url(#clip0_237_24180)">
<path d="M4.75376 19.4838H19.4832V4.75434C19.4832 2.126 17.3528 0 14.7289 0C12.1006 0 9.97457 2.13048 9.97457 4.75434V9.97066H4.75825C2.1299 9.97066 0.00390625 12.1011 0.00390625 14.725C0.00390625 17.3533 2.13439 19.4793 4.75825 19.4793L4.75376 19.4838Z" fill="#034EA2"/>
<path d="M25.8203 4.75434V19.4838H40.5498C43.1781 19.4838 45.3041 17.3533 45.3041 14.7295C45.3041 12.1011 43.1737 9.97515 40.5498 9.97515H35.3335V4.75883C35.329 2.13048 33.203 0 30.5747 0C27.9508 0 25.8203 2.13048 25.8203 4.75434Z" fill="#ED1C24"/>
<path d="M19.4838 40.5508V25.8213H4.75434C2.126 25.8213 0 27.9518 0 30.5756C0 33.204 2.13048 35.33 4.75434 35.33H9.97066V40.5463C9.97066 43.1746 12.1011 45.3006 14.725 45.3006C17.3533 45.3006 19.4793 43.1701 19.4793 40.5463L19.4838 40.5508Z" fill="#EB2127"/>
<path d="M32.7455 25.8438L45.9724 47.1037H46.0621V25.8438H52.5882V57.5319H45.6181L32.436 36.3168H32.3463V57.5319H25.8203V25.8438H32.7455Z" fill="#034EA2"/>
<path d="M55.8577 41.6449C55.9474 40.1648 56.3152 38.9359 56.9655 37.9626C57.6159 36.9848 58.4457 36.2043 59.4504 35.6123C60.455 35.0202 61.5853 34.5986 62.8457 34.3475C64.1015 34.0963 65.3664 33.9707 66.6402 33.9707C67.7929 33.9707 68.9635 34.0514 70.1476 34.2129C71.3317 34.3744 72.4127 34.6928 73.386 35.1683C74.3637 35.6437 75.1621 36.2985 75.7811 37.1418C76.4045 37.985 76.714 39.1018 76.714 40.4922V52.4319C76.714 53.468 76.7723 54.4592 76.8934 55.4056C77.01 56.352 77.2208 57.0607 77.5168 57.5361H71.1254C71.0088 57.1818 70.9101 56.8185 70.8383 56.4507C70.7621 56.0829 70.7128 55.7016 70.6814 55.3204C69.6767 56.3565 68.4926 57.0831 67.1291 57.4957C65.7656 57.9084 64.3751 58.1192 62.9578 58.1192C61.8634 58.1192 60.8408 57.9846 59.8944 57.72C58.948 57.4554 58.1182 57.0382 57.4096 56.4776C56.7009 55.9169 56.1447 55.2038 55.7456 54.3471C55.3464 53.4904 55.1445 52.4678 55.1445 51.2837C55.1445 49.983 55.3733 48.911 55.8308 48.0678C56.2883 47.2246 56.8803 46.5518 57.6069 46.0494C58.3335 45.5471 59.1588 45.1703 60.0917 44.9191C61.0247 44.668 61.9621 44.4706 62.9085 44.3181C63.8548 44.1701 64.7878 44.0535 65.7028 43.9638C66.6177 43.8741 67.4341 43.744 68.1427 43.5646C68.8514 43.3852 69.4165 43.1295 69.8292 42.7887C70.2418 42.4478 70.4347 41.9544 70.4078 41.304C70.4078 40.6223 70.2956 40.0841 70.0759 39.6849C69.8561 39.2857 69.5601 38.9762 69.1878 38.752C68.8155 38.5322 68.3894 38.3842 67.9005 38.3079C67.4116 38.2362 66.8869 38.1958 66.3262 38.1958C65.0838 38.1958 64.106 38.4604 63.3974 38.9942C62.6887 39.5279 62.2716 40.416 62.1549 41.6584H55.8532L55.8577 41.6449ZM70.4167 46.3051C70.1521 46.5428 69.8157 46.7267 69.4165 46.8612C69.0173 46.9958 68.5868 47.1035 68.1293 47.1932C67.6718 47.2829 67.1919 47.3546 66.685 47.4129C66.1827 47.4712 65.6803 47.5475 65.178 47.6327C64.7026 47.7224 64.2406 47.839 63.7786 47.987C63.3211 48.1351 62.9219 48.3369 62.581 48.5881C62.2402 48.8392 61.9666 49.1577 61.7602 49.5434C61.5539 49.9291 61.4508 50.418 61.4508 51.0101C61.4508 51.6021 61.5539 52.0462 61.7602 52.4319C61.9666 52.8176 62.2491 53.1181 62.6035 53.3424C62.9578 53.5622 63.3704 53.7192 63.8459 53.8089C64.3168 53.8986 64.8057 53.9434 65.3125 53.9434C66.5549 53.9434 67.5148 53.7371 68.1965 53.32C68.8783 52.9073 69.3806 52.4095 69.7036 51.8354C70.031 51.2568 70.2284 50.6737 70.3046 50.0816C70.3764 49.4896 70.4167 49.0186 70.4167 48.6598V46.3096V46.3051Z" fill="#034EA2"/>
<path d="M86.7651 34.5858V38.8467H86.8548C87.1508 38.1381 87.55 37.4787 88.0524 36.8732C88.5547 36.2677 89.1333 35.7474 89.7837 35.3213C90.434 34.8908 91.1292 34.5588 91.8693 34.3211C92.6094 34.0834 93.3763 33.9668 94.1792 33.9668C94.5918 33.9668 95.0538 34.043 95.5562 34.1866V40.0443C95.2601 39.986 94.9058 39.9321 94.4887 39.8873C94.076 39.8424 93.6769 39.82 93.2911 39.82C92.1384 39.82 91.1606 40.0129 90.3623 40.3986C89.5639 40.7843 88.918 41.3091 88.4336 41.9729C87.9447 42.6367 87.5994 43.4172 87.3886 44.3052C87.1822 45.1933 87.0791 46.1532 87.0791 47.1892V57.5322H80.7773V34.5858H86.7696H86.7651Z" fill="#034EA2"/>
<path d="M98.7131 41.6449C98.8029 40.1648 99.1706 38.9359 99.821 37.9626C100.471 36.9848 101.301 36.2043 102.306 35.6123C103.311 35.0202 104.441 34.5986 105.701 34.3475C106.957 34.0963 108.222 33.9707 109.496 33.9707C110.648 33.9707 111.819 34.0514 113.003 34.2129C114.187 34.3744 115.268 34.6928 116.241 35.1683C117.219 35.6437 118.018 36.2985 118.637 37.1418C119.26 37.985 119.569 39.1018 119.569 40.4922V52.4319C119.569 53.468 119.628 54.4592 119.749 55.4056C119.865 56.352 120.076 57.0607 120.372 57.5361H113.981C113.864 57.1818 113.766 56.8185 113.694 56.4507C113.618 56.0829 113.568 55.7016 113.537 55.3204C112.532 56.3565 111.348 57.0831 109.985 57.4957C108.621 57.9084 107.231 58.1192 105.813 58.1192C104.719 58.1192 103.696 57.9846 102.75 57.72C101.803 57.4554 100.974 57.0382 100.265 56.4776C99.5564 55.9169 99.0002 55.2038 98.601 54.3471C98.2018 53.4904 98 52.4678 98 51.2837C98 49.983 98.2287 48.911 98.6862 48.0678C99.1437 47.2246 99.7358 46.5518 100.462 46.0494C101.189 45.5471 102.014 45.1703 102.947 44.9191C103.88 44.668 104.818 44.4706 105.764 44.3181C106.71 44.1701 107.643 44.0535 108.558 43.9638C109.473 43.8741 110.29 43.744 110.998 43.5646C111.707 43.3852 112.272 43.1295 112.685 42.7887C113.097 42.4478 113.29 41.9544 113.263 41.304C113.263 40.6223 113.151 40.0841 112.931 39.6849C112.712 39.2857 112.416 38.9762 112.043 38.752C111.671 38.5322 111.245 38.3842 110.756 38.3079C110.267 38.2362 109.742 38.1958 109.182 38.1958C107.939 38.1958 106.961 38.4604 106.253 38.9942C105.544 39.5279 105.127 40.416 105.01 41.6584H98.7087L98.7131 41.6449ZM113.272 46.3051C113.008 46.5428 112.671 46.7267 112.272 46.8612C111.873 46.9958 111.442 47.1035 110.985 47.1932C110.527 47.2829 110.047 47.3546 109.54 47.4129C109.038 47.4712 108.536 47.5475 108.033 47.6327C107.558 47.7224 107.096 47.839 106.634 47.987C106.177 48.1351 105.777 48.3369 105.437 48.5881C105.096 48.8392 104.822 49.1577 104.616 49.5434C104.409 49.9291 104.306 50.418 104.306 51.0101C104.306 51.6021 104.409 52.0462 104.616 52.4319C104.822 52.8176 105.105 53.1181 105.459 53.3424C105.813 53.5622 106.226 53.7192 106.701 53.8089C107.172 53.8986 107.661 53.9434 108.168 53.9434C109.41 53.9434 110.37 53.7371 111.052 53.32C111.734 52.9073 112.236 52.4095 112.559 51.8354C112.886 51.2568 113.084 50.6737 113.16 50.0816C113.232 49.4896 113.272 49.0186 113.272 48.6598V46.3096V46.3051Z" fill="#034EA2"/>
<path d="M132.567 64.3674C131.352 65.1658 129.665 65.565 127.508 65.565C126.858 65.565 126.212 65.5426 125.579 65.4977C124.942 65.4529 124.301 65.4035 123.651 65.3407V60.1469C124.243 60.2052 124.848 60.2635 125.472 60.3263C126.095 60.3846 126.714 60.398 127.338 60.3711C128.167 60.2814 128.782 59.9585 129.181 59.3933C129.58 58.8327 129.782 58.2092 129.782 57.5275C129.782 57.0251 129.692 56.5497 129.517 56.1057L121.484 34.5811H128.185L133.379 50.2928H133.469L138.483 34.5811H145.009L135.424 60.3666C134.743 62.2325 133.796 63.5601 132.585 64.363L132.567 64.3674Z" fill="#034EA2"/>
<path d="M146.635 41.6449C146.725 40.1648 147.093 38.9359 147.743 37.9626C148.393 36.9848 149.223 36.2043 150.228 35.6123C151.232 35.0202 152.363 34.5986 153.623 34.3475C154.879 34.0963 156.144 33.9707 157.418 33.9707C158.57 33.9707 159.741 34.0514 160.925 34.2129C162.109 34.3744 163.19 34.6928 164.163 35.1683C165.141 35.6437 165.939 36.2985 166.558 37.1418C167.182 37.985 167.491 39.1018 167.491 40.4922V52.4319C167.491 53.468 167.55 54.4592 167.671 55.4056C167.787 56.352 167.998 57.0607 168.294 57.5361H161.903C161.786 57.1818 161.687 56.8185 161.616 56.4507C161.539 56.0829 161.49 55.7016 161.459 55.3204C160.454 56.3565 159.27 57.0831 157.906 57.4957C156.543 57.9084 155.152 58.1192 153.735 58.1192C152.641 58.1192 151.618 57.9846 150.672 57.72C149.725 57.4554 148.896 57.0382 148.187 56.4776C147.478 55.9169 146.922 55.2038 146.523 54.3471C146.124 53.4904 145.922 52.4678 145.922 51.2837C145.922 49.983 146.151 48.911 146.608 48.0678C147.066 47.2246 147.658 46.5518 148.384 46.0494C149.111 45.5471 149.936 45.1703 150.869 44.9191C151.802 44.668 152.739 44.4706 153.686 44.3181C154.632 44.1701 155.565 44.0535 156.48 43.9638C157.395 43.8741 158.211 43.744 158.92 43.5646C159.629 43.3852 160.194 43.1295 160.607 42.7887C161.019 42.4478 161.212 41.9544 161.185 41.304C161.185 40.6223 161.073 40.0841 160.853 39.6849C160.633 39.2857 160.337 38.9762 159.965 38.752C159.593 38.5322 159.167 38.3842 158.678 38.3079C158.189 38.2362 157.664 38.1958 157.104 38.1958C155.861 38.1958 154.883 38.4604 154.175 38.9942C153.466 39.5279 153.049 40.416 152.932 41.6584H146.631L146.635 41.6449ZM161.194 46.3051C160.929 46.5428 160.593 46.7267 160.194 46.8612C159.795 46.9958 159.364 47.1035 158.907 47.1932C158.449 47.2829 157.969 47.3546 157.462 47.4129C156.96 47.4712 156.458 47.5475 155.955 47.6327C155.48 47.7224 155.018 47.839 154.556 47.987C154.098 48.1351 153.699 48.3369 153.358 48.5881C153.018 48.8392 152.744 49.1577 152.538 49.5434C152.331 49.9291 152.228 50.418 152.228 51.0101C152.228 51.6021 152.331 52.0462 152.538 52.4319C152.744 52.8176 153.026 53.1181 153.381 53.3424C153.735 53.5622 154.148 53.7192 154.623 53.8089C155.094 53.8986 155.583 53.9434 156.09 53.9434C157.332 53.9434 158.292 53.7371 158.974 53.32C159.656 52.9073 160.158 52.4095 160.481 51.8354C160.808 51.2568 161.006 50.6737 161.082 50.0816C161.154 49.4896 161.194 49.0186 161.194 48.6598V46.3096V46.3051Z" fill="#034EA2"/>
<path d="M177.542 34.5854V37.7788H177.677C178.475 36.4467 179.511 35.4779 180.785 34.8724C182.059 34.2669 183.36 33.9619 184.692 33.9619C186.378 33.9619 187.76 34.1907 188.841 34.6482C189.922 35.1056 190.769 35.7425 191.393 36.5589C192.016 37.3707 192.451 38.3619 192.703 39.5326C192.954 40.7032 193.079 41.995 193.079 43.4168V57.5318H186.778V44.574C186.778 42.6812 186.482 41.2683 185.889 40.3354C185.297 39.4025 184.248 38.936 182.736 38.936C181.019 38.936 179.776 39.4473 179.009 40.4655C178.238 41.4881 177.856 43.1656 177.856 45.5024V57.5318H171.555V34.5854H177.547H177.542Z" fill="#034EA2"/>
<path d="M196.338 41.6449C196.428 40.1648 196.796 38.9359 197.446 37.9626C198.096 36.9848 198.926 36.2043 199.931 35.6123C200.936 35.0202 202.07 34.5986 203.326 34.3475C204.582 34.0963 205.847 33.9707 207.121 33.9707C208.273 33.9707 209.444 34.0514 210.628 34.2129C211.812 34.3744 212.893 34.6928 213.866 35.1683C214.844 35.6437 215.643 36.2985 216.262 37.1418C216.885 37.985 217.194 39.1018 217.194 40.4922V52.4319C217.194 53.468 217.253 54.4592 217.374 55.4056C217.49 56.352 217.701 57.0607 217.997 57.5361H211.606C211.489 57.1818 211.391 56.8185 211.319 56.4507C211.243 56.0829 211.193 55.7016 211.162 55.3204C210.157 56.3565 208.973 57.0831 207.61 57.4957C206.251 57.9084 204.86 58.1192 203.438 58.1192C202.344 58.1192 201.321 57.9846 200.375 57.72C199.428 57.4554 198.599 57.0382 197.89 56.4776C197.181 55.9169 196.625 55.2038 196.226 54.3471C195.827 53.4904 195.625 52.4678 195.625 51.2837C195.625 49.983 195.854 48.911 196.311 48.0678C196.769 47.2246 197.361 46.5518 198.087 46.0494C198.814 45.5471 199.639 45.1703 200.572 44.9191C201.505 44.668 202.443 44.4706 203.389 44.3181C204.335 44.1701 205.268 44.0535 206.183 43.9638C207.098 43.8741 207.915 43.744 208.623 43.5646C209.332 43.3852 209.897 43.1295 210.31 42.7887C210.722 42.4478 210.915 41.9544 210.888 41.304C210.888 40.6223 210.776 40.0841 210.556 39.6849C210.332 39.2857 210.036 38.9762 209.668 38.752C209.296 38.5322 208.87 38.3842 208.381 38.3079C207.892 38.2362 207.367 38.1958 206.807 38.1958C205.564 38.1958 204.586 38.4604 203.878 38.9942C203.169 39.5279 202.752 40.416 202.635 41.6584H196.334L196.338 41.6449ZM210.897 46.3051C210.633 46.5428 210.296 46.7267 209.897 46.8612C209.498 46.9958 209.067 47.1035 208.61 47.1932C208.152 47.2829 207.672 47.3546 207.165 47.4129C206.663 47.4712 206.161 47.5475 205.658 47.6327C205.183 47.7224 204.721 47.839 204.259 47.987C203.802 48.1351 203.402 48.3369 203.062 48.5881C202.721 48.8392 202.447 49.1577 202.241 49.5434C202.034 49.9291 201.931 50.418 201.931 51.0101C201.931 51.6021 202.034 52.0462 202.241 52.4319C202.447 52.8176 202.73 53.1181 203.084 53.3424C203.438 53.5622 203.851 53.7192 204.326 53.8089C204.797 53.8986 205.286 53.9434 205.793 53.9434C207.035 53.9434 207.995 53.7371 208.677 53.32C209.359 52.9073 209.861 52.4095 210.184 51.8354C210.511 51.2568 210.709 50.6737 210.785 50.0816C210.857 49.4896 210.897 49.0186 210.897 48.6598V46.3096V46.3051Z" fill="#034EA2"/>
<path d="M30.0005 67.0586V74.3561H37.6972V67.0586H41.8774V86.0715H37.6972V77.868H30.0005V86.0715H25.8203V67.0586H30.0005Z" fill="#EB2127"/>
<path d="M48.6677 82.7701C49.2373 83.3218 50.0536 83.5954 51.1166 83.5954C51.8791 83.5954 52.5384 83.4025 53.0856 83.0213C53.6373 82.64 53.9737 82.2363 54.0993 81.8102H57.4273C56.8936 83.4608 56.0773 84.6404 54.9784 85.3536C53.8795 86.0622 52.5474 86.4166 50.9821 86.4166C49.9011 86.4166 48.9233 86.2416 48.0532 85.8963C47.1831 85.5509 46.4475 85.0576 45.842 84.4162C45.2365 83.7748 44.77 83.0123 44.4426 82.1242C44.1152 81.2361 43.9492 80.2584 43.9492 79.1954C43.9492 78.1324 44.1197 77.2084 44.4561 76.3203C44.7924 75.4323 45.2724 74.6653 45.8958 74.0149C46.5193 73.369 47.2593 72.8577 48.1205 72.4855C48.9816 72.1132 49.937 71.9248 50.9821 71.9248C52.1527 71.9248 53.1753 72.1491 54.0455 72.6021C54.9156 73.0551 55.6288 73.6651 56.1894 74.4276C56.7501 75.1901 57.1537 76.0602 57.4004 77.038C57.6471 78.0157 57.7368 79.0339 57.665 80.1014H47.7303C47.7841 81.3258 48.0936 82.2139 48.6632 82.7656L48.6677 82.7701ZM52.9421 75.5264C52.4891 75.0286 51.8029 74.7819 50.8789 74.7819C50.2734 74.7819 49.7755 74.8851 49.3763 75.0869C48.9772 75.2932 48.6587 75.5444 48.4165 75.8449C48.1788 76.1454 48.0084 76.4683 47.9097 76.8047C47.811 77.1411 47.7527 77.4461 47.7348 77.7107H53.8885C53.7091 76.7509 53.3951 76.0243 52.9421 75.5264Z" fill="#EB2127"/>
<path d="M59.7587 76.5399C59.8125 75.6518 60.0323 74.9163 60.4225 74.3287C60.8127 73.7411 61.3106 73.2747 61.9116 72.9159C62.5171 72.5615 63.1944 72.3059 63.9479 72.1579C64.7014 72.0054 65.4594 71.9336 66.2264 71.9336C66.9171 71.9336 67.6213 71.9829 68.33 72.0816C69.0386 72.1803 69.689 72.3687 70.2721 72.6557C70.8596 72.9383 71.3396 73.333 71.7118 73.8398C72.0841 74.3466 72.2725 75.0149 72.2725 75.8492V83.0121C72.2725 83.6356 72.3084 84.2276 72.3801 84.7972C72.4519 85.3668 72.5775 85.7929 72.7524 86.0755H68.9175C68.8458 85.8647 68.7875 85.6449 68.7426 85.4252C68.6978 85.2054 68.6664 84.9766 68.6484 84.7479C68.0429 85.3713 67.3343 85.8019 66.5179 86.0531C65.7016 86.2998 64.8674 86.4254 64.0152 86.4254C63.3603 86.4254 62.7459 86.3446 62.1762 86.1876C61.6066 86.0262 61.1132 85.7795 60.6871 85.4431C60.2611 85.1067 59.9291 84.6806 59.6869 84.1648C59.4492 83.649 59.3281 83.039 59.3281 82.3259C59.3281 81.5454 59.4672 80.8996 59.7408 80.3972C60.0144 79.8904 60.3687 79.4867 60.8038 79.1862C61.2388 78.8857 61.7367 78.6569 62.2929 78.5089C62.8535 78.3564 63.4142 78.2398 63.9838 78.1501C64.5534 78.0604 65.1096 77.9887 65.6613 77.9393C66.2129 77.8855 66.7018 77.8048 67.1279 77.7016C67.554 77.594 67.8904 77.4414 68.1416 77.2351C68.3883 77.0333 68.5049 76.7328 68.487 76.3426C68.487 75.9344 68.4197 75.6115 68.2851 75.3693C68.1506 75.1271 67.9756 74.9432 67.7514 74.8086C67.5271 74.6741 67.2715 74.5888 66.9799 74.544C66.6884 74.4991 66.3699 74.4767 66.0335 74.4767C65.289 74.4767 64.7014 74.6382 64.2753 74.9566C63.8492 75.2751 63.6025 75.8088 63.5308 76.5534H59.7497L59.7587 76.5399ZM68.4914 79.3342C68.33 79.4777 68.1326 79.5854 67.8904 79.6661C67.6527 79.7469 67.3926 79.8141 67.119 79.868C66.8454 79.9218 66.5538 79.9666 66.2533 80.0025C65.9528 80.0384 65.6478 80.0832 65.3473 80.1371C65.0647 80.1909 64.7822 80.2627 64.5086 80.3524C64.235 80.4421 63.9928 80.5632 63.7909 80.7112C63.5846 80.8637 63.4231 81.0521 63.2976 81.2853C63.172 81.514 63.1092 81.8101 63.1092 82.1644C63.1092 82.5187 63.172 82.7878 63.2976 83.0166C63.4231 83.2498 63.5891 83.4292 63.8044 83.5638C64.0197 83.6983 64.2664 83.788 64.5489 83.8419C64.8315 83.8957 65.1275 83.9226 65.428 83.9226C66.1726 83.9226 66.7512 83.797 67.1593 83.5503C67.5675 83.3036 67.868 83.0031 68.0653 82.6578C68.2582 82.3124 68.3793 81.9626 68.4242 81.6037C68.469 81.2494 68.4914 80.9624 68.4914 80.7515V79.3387V79.3342Z" fill="#EB2127"/>
<path d="M78.5623 67.0586V86.0715H74.7812V67.0586H78.5623Z" fill="#EB2127"/>
<path d="M89.4257 72.3067V74.8363H86.6584V81.6539C86.6584 82.2953 86.766 82.7214 86.9768 82.9322C87.1876 83.143 87.6182 83.2506 88.2551 83.2506C88.4659 83.2506 88.6722 83.2417 88.8696 83.2237C89.0624 83.2058 89.2508 83.1789 89.4302 83.143V86.0718C89.1118 86.1257 88.7574 86.1615 88.3672 86.1795C87.977 86.1974 87.5958 86.2064 87.2235 86.2064C86.6359 86.2064 86.0842 86.166 85.5595 86.0853C85.0347 86.0046 84.5727 85.8521 84.1735 85.6188C83.7744 85.3901 83.4604 85.0582 83.2272 84.6321C82.9984 84.206 82.8818 83.6453 82.8818 82.9546V74.8319H80.5898V72.3022H82.8818V68.1758H86.6628V72.3022H89.4302L89.4257 72.3067Z" fill="#EB2127"/>
<path d="M95.2308 67.0586V74.2215H95.3116C95.7915 73.4231 96.4015 72.8401 97.1505 72.4767C97.8951 72.1134 98.6217 71.9296 99.3348 71.9296C100.348 71.9296 101.178 72.0686 101.824 72.3422C102.47 72.6158 102.981 72.997 103.354 73.4859C103.726 73.9748 103.986 74.5669 104.139 75.2711C104.291 75.9707 104.363 76.7512 104.363 77.6034V86.0715H100.582V78.2941C100.582 77.1593 100.402 76.3116 100.048 75.751C99.6936 75.1903 99.0612 74.9122 98.1552 74.9122C97.1236 74.9122 96.3791 75.2172 95.9171 75.8317C95.4551 76.4462 95.2264 77.4509 95.2264 78.8547V86.0715H91.4453V67.0586H95.2264H95.2308Z" fill="#EB2127"/>
</g>
<defs>
<clipPath id="clip0_237_24180">
<rect width="218" height="86.4214" fill="white"/>
</clipPath>
</defs>
</svg>
