<svg id="Layer_1" data-name="Layer 1" xmlns="http://www.w3.org/2000/svg" viewBox="0 0 397 397"><defs><style>.cls-1{fill:#fff;stroke:#3fa9f5;stroke-miterlimit:10;stroke-width:4px;}.cls-2{fill:#006def;}</style></defs><rect class="cls-1" x="2" y="2" width="393" height="393" rx="20"/><path class="cls-2" d="M248.77,58.5v80a10,10,0,0,1-10,10h-80a10,10,0,0,0-10,10V166h-.27v72.27a10,10,0,0,1-10,10h-80a10,10,0,0,1-10-10v-80a10,10,0,0,1,10-10h80a10,10,0,0,0,10-10V126h.27V58.5a10,10,0,0,1,10-10h80A10,10,0,0,1,248.77,58.5Z"/><path class="cls-2" d="M350,158.49v80a10,10,0,0,1-10,10H260a10,10,0,0,0-10,10V266h-.27v72.27a10,10,0,0,1-10,10h-80a10,10,0,0,1-10-10v-80a10,10,0,0,1,10-10h80a10,10,0,0,0,10-10V226H250v-67.5a10,10,0,0,1,10-10h80A10,10,0,0,1,350,158.49Z"/></svg>