<svg xmlns="http://www.w3.org/2000/svg" xmlns:xlink="http://www.w3.org/1999/xlink" version="1.1" xml:space="preserve" viewBox="0 0 986.78 599.02">
<desc>Created with Fabric.js 3.5.0</desc>
<defs>
</defs>
<rect x="0" y="0" width="100%" height="100%" fill="rgba(255,255,255,0)"/>
<g transform="matrix(0.9716 0 0 0.9716 500.0078 579.2955)" id="927348">
<path style="stroke: none; stroke-width: 1; stroke-dasharray: none; stroke-linecap: butt; stroke-dashoffset: 0; stroke-linejoin: miter; stroke-miterlimit: 4; is-custom-font: none; font-file-url: none; fill: rgb(0,0,0); fill-rule: nonzero; opacity: 1;" vector-effect="non-scaling-stroke" transform=" translate(-468.2, 10.94)" d="M 35.48 -31.24 Q 36.28 -31.24 36.68 -30.76 Q 37.08 -30.28 37.08 -29.48 L 37.08 -29.48 Q 37.08 -28.88 36.92 -28.36 L 36.92 -28.36 L 28.88 -1.68 Q 28.6 -0.92 28.06 -0.46 Q 27.52 0 26.8 0 L 26.8 0 Q 26.08 0 25.52 -0.46 Q 24.96 -0.92 24.72 -1.64 L 24.72 -1.64 L 18.76 -24.68 L 12.72 -1.68 Q 12.44 -0.92 11.9 -0.46 Q 11.36 0 10.64 0 L 10.64 0 Q 9.92 0 9.36 -0.44 Q 8.8 -0.88 8.56 -1.64 L 8.56 -1.64 L 0.52 -28.36 Q 0.36 -28.88 0.36 -29.44 L 0.36 -29.44 Q 0.36 -30.28 0.82 -30.76 Q 1.28 -31.24 2.08 -31.24 L 2.08 -31.24 Q 2.8 -31.24 3.34 -30.84 Q 3.88 -30.44 4.12 -29.68 L 4.12 -29.68 L 10.68 -6.88 L 16.72 -29.44 Q 16.88 -30.04 17.44 -30.44 Q 18 -30.84 18.72 -30.84 L 18.72 -30.84 Q 19.4 -30.84 19.96 -30.48 Q 20.52 -30.12 20.68 -29.48 L 20.68 -29.48 L 26.8 -6.72 L 33.44 -29.88 Q 33.64 -30.6 34.14 -30.92 Q 34.64 -31.24 35.48 -31.24 L 35.48 -31.24 Z M 64.36 -11.28 Q 64.36 -10.52 63.84 -10.02 Q 63.32 -9.52 62.52 -9.52 L 62.52 -9.52 L 47.32 -9.52 Q 47.76 -6.72 49.86 -5 Q 51.96 -3.28 55 -3.28 L 55 -3.28 Q 56.2 -3.28 57.5 -3.72 Q 58.8 -4.16 59.64 -4.8 L 59.64 -4.8 Q 60.2 -5.24 60.96 -5.24 L 60.96 -5.24 Q 61.72 -5.24 62.16 -4.84 L 62.16 -4.84 Q 62.88 -4.24 62.88 -3.48 L 62.88 -3.48 Q 62.88 -2.76 62.24 -2.28 L 62.24 -2.28 Q 60.88 -1.2 58.86 -0.52 Q 56.84 0.16 55 0.16 L 55 0.16 Q 51.72 0.16 49.12 -1.26 Q 46.52 -2.68 45.06 -5.2 Q 43.6 -7.72 43.6 -10.92 L 43.6 -10.92 Q 43.6 -14.12 44.98 -16.66 Q 46.36 -19.2 48.82 -20.62 Q 51.28 -22.04 54.4 -22.04 L 54.4 -22.04 Q 57.48 -22.04 59.72 -20.68 Q 61.96 -19.32 63.16 -16.88 Q 64.36 -14.44 64.36 -11.28 L 64.36 -11.28 Z M 54.4 -18.6 Q 51.48 -18.6 49.66 -17 Q 47.84 -15.4 47.36 -12.72 L 47.36 -12.72 L 60.68 -12.72 Q 60.32 -15.4 58.68 -17 Q 57.04 -18.6 54.4 -18.6 L 54.4 -18.6 Z M 104.96 -22.04 Q 107.56 -22.04 109.62 -21.2 Q 111.68 -20.36 112.88 -18.88 L 112.88 -18.88 Q 113.4 -18.24 113.4 -17.6 L 113.4 -17.6 Q 113.4 -16.92 112.72 -16.36 L 112.72 -16.36 Q 112.28 -16.04 111.6 -16.04 L 111.6 -16.04 Q 110.56 -16.04 109.72 -16.8 L 109.72 -16.8 Q 108.72 -17.72 107.6 -18.1 Q 106.48 -18.48 104.88 -18.48 L 104.88 -18.48 Q 103.04 -18.48 101.86 -17.86 Q 100.68 -17.24 100.68 -16.12 L 100.68 -16.12 Q 100.68 -15.32 101.08 -14.78 Q 101.48 -14.24 102.6 -13.78 Q 103.72 -13.32 105.84 -12.88 L 105.84 -12.88 Q 110.2 -12 112.02 -10.44 Q 113.84 -8.88 113.84 -6.4 L 113.84 -6.4 Q 113.84 -4.56 112.84 -3.06 Q 111.84 -1.56 109.9 -0.7 Q 107.96 0.16 105.24 0.16 L 105.24 0.16 Q 102.52 0.16 100.12 -0.68 Q 97.72 -1.52 96.36 -2.88 L 96.36 -2.88 Q 95.84 -3.4 95.84 -4.12 L 95.84 -4.12 Q 95.84 -5.08 96.64 -5.68 L 96.64 -5.68 Q 97.4 -6.24 98.04 -6.24 L 98.04 -6.24 Q 98.84 -6.24 99.56 -5.52 L 99.56 -5.52 Q 100.32 -4.68 101.84 -4.06 Q 103.36 -3.44 105.08 -3.44 L 105.08 -3.44 Q 107.36 -3.44 108.62 -4.2 Q 109.88 -4.96 109.88 -6.24 L 109.88 -6.24 Q 109.88 -7.48 108.64 -8.3 Q 107.4 -9.12 104.44 -9.68 L 104.44 -9.68 Q 96.76 -11.16 96.76 -16 L 96.76 -16 Q 96.76 -17.96 97.92 -19.32 Q 99.08 -20.68 100.96 -21.36 Q 102.84 -22.04 104.96 -22.04 L 104.96 -22.04 Z M 145.04 -21.92 Q 145.96 -21.92 146.52 -21.36 Q 147.08 -20.8 147.08 -19.88 L 147.08 -19.88 L 147.08 -2.04 Q 147.08 -1.16 146.52 -0.58 Q 145.96 0 145.04 0 L 145.04 0 Q 144.16 0 143.58 -0.58 Q 143 -1.16 143 -2.04 L 143 -2.04 L 143 -2.48 Q 141.72 -1.2 139.96 -0.5 Q 138.2 0.2 136.2 0.2 L 136.2 0.2 Q 133.44 0.2 131.24 -1 Q 129.04 -2.2 127.8 -4.5 Q 126.56 -6.8 126.56 -10.04 L 126.56 -10.04 L 126.56 -19.88 Q 126.56 -20.76 127.14 -21.34 Q 127.72 -21.92 128.6 -21.92 L 128.6 -21.92 Q 129.48 -21.92 130.06 -21.34 Q 130.64 -20.76 130.64 -19.88 L 130.64 -19.88 L 130.64 -10.04 Q 130.64 -6.8 132.38 -5.14 Q 134.12 -3.48 137 -3.48 L 137 -3.48 Q 138.68 -3.48 140.06 -4.16 Q 141.44 -4.84 142.22 -6 Q 143 -7.16 143 -8.6 L 143 -8.6 L 143 -19.88 Q 143 -20.8 143.58 -21.36 Q 144.16 -21.92 145.04 -21.92 L 145.04 -21.92 Z M 173.28 -22.04 Q 176.36 -22.04 178.9 -20.58 Q 181.44 -19.12 182.88 -16.58 Q 184.32 -14.04 184.32 -10.92 L 184.32 -10.92 Q 184.32 -7.8 182.98 -5.26 Q 181.64 -2.72 179.3 -1.28 Q 176.96 0.16 174.08 0.16 L 174.08 0.16 Q 171.76 0.16 169.76 -0.8 Q 167.76 -1.76 166.36 -3.48 L 166.36 -3.48 L 166.36 7.32 Q 166.36 8.24 165.8 8.8 Q 165.24 9.36 164.32 9.36 L 164.32 9.36 Q 163.44 9.36 162.86 8.8 Q 162.28 8.24 162.28 7.32 L 162.28 7.32 L 162.28 -10.92 Q 162.28 -14.04 163.74 -16.58 Q 165.2 -19.12 167.7 -20.58 Q 170.2 -22.04 173.28 -22.04 L 173.28 -22.04 Z M 173.28 -3.44 Q 175.28 -3.44 176.9 -4.42 Q 178.52 -5.4 179.46 -7.1 Q 180.4 -8.8 180.4 -10.92 L 180.4 -10.92 Q 180.4 -13.04 179.46 -14.76 Q 178.52 -16.48 176.9 -17.46 Q 175.28 -18.44 173.28 -18.44 L 173.28 -18.44 Q 171.28 -18.44 169.66 -17.46 Q 168.04 -16.48 167.12 -14.76 Q 166.2 -13.04 166.2 -10.92 L 166.2 -10.92 Q 166.2 -8.8 167.12 -7.1 Q 168.04 -5.4 169.66 -4.42 Q 171.28 -3.44 173.28 -3.44 L 173.28 -3.44 Z M 209.4 -22.04 Q 212.48 -22.04 215.02 -20.58 Q 217.56 -19.12 219 -16.58 Q 220.44 -14.04 220.44 -10.92 L 220.44 -10.92 Q 220.44 -7.8 219.1 -5.26 Q 217.76 -2.72 215.42 -1.28 Q 213.08 0.16 210.2 0.16 L 210.2 0.16 Q 207.88 0.16 205.88 -0.8 Q 203.88 -1.76 202.48 -3.48 L 202.48 -3.48 L 202.48 7.32 Q 202.48 8.24 201.92 8.8 Q 201.36 9.36 200.44 9.36 L 200.44 9.36 Q 199.56 9.36 198.98 8.8 Q 198.4 8.24 198.4 7.32 L 198.4 7.32 L 198.4 -10.92 Q 198.4 -14.04 199.86 -16.58 Q 201.32 -19.12 203.82 -20.58 Q 206.32 -22.04 209.4 -22.04 L 209.4 -22.04 Z M 209.4 -3.44 Q 211.4 -3.44 213.02 -4.42 Q 214.64 -5.4 215.58 -7.1 Q 216.52 -8.8 216.52 -10.92 L 216.52 -10.92 Q 216.52 -13.04 215.58 -14.76 Q 214.64 -16.48 213.02 -17.46 Q 211.4 -18.44 209.4 -18.44 L 209.4 -18.44 Q 207.4 -18.44 205.78 -17.46 Q 204.16 -16.48 203.24 -14.76 Q 202.32 -13.04 202.32 -10.92 L 202.32 -10.92 Q 202.32 -8.8 203.24 -7.1 Q 204.16 -5.4 205.78 -4.42 Q 207.4 -3.44 209.4 -3.44 L 209.4 -3.44 Z M 244.44 -22.04 Q 247.6 -22.04 250.1 -20.62 Q 252.6 -19.2 254.02 -16.68 Q 255.44 -14.16 255.44 -10.92 L 255.44 -10.92 Q 255.44 -7.72 254.04 -5.2 Q 252.64 -2.68 250.14 -1.26 Q 247.64 0.16 244.44 0.16 L 244.44 0.16 Q 241.24 0.16 238.72 -1.26 Q 236.2 -2.68 234.8 -5.2 Q 233.4 -7.72 233.4 -10.92 L 233.4 -10.92 Q 233.4 -14.16 234.8 -16.68 Q 236.2 -19.2 238.72 -20.62 Q 241.24 -22.04 244.44 -22.04 L 244.44 -22.04 Z M 244.44 -18.44 Q 242.4 -18.44 240.78 -17.48 Q 239.16 -16.52 238.24 -14.8 Q 237.32 -13.08 237.32 -10.92 L 237.32 -10.92 Q 237.32 -8.76 238.24 -7.06 Q 239.16 -5.36 240.78 -4.4 Q 242.4 -3.44 244.44 -3.44 L 244.44 -3.44 Q 246.48 -3.44 248.1 -4.4 Q 249.72 -5.36 250.62 -7.06 Q 251.52 -8.76 251.52 -10.92 L 251.52 -10.92 Q 251.52 -13.08 250.62 -14.8 Q 249.72 -16.52 248.1 -17.48 Q 246.48 -18.44 244.44 -18.44 L 244.44 -18.44 Z M 280.24 -22.12 Q 282.36 -22.12 283.56 -21.48 Q 284.76 -20.84 284.76 -19.88 L 284.76 -19.88 Q 284.76 -19.6 284.72 -19.48 L 284.72 -19.48 Q 284.36 -18.2 283.12 -18.2 L 283.12 -18.2 Q 282.92 -18.2 282.52 -18.28 L 282.52 -18.28 Q 280.92 -18.56 279.92 -18.56 L 279.92 -18.56 Q 277.04 -18.56 275.28 -17.24 Q 273.52 -15.92 273.52 -13.68 L 273.52 -13.68 L 273.52 -2 Q 273.52 -1.04 273.02 -0.52 Q 272.52 0 271.52 0 L 271.52 0 Q 270.56 0 270.04 -0.5 Q 269.52 -1 269.52 -2 L 269.52 -2 L 269.52 -19.88 Q 269.52 -20.84 270.04 -21.36 Q 270.56 -21.88 271.52 -21.88 L 271.52 -21.88 Q 273.52 -21.88 273.52 -19.88 L 273.52 -19.88 L 273.52 -19.12 Q 274.72 -20.52 276.48 -21.32 Q 278.24 -22.12 280.24 -22.12 L 280.24 -22.12 Z M 306.28 -4 Q 307 -4 307.5 -3.44 Q 308 -2.88 308 -2 L 308 -2 Q 308 -1.12 307.34 -0.56 Q 306.68 0 305.64 0 L 305.64 0 L 304.92 0 Q 302.96 0 301.34 -1.02 Q 299.72 -2.04 298.8 -3.8 Q 297.88 -5.56 297.88 -7.76 L 297.88 -7.76 L 297.88 -17.64 L 296.04 -17.64 Q 295.2 -17.64 294.68 -18.12 Q 294.16 -18.6 294.16 -19.32 L 294.16 -19.32 Q 294.16 -20.12 294.68 -20.6 Q 295.2 -21.08 296.04 -21.08 L 296.04 -21.08 L 297.88 -21.08 L 297.88 -26.84 Q 297.88 -27.72 298.44 -28.28 Q 299 -28.84 299.88 -28.84 L 299.88 -28.84 Q 300.76 -28.84 301.32 -28.28 Q 301.88 -27.72 301.88 -26.84 L 301.88 -26.84 L 301.88 -21.08 L 305.28 -21.08 Q 306.12 -21.08 306.64 -20.6 Q 307.16 -20.12 307.16 -19.32 L 307.16 -19.32 Q 307.16 -18.6 306.64 -18.12 Q 306.12 -17.64 305.28 -17.64 L 305.28 -17.64 L 301.88 -17.64 L 301.88 -7.76 Q 301.88 -6.16 302.76 -5.08 Q 303.64 -4 304.92 -4 L 304.92 -4 L 306.28 -4 Z M 350.16 -27.56 Q 347.92 -27.56 346.56 -26.08 Q 345.2 -24.6 345.2 -22.16 L 345.2 -22.16 L 345.2 -21.08 L 349.28 -21.08 Q 350.12 -21.08 350.64 -20.6 Q 351.16 -20.12 351.16 -19.32 L 351.16 -19.32 Q 351.16 -18.6 350.64 -18.12 Q 350.12 -17.64 349.28 -17.64 L 349.28 -17.64 L 345.2 -17.64 L 345.2 -2.04 Q 345.2 -1.12 344.64 -0.56 Q 344.08 0 343.08 0 L 343.08 0 Q 342.28 0 341.7 -0.56 Q 341.12 -1.12 341.12 -2.04 L 341.12 -2.04 L 341.12 -17.64 L 339.4 -17.64 Q 338.56 -17.64 338.04 -18.12 Q 337.52 -18.6 337.52 -19.32 L 337.52 -19.32 Q 337.52 -20.12 338.04 -20.6 Q 338.56 -21.08 339.4 -21.08 L 339.4 -21.08 L 341.12 -21.08 L 341.12 -21.76 Q 341.12 -24.6 342.26 -26.74 Q 343.4 -28.88 345.46 -30.06 Q 347.52 -31.24 350.16 -31.24 L 350.16 -31.24 Q 351.04 -31.24 351.62 -30.72 Q 352.2 -30.2 352.2 -29.4 L 352.2 -29.4 Q 352.2 -28.6 351.62 -28.08 Q 351.04 -27.56 350.16 -27.56 L 350.16 -27.56 Z M 372.52 -22.04 Q 375.68 -22.04 378.18 -20.62 Q 380.68 -19.2 382.1 -16.68 Q 383.52 -14.16 383.52 -10.92 L 383.52 -10.92 Q 383.52 -7.72 382.12 -5.2 Q 380.72 -2.68 378.22 -1.26 Q 375.72 0.16 372.52 0.16 L 372.52 0.16 Q 369.32 0.16 366.8 -1.26 Q 364.28 -2.68 362.88 -5.2 Q 361.48 -7.72 361.48 -10.92 L 361.48 -10.92 Q 361.48 -14.16 362.88 -16.68 Q 364.28 -19.2 366.8 -20.62 Q 369.32 -22.04 372.52 -22.04 L 372.52 -22.04 Z M 372.52 -18.44 Q 370.48 -18.44 368.86 -17.48 Q 367.24 -16.52 366.32 -14.8 Q 365.4 -13.08 365.4 -10.92 L 365.4 -10.92 Q 365.4 -8.76 366.32 -7.06 Q 367.24 -5.36 368.86 -4.4 Q 370.48 -3.44 372.52 -3.44 L 372.52 -3.44 Q 374.56 -3.44 376.18 -4.4 Q 377.8 -5.36 378.7 -7.06 Q 379.6 -8.76 379.6 -10.92 L 379.6 -10.92 Q 379.6 -13.08 378.7 -14.8 Q 377.8 -16.52 376.18 -17.48 Q 374.56 -18.44 372.52 -18.44 L 372.52 -18.44 Z M 408.32 -22.12 Q 410.44 -22.12 411.64 -21.48 Q 412.84 -20.84 412.84 -19.88 L 412.84 -19.88 Q 412.84 -19.6 412.8 -19.48 L 412.8 -19.48 Q 412.44 -18.2 411.2 -18.2 L 411.2 -18.2 Q 411 -18.2 410.6 -18.28 L 410.6 -18.28 Q 409 -18.56 408 -18.56 L 408 -18.56 Q 405.12 -18.56 403.36 -17.24 Q 401.6 -15.92 401.6 -13.68 L 401.6 -13.68 L 401.6 -2 Q 401.6 -1.04 401.1 -0.52 Q 400.6 0 399.6 0 L 399.6 0 Q 398.64 0 398.12 -0.5 Q 397.6 -1 397.6 -2 L 397.6 -2 L 397.6 -19.88 Q 397.6 -20.84 398.12 -21.36 Q 398.64 -21.88 399.6 -21.88 L 399.6 -21.88 Q 401.6 -21.88 401.6 -19.88 L 401.6 -19.88 L 401.6 -19.12 Q 402.8 -20.52 404.56 -21.32 Q 406.32 -22.12 408.32 -22.12 L 408.32 -22.12 Z M 446.8 -31.24 Q 445.88 -31.24 445.32 -30.68 Q 444.76 -30.12 444.76 -29.2 L 444.76 -29.2 L 444.76 -10.96 Q 444.76 -7.84 446.22 -5.3 Q 447.68 -2.76 450.18 -1.3 Q 452.68 0.16 455.76 0.16 L 455.76 0.16 Q 458.84 0.16 461.38 -1.3 Q 463.92 -2.76 465.36 -5.3 Q 466.8 -7.84 466.8 -10.96 L 466.8 -10.96 Q 466.8 -14.08 465.46 -16.62 Q 464.12 -19.16 461.78 -20.6 Q 459.44 -22.04 456.56 -22.04 L 456.56 -22.04 Q 454.24 -22.04 452.24 -21.08 Q 450.24 -20.12 448.84 -18.4 L 448.84 -18.4 L 448.84 -29.2 Q 448.84 -30.12 448.26 -30.68 Q 447.68 -31.24 446.8 -31.24 L 446.8 -31.24 Z M 455.76 -3.44 Q 453.76 -3.44 452.14 -4.42 Q 450.52 -5.4 449.6 -7.12 Q 448.68 -8.84 448.68 -10.96 L 448.68 -10.96 Q 448.68 -13.08 449.6 -14.78 Q 450.52 -16.48 452.14 -17.46 Q 453.76 -18.44 455.76 -18.44 L 455.76 -18.44 Q 457.76 -18.44 459.38 -17.46 Q 461 -16.48 461.94 -14.78 Q 462.88 -13.08 462.88 -10.96 L 462.88 -10.96 Q 462.88 -8.84 461.94 -7.12 Q 461 -5.4 459.38 -4.42 Q 457.76 -3.44 455.76 -3.44 L 455.76 -3.44 Z M 500.52 -11.28 Q 500.52 -10.52 500 -10.02 Q 499.48 -9.52 498.68 -9.52 L 498.68 -9.52 L 483.48 -9.52 Q 483.92 -6.72 486.02 -5 Q 488.12 -3.28 491.16 -3.28 L 491.16 -3.28 Q 492.36 -3.28 493.66 -3.72 Q 494.96 -4.16 495.8 -4.8 L 495.8 -4.8 Q 496.36 -5.24 497.12 -5.24 L 497.12 -5.24 Q 497.88 -5.24 498.32 -4.84 L 498.32 -4.84 Q 499.04 -4.24 499.04 -3.48 L 499.04 -3.48 Q 499.04 -2.76 498.4 -2.28 L 498.4 -2.28 Q 497.04 -1.2 495.02 -0.52 Q 493 0.16 491.16 0.16 L 491.16 0.16 Q 487.88 0.16 485.28 -1.26 Q 482.68 -2.68 481.22 -5.2 Q 479.76 -7.72 479.76 -10.92 L 479.76 -10.92 Q 479.76 -14.12 481.14 -16.66 Q 482.52 -19.2 484.98 -20.62 Q 487.44 -22.04 490.56 -22.04 L 490.56 -22.04 Q 493.64 -22.04 495.88 -20.68 Q 498.12 -19.32 499.32 -16.88 Q 500.52 -14.44 500.52 -11.28 L 500.52 -11.28 Z M 490.56 -18.6 Q 487.64 -18.6 485.82 -17 Q 484 -15.4 483.52 -12.72 L 483.52 -12.72 L 496.84 -12.72 Q 496.48 -15.4 494.84 -17 Q 493.2 -18.6 490.56 -18.6 L 490.56 -18.6 Z M 523.04 -4 Q 523.76 -4 524.26 -3.44 Q 524.76 -2.88 524.76 -2 L 524.76 -2 Q 524.76 -1.12 524.1 -0.56 Q 523.44 0 522.4 0 L 522.4 0 L 521.68 0 Q 519.72 0 518.1 -1.02 Q 516.48 -2.04 515.56 -3.8 Q 514.64 -5.56 514.64 -7.76 L 514.64 -7.76 L 514.64 -17.64 L 512.8 -17.64 Q 511.96 -17.64 511.44 -18.12 Q 510.92 -18.6 510.92 -19.32 L 510.92 -19.32 Q 510.92 -20.12 511.44 -20.6 Q 511.96 -21.08 512.8 -21.08 L 512.8 -21.08 L 514.64 -21.08 L 514.64 -26.84 Q 514.64 -27.72 515.2 -28.28 Q 515.76 -28.84 516.64 -28.84 L 516.64 -28.84 Q 517.52 -28.84 518.08 -28.28 Q 518.64 -27.72 518.64 -26.84 L 518.64 -26.84 L 518.64 -21.08 L 522.04 -21.08 Q 522.88 -21.08 523.4 -20.6 Q 523.92 -20.12 523.92 -19.32 L 523.92 -19.32 Q 523.92 -18.6 523.4 -18.12 Q 522.88 -17.64 522.04 -17.64 L 522.04 -17.64 L 518.64 -17.64 L 518.64 -7.76 Q 518.64 -6.16 519.52 -5.08 Q 520.4 -4 521.68 -4 L 521.68 -4 L 523.04 -4 Z M 547.08 -4 Q 547.8 -4 548.3 -3.44 Q 548.8 -2.88 548.8 -2 L 548.8 -2 Q 548.8 -1.12 548.14 -0.56 Q 547.48 0 546.44 0 L 546.44 0 L 545.72 0 Q 543.76 0 542.14 -1.02 Q 540.52 -2.04 539.6 -3.8 Q 538.68 -5.56 538.68 -7.76 L 538.68 -7.76 L 538.68 -17.64 L 536.84 -17.64 Q 536 -17.64 535.48 -18.12 Q 534.96 -18.6 534.96 -19.32 L 534.96 -19.32 Q 534.96 -20.12 535.48 -20.6 Q 536 -21.08 536.84 -21.08 L 536.84 -21.08 L 538.68 -21.08 L 538.68 -26.84 Q 538.68 -27.72 539.24 -28.28 Q 539.8 -28.84 540.68 -28.84 L 540.68 -28.84 Q 541.56 -28.84 542.12 -28.28 Q 542.68 -27.72 542.68 -26.84 L 542.68 -26.84 L 542.68 -21.08 L 546.08 -21.08 Q 546.92 -21.08 547.44 -20.6 Q 547.96 -20.12 547.96 -19.32 L 547.96 -19.32 Q 547.96 -18.6 547.44 -18.12 Q 546.92 -17.64 546.08 -17.64 L 546.08 -17.64 L 542.68 -17.64 L 542.68 -7.76 Q 542.68 -6.16 543.56 -5.08 Q 544.44 -4 545.72 -4 L 545.72 -4 L 547.08 -4 Z M 581.44 -11.28 Q 581.44 -10.52 580.92 -10.02 Q 580.4 -9.52 579.6 -9.52 L 579.6 -9.52 L 564.4 -9.52 Q 564.84 -6.72 566.94 -5 Q 569.04 -3.28 572.08 -3.28 L 572.08 -3.28 Q 573.28 -3.28 574.58 -3.72 Q 575.88 -4.16 576.72 -4.8 L 576.72 -4.8 Q 577.28 -5.24 578.04 -5.24 L 578.04 -5.24 Q 578.8 -5.24 579.24 -4.84 L 579.24 -4.84 Q 579.96 -4.24 579.96 -3.48 L 579.96 -3.48 Q 579.96 -2.76 579.32 -2.28 L 579.32 -2.28 Q 577.96 -1.2 575.94 -0.52 Q 573.92 0.16 572.08 0.16 L 572.08 0.16 Q 568.8 0.16 566.2 -1.26 Q 563.6 -2.68 562.14 -5.2 Q 560.68 -7.72 560.68 -10.92 L 560.68 -10.92 Q 560.68 -14.12 562.06 -16.66 Q 563.44 -19.2 565.9 -20.62 Q 568.36 -22.04 571.48 -22.04 L 571.48 -22.04 Q 574.56 -22.04 576.8 -20.68 Q 579.04 -19.32 580.24 -16.88 Q 581.44 -14.44 581.44 -11.28 L 581.44 -11.28 Z M 571.48 -18.6 Q 568.56 -18.6 566.74 -17 Q 564.92 -15.4 564.44 -12.72 L 564.44 -12.72 L 577.76 -12.72 Q 577.4 -15.4 575.76 -17 Q 574.12 -18.6 571.48 -18.6 L 571.48 -18.6 Z M 605.36 -22.12 Q 607.48 -22.12 608.68 -21.48 Q 609.88 -20.84 609.88 -19.88 L 609.88 -19.88 Q 609.88 -19.6 609.84 -19.48 L 609.84 -19.48 Q 609.48 -18.2 608.24 -18.2 L 608.24 -18.2 Q 608.04 -18.2 607.64 -18.28 L 607.64 -18.28 Q 606.04 -18.56 605.04 -18.56 L 605.04 -18.56 Q 602.16 -18.56 600.4 -17.24 Q 598.64 -15.92 598.64 -13.68 L 598.64 -13.68 L 598.64 -2 Q 598.64 -1.04 598.14 -0.52 Q 597.64 0 596.64 0 L 596.64 0 Q 595.68 0 595.16 -0.5 Q 594.64 -1 594.64 -2 L 594.64 -2 L 594.64 -19.88 Q 594.64 -20.84 595.16 -21.36 Q 595.68 -21.88 596.64 -21.88 L 596.64 -21.88 Q 598.64 -21.88 598.64 -19.88 L 598.64 -19.88 L 598.64 -19.12 Q 599.84 -20.52 601.6 -21.32 Q 603.36 -22.12 605.36 -22.12 L 605.36 -22.12 Z M 652.68 -22.08 Q 655.44 -22.08 657.64 -20.88 Q 659.84 -19.68 661.08 -17.38 Q 662.32 -15.08 662.32 -11.84 L 662.32 -11.84 L 662.32 -2 Q 662.32 -1.12 661.74 -0.54 Q 661.16 0.04 660.28 0.04 L 660.28 0.04 Q 659.4 0.04 658.82 -0.54 Q 658.24 -1.12 658.24 -2 L 658.24 -2 L 658.24 -11.84 Q 658.24 -15.08 656.5 -16.74 Q 654.76 -18.4 651.88 -18.4 L 651.88 -18.4 Q 650.2 -18.4 648.82 -17.72 Q 647.44 -17.04 646.66 -15.88 Q 645.88 -14.72 645.88 -13.28 L 645.88 -13.28 L 645.88 -2 Q 645.88 -1.12 645.32 -0.54 Q 644.76 0.04 643.84 0.04 L 643.84 0.04 Q 642.96 0.04 642.38 -0.54 Q 641.8 -1.12 641.8 -2 L 641.8 -2 L 641.8 -29.2 Q 641.8 -30.12 642.38 -30.68 Q 642.96 -31.24 643.84 -31.24 L 643.84 -31.24 Q 644.76 -31.24 645.32 -30.68 Q 645.88 -30.12 645.88 -29.2 L 645.88 -29.2 L 645.88 -19.4 Q 647.16 -20.68 648.92 -21.38 Q 650.68 -22.08 652.68 -22.08 L 652.68 -22.08 Z M 696.76 -11.28 Q 696.76 -10.52 696.24 -10.02 Q 695.72 -9.52 694.92 -9.52 L 694.92 -9.52 L 679.72 -9.52 Q 680.16 -6.72 682.26 -5 Q 684.36 -3.28 687.4 -3.28 L 687.4 -3.28 Q 688.6 -3.28 689.9 -3.72 Q 691.2 -4.16 692.04 -4.8 L 692.04 -4.8 Q 692.6 -5.24 693.36 -5.24 L 693.36 -5.24 Q 694.12 -5.24 694.56 -4.84 L 694.56 -4.84 Q 695.28 -4.24 695.28 -3.48 L 695.28 -3.48 Q 695.28 -2.76 694.64 -2.28 L 694.64 -2.28 Q 693.28 -1.2 691.26 -0.52 Q 689.24 0.16 687.4 0.16 L 687.4 0.16 Q 684.12 0.16 681.52 -1.26 Q 678.92 -2.68 677.46 -5.2 Q 676 -7.72 676 -10.92 L 676 -10.92 Q 676 -14.12 677.38 -16.66 Q 678.76 -19.2 681.22 -20.62 Q 683.68 -22.04 686.8 -22.04 L 686.8 -22.04 Q 689.88 -22.04 692.12 -20.68 Q 694.36 -19.32 695.56 -16.88 Q 696.76 -14.44 696.76 -11.28 L 696.76 -11.28 Z M 686.8 -18.6 Q 683.88 -18.6 682.06 -17 Q 680.24 -15.4 679.76 -12.72 L 679.76 -12.72 L 693.08 -12.72 Q 692.72 -15.4 691.08 -17 Q 689.44 -18.6 686.8 -18.6 L 686.8 -18.6 Z M 719.08 -22.04 Q 722.16 -22.04 724.66 -20.58 Q 727.16 -19.12 728.62 -16.58 Q 730.08 -14.04 730.08 -10.92 L 730.08 -10.92 L 730.08 -2 Q 730.08 -1.12 729.5 -0.54 Q 728.92 0.04 728.04 0.04 L 728.04 0.04 Q 727.16 0.04 726.58 -0.54 Q 726 -1.12 726 -2 L 726 -2 L 726 -3.48 Q 724.6 -1.76 722.6 -0.8 Q 720.6 0.16 718.28 0.16 L 718.28 0.16 Q 715.4 0.16 713.06 -1.28 Q 710.72 -2.72 709.38 -5.26 Q 708.04 -7.8 708.04 -10.92 L 708.04 -10.92 Q 708.04 -14.04 709.48 -16.58 Q 710.92 -19.12 713.46 -20.58 Q 716 -22.04 719.08 -22.04 L 719.08 -22.04 Z M 719.08 -3.44 Q 721.08 -3.44 722.7 -4.42 Q 724.32 -5.4 725.24 -7.1 Q 726.16 -8.8 726.16 -10.92 L 726.16 -10.92 Q 726.16 -13.04 725.24 -14.76 Q 724.32 -16.48 722.7 -17.46 Q 721.08 -18.44 719.08 -18.44 L 719.08 -18.44 Q 717.08 -18.44 715.46 -17.46 Q 713.84 -16.48 712.9 -14.76 Q 711.96 -13.04 711.96 -10.92 L 711.96 -10.92 Q 711.96 -8.8 712.9 -7.1 Q 713.84 -5.4 715.46 -4.42 Q 717.08 -3.44 719.08 -3.44 L 719.08 -3.44 Z M 743.36 -29.24 Q 743.36 -30.12 743.92 -30.68 Q 744.48 -31.24 745.36 -31.24 L 745.36 -31.24 Q 746.24 -31.24 746.8 -30.68 Q 747.36 -30.12 747.36 -29.24 L 747.36 -29.24 L 747.36 -7.4 Q 747.36 -5.92 747.92 -4.96 Q 748.48 -4 749.36 -4 L 749.36 -4 L 750.36 -4 Q 751.16 -4 751.66 -3.44 Q 752.16 -2.88 752.16 -2 L 752.16 -2 Q 752.16 -1.12 751.4 -0.56 Q 750.64 0 749.44 0 L 749.44 0 L 749.36 0 Q 747.64 0 746.26 -0.94 Q 744.88 -1.88 744.12 -3.58 Q 743.36 -5.28 743.36 -7.4 L 743.36 -7.4 L 743.36 -29.24 Z M 773.48 -4 Q 774.2 -4 774.7 -3.44 Q 775.2 -2.88 775.2 -2 L 775.2 -2 Q 775.2 -1.12 774.54 -0.56 Q 773.88 0 772.84 0 L 772.84 0 L 772.12 0 Q 770.16 0 768.54 -1.02 Q 766.92 -2.04 766 -3.8 Q 765.08 -5.56 765.08 -7.76 L 765.08 -7.76 L 765.08 -17.64 L 763.24 -17.64 Q 762.4 -17.64 761.88 -18.12 Q 761.36 -18.6 761.36 -19.32 L 761.36 -19.32 Q 761.36 -20.12 761.88 -20.6 Q 762.4 -21.08 763.24 -21.08 L 763.24 -21.08 L 765.08 -21.08 L 765.08 -26.84 Q 765.08 -27.72 765.64 -28.28 Q 766.2 -28.84 767.08 -28.84 L 767.08 -28.84 Q 767.96 -28.84 768.52 -28.28 Q 769.08 -27.72 769.08 -26.84 L 769.08 -26.84 L 769.08 -21.08 L 772.48 -21.08 Q 773.32 -21.08 773.84 -20.6 Q 774.36 -20.12 774.36 -19.32 L 774.36 -19.32 Q 774.36 -18.6 773.84 -18.12 Q 773.32 -17.64 772.48 -17.64 L 772.48 -17.64 L 769.08 -17.64 L 769.08 -7.76 Q 769.08 -6.16 769.96 -5.08 Q 770.84 -4 772.12 -4 L 772.12 -4 L 773.48 -4 Z M 799.08 -22.08 Q 801.84 -22.08 804.04 -20.88 Q 806.24 -19.68 807.48 -17.38 Q 808.72 -15.08 808.72 -11.84 L 808.72 -11.84 L 808.72 -2 Q 808.72 -1.12 808.14 -0.54 Q 807.56 0.04 806.68 0.04 L 806.68 0.04 Q 805.8 0.04 805.22 -0.54 Q 804.64 -1.12 804.64 -2 L 804.64 -2 L 804.64 -11.84 Q 804.64 -15.08 802.9 -16.74 Q 801.16 -18.4 798.28 -18.4 L 798.28 -18.4 Q 796.6 -18.4 795.22 -17.72 Q 793.84 -17.04 793.06 -15.88 Q 792.28 -14.72 792.28 -13.28 L 792.28 -13.28 L 792.28 -2 Q 792.28 -1.12 791.72 -0.54 Q 791.16 0.04 790.24 0.04 L 790.24 0.04 Q 789.36 0.04 788.78 -0.54 Q 788.2 -1.12 788.2 -2 L 788.2 -2 L 788.2 -29.2 Q 788.2 -30.12 788.78 -30.68 Q 789.36 -31.24 790.24 -31.24 L 790.24 -31.24 Q 791.16 -31.24 791.72 -30.68 Q 792.28 -30.12 792.28 -29.2 L 792.28 -29.2 L 792.28 -19.4 Q 793.56 -20.68 795.32 -21.38 Q 797.08 -22.08 799.08 -22.08 L 799.08 -22.08 Z M 833.24 -22.04 Q 837.96 -22.04 841.08 -18.44 L 841.08 -18.44 Q 841.48 -18 841.48 -17.4 L 841.48 -17.4 Q 841.48 -16.52 840.6 -15.92 L 840.6 -15.92 Q 840.2 -15.64 839.68 -15.64 L 839.68 -15.64 Q 838.76 -15.64 838.12 -16.36 L 838.12 -16.36 Q 837.12 -17.44 835.94 -17.94 Q 834.76 -18.44 833.24 -18.44 L 833.24 -18.44 Q 830.16 -18.44 828.24 -16.38 Q 826.32 -14.32 826.32 -10.92 L 826.32 -10.92 Q 826.32 -8.76 827.22 -7.06 Q 828.12 -5.36 829.74 -4.4 Q 831.36 -3.44 833.44 -3.44 L 833.44 -3.44 Q 836.16 -3.44 837.84 -4.84 L 837.84 -4.84 Q 838.6 -5.4 839.32 -5.4 L 839.32 -5.4 Q 839.88 -5.4 840.36 -5.04 L 840.36 -5.04 Q 841.12 -4.4 841.12 -3.6 L 841.12 -3.6 Q 841.12 -3 840.64 -2.52 L 840.64 -2.52 Q 837.76 0.16 833.44 0.16 L 833.44 0.16 Q 830.28 0.16 827.76 -1.28 Q 825.24 -2.72 823.82 -5.26 Q 822.4 -7.8 822.4 -10.92 L 822.4 -10.92 Q 822.4 -14.12 823.78 -16.66 Q 825.16 -19.2 827.64 -20.62 Q 830.12 -22.04 833.24 -22.04 L 833.24 -22.04 Z M 865.48 -22.04 Q 868.56 -22.04 871.06 -20.58 Q 873.56 -19.12 875.02 -16.58 Q 876.48 -14.04 876.48 -10.92 L 876.48 -10.92 L 876.48 -2 Q 876.48 -1.12 875.9 -0.54 Q 875.32 0.04 874.44 0.04 L 874.44 0.04 Q 873.56 0.04 872.98 -0.54 Q 872.4 -1.12 872.4 -2 L 872.4 -2 L 872.4 -3.48 Q 871 -1.76 869 -0.8 Q 867 0.16 864.68 0.16 L 864.68 0.16 Q 861.8 0.16 859.46 -1.28 Q 857.12 -2.72 855.78 -5.26 Q 854.44 -7.8 854.44 -10.92 L 854.44 -10.92 Q 854.44 -14.04 855.88 -16.58 Q 857.32 -19.12 859.86 -20.58 Q 862.4 -22.04 865.48 -22.04 L 865.48 -22.04 Z M 865.48 -3.44 Q 867.48 -3.44 869.1 -4.42 Q 870.72 -5.4 871.64 -7.1 Q 872.56 -8.8 872.56 -10.92 L 872.56 -10.92 Q 872.56 -13.04 871.64 -14.76 Q 870.72 -16.48 869.1 -17.46 Q 867.48 -18.44 865.48 -18.44 L 865.48 -18.44 Q 863.48 -18.44 861.86 -17.46 Q 860.24 -16.48 859.3 -14.76 Q 858.36 -13.04 858.36 -10.92 L 858.36 -10.92 Q 858.36 -8.8 859.3 -7.1 Q 860.24 -5.4 861.86 -4.42 Q 863.48 -3.44 865.48 -3.44 L 865.48 -3.44 Z M 901.28 -22.12 Q 903.4 -22.12 904.6 -21.48 Q 905.8 -20.84 905.8 -19.88 L 905.8 -19.88 Q 905.8 -19.6 905.76 -19.48 L 905.76 -19.48 Q 905.4 -18.2 904.16 -18.2 L 904.16 -18.2 Q 903.96 -18.2 903.56 -18.28 L 903.56 -18.28 Q 901.96 -18.56 900.96 -18.56 L 900.96 -18.56 Q 898.08 -18.56 896.32 -17.24 Q 894.56 -15.92 894.56 -13.68 L 894.56 -13.68 L 894.56 -2 Q 894.56 -1.04 894.06 -0.52 Q 893.56 0 892.56 0 L 892.56 0 Q 891.6 0 891.08 -0.5 Q 890.56 -1 890.56 -2 L 890.56 -2 L 890.56 -19.88 Q 890.56 -20.84 891.08 -21.36 Q 891.6 -21.88 892.56 -21.88 L 892.56 -21.88 Q 894.56 -21.88 894.56 -19.88 L 894.56 -19.88 L 894.56 -19.12 Q 895.76 -20.52 897.52 -21.32 Q 899.28 -22.12 901.28 -22.12 L 901.28 -22.12 Z M 936.04 -11.28 Q 936.04 -10.52 935.52 -10.02 Q 935 -9.52 934.2 -9.52 L 934.2 -9.52 L 919 -9.52 Q 919.44 -6.72 921.54 -5 Q 923.64 -3.28 926.68 -3.28 L 926.68 -3.28 Q 927.88 -3.28 929.18 -3.72 Q 930.48 -4.16 931.32 -4.8 L 931.32 -4.8 Q 931.88 -5.24 932.64 -5.24 L 932.64 -5.24 Q 933.4 -5.24 933.84 -4.84 L 933.84 -4.84 Q 934.56 -4.24 934.56 -3.48 L 934.56 -3.48 Q 934.56 -2.76 933.92 -2.28 L 933.92 -2.28 Q 932.56 -1.2 930.54 -0.52 Q 928.52 0.16 926.68 0.16 L 926.68 0.16 Q 923.4 0.16 920.8 -1.26 Q 918.2 -2.68 916.74 -5.2 Q 915.28 -7.72 915.28 -10.92 L 915.28 -10.92 Q 915.28 -14.12 916.66 -16.66 Q 918.04 -19.2 920.5 -20.62 Q 922.96 -22.04 926.08 -22.04 L 926.08 -22.04 Q 929.16 -22.04 931.4 -20.68 Q 933.64 -19.32 934.84 -16.88 Q 936.04 -14.44 936.04 -11.28 L 936.04 -11.28 Z M 926.08 -18.6 Q 923.16 -18.6 921.34 -17 Q 919.52 -15.4 919.04 -12.72 L 919.04 -12.72 L 932.36 -12.72 Q 932 -15.4 930.36 -17 Q 928.72 -18.6 926.08 -18.6 L 926.08 -18.6 Z" stroke-linecap="round"/>
</g>
<g transform="matrix(6.0753 0 0 6.074 498.8139 443.6935)" id="657209">
<path style="stroke: none; stroke-width: 1; stroke-dasharray: none; stroke-linecap: butt; stroke-dashoffset: 0; stroke-linejoin: miter; stroke-miterlimit: 4; is-custom-font: none; font-file-url: none; fill: rgb(2,20,234); fill-rule: nonzero; opacity: 1;" vector-effect="non-scaling-stroke" transform=" translate(-83.92, 15.54)" d="M 14.48 -22.08 Q 17.24 -22.08 19.44 -20.88 Q 21.64 -19.68 22.88 -17.38 Q 24.12 -15.08 24.12 -11.84 L 24.12 -11.84 L 24.12 -2 Q 24.12 -1.12 23.54 -0.54 Q 22.96 0.04 22.08 0.04 L 22.08 0.04 Q 21.2 0.04 20.62 -0.54 Q 20.04 -1.12 20.04 -2 L 20.04 -2 L 20.04 -11.84 Q 20.04 -15.08 18.3 -16.74 Q 16.56 -18.4 13.68 -18.4 L 13.68 -18.4 Q 12 -18.4 10.62 -17.72 Q 9.24 -17.04 8.46 -15.88 Q 7.68 -14.72 7.68 -13.28 L 7.68 -13.28 L 7.68 -2 Q 7.68 -1.12 7.12 -0.54 Q 6.56 0.04 5.64 0.04 L 5.64 0.04 Q 4.76 0.04 4.18 -0.54 Q 3.6 -1.12 3.6 -2 L 3.6 -2 L 3.6 -29.2 Q 3.6 -30.12 4.18 -30.68 Q 4.76 -31.24 5.64 -31.24 L 5.64 -31.24 Q 6.56 -31.24 7.12 -30.68 Q 7.68 -30.12 7.68 -29.2 L 7.68 -29.2 L 7.68 -19.4 Q 8.96 -20.68 10.72 -21.38 Q 12.48 -22.08 14.48 -22.08 L 14.48 -22.08 Z M 50.56 -11.28 Q 50.56 -10.52 50.04 -10.02 Q 49.52 -9.52 48.72 -9.52 L 48.72 -9.52 L 33.52 -9.52 Q 33.96 -6.72 36.06 -5 Q 38.16 -3.28 41.2 -3.28 L 41.2 -3.28 Q 42.4 -3.28 43.7 -3.72 Q 45 -4.16 45.84 -4.8 L 45.84 -4.8 Q 46.4 -5.24 47.16 -5.24 L 47.16 -5.24 Q 47.92 -5.24 48.36 -4.84 L 48.36 -4.84 Q 49.08 -4.24 49.08 -3.48 L 49.08 -3.48 Q 49.08 -2.76 48.44 -2.28 L 48.44 -2.28 Q 47.08 -1.2 45.06 -0.52 Q 43.04 0.16 41.2 0.16 L 41.2 0.16 Q 37.92 0.16 35.32 -1.26 Q 32.72 -2.68 31.26 -5.2 Q 29.8 -7.72 29.8 -10.92 L 29.8 -10.92 Q 29.8 -14.12 31.18 -16.66 Q 32.56 -19.2 35.02 -20.62 Q 37.48 -22.04 40.6 -22.04 L 40.6 -22.04 Q 43.68 -22.04 45.92 -20.68 Q 48.16 -19.32 49.36 -16.88 Q 50.56 -14.44 50.56 -11.28 L 50.56 -11.28 Z M 40.6 -18.6 Q 37.68 -18.6 35.86 -17 Q 34.04 -15.4 33.56 -12.72 L 33.56 -12.72 L 46.88 -12.72 Q 46.52 -15.4 44.88 -17 Q 43.24 -18.6 40.6 -18.6 L 40.6 -18.6 Z M 64.88 -22.04 Q 67.96 -22.04 70.46 -20.58 Q 72.96 -19.12 74.42 -16.58 Q 75.88 -14.04 75.88 -10.92 L 75.88 -10.92 L 75.88 -2 Q 75.88 -1.12 75.3 -0.54 Q 74.72 0.04 73.84 0.04 L 73.84 0.04 Q 72.96 0.04 72.38 -0.54 Q 71.8 -1.12 71.8 -2 L 71.8 -2 L 71.8 -3.48 Q 70.4 -1.76 68.4 -0.8 Q 66.4 0.16 64.08 0.16 L 64.08 0.16 Q 61.2 0.16 58.86 -1.28 Q 56.52 -2.72 55.18 -5.26 Q 53.84 -7.8 53.84 -10.92 L 53.84 -10.92 Q 53.84 -14.04 55.28 -16.58 Q 56.72 -19.12 59.26 -20.58 Q 61.8 -22.04 64.88 -22.04 L 64.88 -22.04 Z M 64.88 -3.44 Q 66.88 -3.44 68.5 -4.42 Q 70.12 -5.4 71.04 -7.1 Q 71.96 -8.8 71.96 -10.92 L 71.96 -10.92 Q 71.96 -13.04 71.04 -14.76 Q 70.12 -16.48 68.5 -17.46 Q 66.88 -18.44 64.88 -18.44 L 64.88 -18.44 Q 62.88 -18.44 61.26 -17.46 Q 59.64 -16.48 58.7 -14.76 Q 57.76 -13.04 57.76 -10.92 L 57.76 -10.92 Q 57.76 -8.8 58.7 -7.1 Q 59.64 -5.4 61.26 -4.42 Q 62.88 -3.44 64.88 -3.44 L 64.88 -3.44 Z M 81.16 -29.24 Q 81.16 -30.12 81.72 -30.68 Q 82.28 -31.24 83.16 -31.24 L 83.16 -31.24 Q 84.04 -31.24 84.6 -30.68 Q 85.16 -30.12 85.16 -29.24 L 85.16 -29.24 L 85.16 -7.4 Q 85.16 -5.92 85.72 -4.96 Q 86.28 -4 87.16 -4 L 87.16 -4 L 88.16 -4 Q 88.96 -4 89.46 -3.44 Q 89.96 -2.88 89.96 -2 L 89.96 -2 Q 89.96 -1.12 89.2 -0.56 Q 88.44 0 87.24 0 L 87.24 0 L 87.16 0 Q 85.44 0 84.06 -0.94 Q 82.68 -1.88 81.92 -3.58 Q 81.16 -5.28 81.16 -7.4 L 81.16 -7.4 L 81.16 -29.24 Z M 96 -31.24 Q 95.08 -31.24 94.52 -30.68 Q 93.96 -30.12 93.96 -29.2 L 93.96 -29.2 L 93.96 -10.96 Q 93.96 -7.84 95.42 -5.3 Q 96.88 -2.76 99.38 -1.3 Q 101.88 0.16 104.96 0.16 L 104.96 0.16 Q 108.04 0.16 110.58 -1.3 Q 113.12 -2.76 114.56 -5.3 Q 116 -7.84 116 -10.96 L 116 -10.96 Q 116 -14.08 114.66 -16.62 Q 113.32 -19.16 110.98 -20.6 Q 108.64 -22.04 105.76 -22.04 L 105.76 -22.04 Q 103.44 -22.04 101.44 -21.08 Q 99.44 -20.12 98.04 -18.4 L 98.04 -18.4 L 98.04 -29.2 Q 98.04 -30.12 97.46 -30.68 Q 96.88 -31.24 96 -31.24 L 96 -31.24 Z M 104.96 -3.44 Q 102.96 -3.44 101.34 -4.42 Q 99.72 -5.4 98.8 -7.12 Q 97.88 -8.84 97.88 -10.96 L 97.88 -10.96 Q 97.88 -13.08 98.8 -14.78 Q 99.72 -16.48 101.34 -17.46 Q 102.96 -18.44 104.96 -18.44 L 104.96 -18.44 Q 106.96 -18.44 108.58 -17.46 Q 110.2 -16.48 111.14 -14.78 Q 112.08 -13.08 112.08 -10.96 L 112.08 -10.96 Q 112.08 -8.84 111.14 -7.12 Q 110.2 -5.4 108.58 -4.42 Q 106.96 -3.44 104.96 -3.44 L 104.96 -3.44 Z M 132 -22.04 Q 135.16 -22.04 137.66 -20.62 Q 140.16 -19.2 141.58 -16.68 Q 143 -14.16 143 -10.92 L 143 -10.92 Q 143 -7.72 141.6 -5.2 Q 140.2 -2.68 137.7 -1.26 Q 135.2 0.16 132 0.16 L 132 0.16 Q 128.8 0.16 126.28 -1.26 Q 123.76 -2.68 122.36 -5.2 Q 120.96 -7.72 120.96 -10.92 L 120.96 -10.92 Q 120.96 -14.16 122.36 -16.68 Q 123.76 -19.2 126.28 -20.62 Q 128.8 -22.04 132 -22.04 L 132 -22.04 Z M 132 -18.44 Q 129.96 -18.44 128.34 -17.48 Q 126.72 -16.52 125.8 -14.8 Q 124.88 -13.08 124.88 -10.92 L 124.88 -10.92 Q 124.88 -8.76 125.8 -7.06 Q 126.72 -5.36 128.34 -4.4 Q 129.96 -3.44 132 -3.44 L 132 -3.44 Q 134.04 -3.44 135.66 -4.4 Q 137.28 -5.36 138.18 -7.06 Q 139.08 -8.76 139.08 -10.92 L 139.08 -10.92 Q 139.08 -13.08 138.18 -14.8 Q 137.28 -16.52 135.66 -17.48 Q 134.04 -18.44 132 -18.44 L 132 -18.44 Z M 163.68 -3.08 Q 164.24 -2.48 164.24 -1.68 L 164.24 -1.68 Q 164.24 -0.96 163.74 -0.48 Q 163.24 0 162.44 0 L 162.44 0 Q 161.48 0 161 -0.64 L 161 -0.64 L 154.64 -8.24 L 148.6 -0.64 Q 148 0 147.16 0 L 147.16 0 Q 146.36 0 145.9 -0.48 Q 145.44 -0.96 145.44 -1.68 L 145.44 -1.68 Q 145.44 -2.48 146 -3.16 L 146 -3.16 L 152.2 -10.92 L 145.6 -18.72 Q 145 -19.44 145 -20.24 L 145 -20.24 Q 145 -20.92 145.46 -21.4 Q 145.92 -21.88 146.76 -21.88 L 146.76 -21.88 Q 147.72 -21.88 148.28 -21.2 L 148.28 -21.2 L 154.84 -13.36 L 160.72 -21.2 Q 161.24 -21.88 162.2 -21.88 L 162.2 -21.88 Q 163 -21.88 163.46 -21.38 Q 163.92 -20.88 163.92 -20.16 L 163.92 -20.16 Q 163.92 -19.28 163.36 -18.56 L 163.36 -18.56 L 157.32 -10.68 L 163.68 -3.08 Z" stroke-linecap="round"/>
</g>
<g transform="matrix(1.5165 0 0 1.5171 809.6794 374.5711)" id="974987">
<path style="stroke: none; stroke-width: 1; stroke-dasharray: none; stroke-linecap: butt; stroke-dashoffset: 0; stroke-linejoin: miter; stroke-miterlimit: 4; is-custom-font: none; font-file-url: none; fill: rgb(0,0,0); fill-rule: nonzero; opacity: 1;" vector-effect="non-scaling-stroke" transform=" translate(-41.34, 14)" d="M 2.8 0 L 2.8 -28 L 10.72 -28 L 10.72 0 L 2.8 0 Z M 36.44 -28 L 44.2 -28 L 44.2 0 L 37.68 0 L 25.32 -14.92 L 25.32 0 L 17.56 0 L 17.56 -28 L 24.08 -28 L 36.44 -13.08 L 36.44 -28 Z M 51 0 L 51 -28 L 64.24 -28 Q 68.84 -28 72.4 -26.28 Q 75.96 -24.56 77.92 -21.4 Q 79.88 -18.24 79.88 -14 L 79.88 -14 Q 79.88 -9.76 77.92 -6.6 Q 75.96 -3.44 72.4 -1.72 Q 68.84 0 64.24 0 L 64.24 0 L 51 0 Z M 58.92 -6.32 L 63.92 -6.32 Q 67.52 -6.32 69.7 -8.36 Q 71.88 -10.4 71.88 -14 L 71.88 -14 Q 71.88 -17.6 69.7 -19.64 Q 67.52 -21.68 63.92 -21.68 L 63.92 -21.68 L 58.92 -21.68 L 58.92 -6.32 Z" stroke-linecap="round"/>
</g>
<g transform="matrix(1.0175 0 0 1.0175 928.3819 375.2604)" id="152370">
<path style="stroke: none; stroke-width: 1; stroke-dasharray: none; stroke-linecap: butt; stroke-dashoffset: 0; stroke-linejoin: miter; stroke-miterlimit: 4; is-custom-font: none; font-file-url: none; fill: rgb(255,121,0); fill-rule: nonzero; opacity: 1;" vector-effect="non-scaling-stroke" transform=" translate(-47.5005, -47.499)" d="M 77.157 29.962 l -8.131 -0.06 c -2.196 0 -3.982 -1.871 -3.982 -4.172 l -0.006 -7.888 c 0 -5.477 -4.541 -9.933 -10.122 -9.933 H 40.084 c -5.581 0 -10.123 4.456 -10.123 9.933 l 0.053 22.785 c 0 5.043 3.853 9.219 8.82 9.848 H 55.47 c 1.831 0.205 3.301 1.545 3.617 3.263 v 23.419 c 0 2.195 -1.872 3.981 -4.172 3.981 H 40.084 c -2.3 0 -4.172 -1.786 -4.172 -3.981 v -9.306 c -0.549 -4.699 -4.453 -8.411 -9.297 -8.765 h -8.772 c -2.196 0 -3.982 -1.871 -3.982 -4.172 v -14.83 c 0 -2.301 1.786 -4.172 3.982 -4.172 h 6.168 v -5.951 h -6.168 c -5.478 0 -9.933 4.541 -9.933 10.123 v 14.83 c 0 5.582 4.455 10.123 9.933 10.123 h 8.51 c 1.825 0.207 3.29 1.542 3.608 3.252 v 8.867 c 0 5.477 4.542 9.933 10.123 9.933 h 14.831 c 5.581 0 10.122 -4.456 10.122 -9.933 V 60.596 h 0.067 l -0.067 -7.294 c -0.544 -4.709 -4.457 -8.43 -9.313 -8.777 H 39.282 c -1.892 -0.377 -3.316 -1.98 -3.316 -3.896 l -0.053 -22.785 c 0 -2.195 1.872 -3.981 4.172 -3.981 h 14.831 c 2.3 0 4.172 1.786 4.172 3.981 l 0.005 7.888 c 0 5.581 4.457 10.123 9.934 10.123 l 8.131 0.06 c 2.195 0 3.982 1.871 3.982 4.172 v 14.83 c 0 2.301 -1.787 4.172 -3.982 4.172 h -6.168 v 5.951 h 6.168 c 5.477 0 9.933 -4.541 9.933 -10.123 v -14.83 C 87.089 34.503 82.633 29.962 77.157 29.962 z" stroke-linecap="round"/>
</g>
</svg>