<svg width="470" height="85" viewBox="0 0 470 85" fill="none" xmlns="http://www.w3.org/2000/svg">
<g clip-path="url(#clip0_6_40)">
<path d="M140.812 65.0484C140.812 65.3985 140.715 65.7224 140.523 66.02L135.034 73.8721V80.2799C135.034 80.735 134.885 81.1158 134.588 81.4222C134.29 81.7286 133.931 81.8818 133.511 81.8818C133.073 81.8818 132.701 81.7286 132.395 81.4222C132.088 81.1158 131.935 80.735 131.935 80.2799V73.5045L126.473 66.2564C126.158 65.8362 126 65.4248 126 65.0221C126 64.5669 126.179 64.1861 126.538 63.8797C126.897 63.5734 127.278 63.4202 127.681 63.4202C128.171 63.4202 128.6 63.6653 128.968 64.1555L133.59 70.537L137.923 64.208C138.291 63.6828 138.728 63.4202 139.236 63.4202C139.656 63.4202 140.024 63.5777 140.339 63.8929C140.654 64.208 140.812 64.5932 140.812 65.0484ZM157.961 74.8701C157.961 76.2706 157.646 77.5268 157.015 78.6385C156.385 79.7503 155.523 80.6125 154.429 81.2253C153.334 81.838 152.131 82.1444 150.818 82.1444C149.487 82.1444 148.279 81.838 147.193 81.2253C146.108 80.6125 145.25 79.7503 144.62 78.6385C143.989 77.5268 143.674 76.2706 143.674 74.8701C143.674 73.4695 143.989 72.2133 144.62 71.1016C145.25 69.9899 146.108 69.1232 147.193 68.5017C148.279 67.8802 149.487 67.5694 150.818 67.5694C152.131 67.5694 153.334 67.8802 154.429 68.5017C155.523 69.1232 156.385 69.9899 157.015 71.1016C157.646 72.2133 157.961 73.4695 157.961 74.8701ZM154.809 74.8701C154.809 74.0122 154.63 73.2462 154.271 72.5722C153.912 71.8982 153.431 71.3773 152.827 71.0097C152.223 70.642 151.553 70.4582 150.818 70.4582C150.082 70.4582 149.413 70.642 148.808 71.0097C148.204 71.3773 147.723 71.8982 147.364 72.5722C147.005 73.2462 146.826 74.0122 146.826 74.8701C146.826 75.7279 147.005 76.4895 147.364 77.1548C147.723 77.8201 148.204 78.3365 148.808 78.7042C149.413 79.0718 150.082 79.2557 150.818 79.2557C151.553 79.2557 152.223 79.0718 152.827 78.7042C153.431 78.3365 153.912 77.8201 154.271 77.1548C154.63 76.4895 154.809 75.7279 154.809 74.8701ZM173.639 67.8321C174.094 67.8321 174.471 67.9852 174.768 68.2916C175.066 68.598 175.215 68.9788 175.215 69.434V76.1043C175.215 77.9951 174.694 79.4745 173.652 80.5425C172.611 81.6104 171.127 82.1444 169.201 82.1444C167.275 82.1444 165.796 81.6104 164.763 80.5425C163.73 79.4745 163.213 77.9951 163.213 76.1043V69.434C163.213 68.9788 163.362 68.598 163.66 68.2916C163.957 67.9852 164.334 67.8321 164.789 67.8321C165.244 67.8321 165.621 67.9852 165.918 68.2916C166.216 68.598 166.365 68.9788 166.365 69.434V76.1043C166.365 77.1723 166.601 77.9645 167.074 78.481C167.546 78.9974 168.255 79.2557 169.201 79.2557C170.164 79.2557 170.882 78.9974 171.354 78.481C171.827 77.9645 172.063 77.1723 172.063 76.1043V69.434C172.063 68.9788 172.212 68.598 172.51 68.2916C172.808 67.9852 173.184 67.8321 173.639 67.8321ZM188.556 67.5694C189.081 67.5694 189.523 67.7183 189.882 68.0159C190.241 68.3135 190.421 68.6637 190.421 69.0663C190.421 69.6091 190.28 70.0161 190 70.2875C189.72 70.5588 189.388 70.6945 189.002 70.6945C188.74 70.6945 188.442 70.6332 188.109 70.5107C188.057 70.4932 187.939 70.4582 187.755 70.4057C187.571 70.3531 187.374 70.3269 187.164 70.3269C186.709 70.3269 186.271 70.4669 185.851 70.747C185.431 71.0272 185.085 71.4517 184.814 72.0207C184.542 72.5897 184.407 73.2681 184.407 74.056V80.2799C184.407 80.735 184.258 81.1158 183.96 81.4222C183.662 81.7286 183.286 81.8818 182.831 81.8818C182.376 81.8818 181.999 81.7286 181.702 81.4222C181.404 81.1158 181.255 80.735 181.255 80.2799V69.434C181.255 68.9788 181.404 68.598 181.702 68.2916C181.999 67.9852 182.376 67.8321 182.831 67.8321C183.286 67.8321 183.662 67.9852 183.96 68.2916C184.258 68.598 184.407 68.9788 184.407 69.434V69.7754C184.809 69.0576 185.387 68.5105 186.14 68.1341C186.893 67.7577 187.698 67.5694 188.556 67.5694ZM213.4 63.499C215.046 63.499 216.459 63.906 217.641 64.7201C218.823 65.5342 219.725 66.6372 220.346 68.029C220.968 69.4209 221.278 70.9746 221.278 72.6904C221.278 74.4061 220.968 75.9599 220.346 77.3517C219.725 78.7436 218.823 79.8465 217.641 80.6606C216.459 81.4747 215.046 81.8818 213.4 81.8818H207.123C206.668 81.8818 206.287 81.7286 205.981 81.4222C205.674 81.1158 205.521 80.735 205.521 80.2799V65.1009C205.521 64.6457 205.674 64.2649 205.981 63.9585C206.287 63.6522 206.668 63.499 207.123 63.499H213.4ZM213.137 78.8618C214.713 78.8618 215.895 78.2796 216.683 77.1154C217.47 75.9511 217.864 74.4761 217.864 72.6904C217.864 70.9046 217.466 69.4296 216.669 68.2654C215.873 67.1011 214.695 66.519 213.137 66.519H208.804V78.8618H213.137ZM239.478 74.5287C239.46 74.9488 239.294 75.2902 238.979 75.5528C238.664 75.8155 238.296 75.9468 237.876 75.9468H229.209C229.42 76.9797 229.901 77.7894 230.654 78.3759C231.407 78.9624 232.256 79.2557 233.201 79.2557C233.919 79.2557 234.479 79.19 234.882 79.0587C235.285 78.9274 235.604 78.7873 235.841 78.6385C236.077 78.4897 236.239 78.3891 236.326 78.3365C236.642 78.179 236.939 78.1002 237.219 78.1002C237.587 78.1002 237.902 78.2315 238.165 78.4941C238.427 78.7567 238.559 79.0631 238.559 79.4132C238.559 79.8859 238.314 80.3149 237.823 80.7C237.333 81.1027 236.677 81.4441 235.854 81.7242C235.031 82.0043 234.199 82.1444 233.359 82.1444C231.888 82.1444 230.606 81.838 229.511 81.2253C228.417 80.6125 227.572 79.7678 226.977 78.6911C226.382 77.6143 226.084 76.402 226.084 75.0539C226.084 73.5482 226.399 72.2264 227.03 71.0884C227.66 69.9505 228.492 69.0795 229.525 68.4755C230.558 67.8714 231.661 67.5694 232.834 67.5694C233.989 67.5694 235.079 67.8846 236.103 68.5148C237.127 69.1451 237.946 69.9942 238.559 71.0622C239.171 72.1301 239.478 73.2856 239.478 74.5287ZM232.834 70.4582C230.803 70.4582 229.603 71.4123 229.236 73.3206H236.116V73.1368C236.046 72.4015 235.687 71.7712 235.04 71.246C234.392 70.7208 233.656 70.4582 232.834 70.4582ZM255.393 67.8583C255.813 67.8583 256.163 67.994 256.443 68.2654C256.723 68.5367 256.863 68.8738 256.863 69.2764C256.863 69.4865 256.793 69.7491 256.653 70.0643L251.742 80.8839C251.62 81.1815 251.44 81.4178 251.204 81.5929C250.967 81.768 250.7 81.8643 250.403 81.8818L250.166 81.908C249.869 81.908 249.593 81.8161 249.339 81.6323C249.085 81.4485 248.888 81.199 248.748 80.8839L243.864 70.0643C243.741 69.7841 243.68 69.504 243.68 69.2239C243.68 68.8738 243.829 68.5542 244.126 68.2654C244.424 67.9765 244.792 67.8321 245.229 67.8321C245.562 67.8321 245.868 67.9196 246.148 68.0947C246.429 68.2697 246.639 68.5148 246.779 68.83L250.403 77.1285L254.001 68.8562C254.141 68.5236 254.333 68.2697 254.578 68.0947C254.824 67.9196 255.095 67.8408 255.393 67.8583ZM264.952 80.2799C264.952 80.735 264.803 81.1158 264.506 81.4222C264.208 81.7286 263.831 81.8818 263.376 81.8818C262.921 81.8818 262.545 81.7286 262.247 81.4222C261.949 81.1158 261.801 80.735 261.801 80.2799V69.434C261.801 68.9788 261.949 68.598 262.247 68.2916C262.545 67.9852 262.921 67.8321 263.376 67.8321C263.831 67.8321 264.208 67.9852 264.506 68.2916C264.803 68.598 264.952 68.9788 264.952 69.434V80.2799ZM263.35 66.1251C262.755 66.1251 262.335 66.0288 262.089 65.8362C261.844 65.6436 261.722 65.3022 261.722 64.812V64.3131C261.722 63.8229 261.853 63.4815 262.116 63.2889C262.378 63.0963 262.798 63 263.376 63C263.989 63 264.418 63.0963 264.663 63.2889C264.908 63.4815 265.031 63.8229 265.031 64.3131V64.812C265.031 65.3197 264.904 65.6655 264.65 65.8493C264.396 66.0332 263.963 66.1251 263.35 66.1251ZM276.927 67.5694C278.416 67.5694 279.615 67.8014 280.525 68.2654C281.436 68.7293 281.891 69.3465 281.891 70.1168C281.891 70.5019 281.777 70.839 281.55 71.1278C281.322 71.4167 281.024 71.5611 280.657 71.5611C280.376 71.5611 280.149 71.5218 279.974 71.443C279.799 71.3642 279.628 71.2591 279.462 71.1278C279.295 70.9965 279.133 70.8871 278.976 70.7996C278.801 70.712 278.543 70.6332 278.201 70.5632C277.86 70.4932 277.584 70.4582 277.374 70.4582C276.061 70.4582 275.032 70.8652 274.288 71.6793C273.544 72.4934 273.172 73.557 273.172 74.8701C273.172 76.1306 273.548 77.1767 274.301 78.0083C275.054 78.8399 276.017 79.2557 277.19 79.2557C278.048 79.2557 278.687 79.1506 279.107 78.9405C279.212 78.888 279.357 78.7961 279.54 78.6648C279.724 78.5335 279.895 78.4328 280.053 78.3628C280.21 78.2928 280.403 78.2577 280.63 78.2577C281.068 78.2577 281.414 78.3978 281.668 78.6779C281.922 78.958 282.048 79.3169 282.048 79.7546C282.048 80.1748 281.803 80.5687 281.313 80.9364C280.823 81.304 280.175 81.5973 279.37 81.8161C278.564 82.035 277.707 82.1444 276.796 82.1444C275.448 82.1444 274.262 81.8293 273.238 81.199C272.213 80.5687 271.421 79.6977 270.861 78.586C270.301 77.4743 270.021 76.2356 270.021 74.8701C270.021 73.4519 270.314 72.1914 270.9 71.0884C271.487 69.9855 272.305 69.1232 273.356 68.5017C274.406 67.8802 275.597 67.5694 276.927 67.5694ZM299.565 74.5287C299.548 74.9488 299.381 75.2902 299.066 75.5528C298.751 75.8155 298.383 75.9468 297.963 75.9468H289.297C289.507 76.9797 289.988 77.7894 290.741 78.3759C291.494 78.9624 292.343 79.2557 293.289 79.2557C294.006 79.2557 294.567 79.19 294.969 79.0587C295.372 78.9274 295.692 78.7873 295.928 78.6385C296.164 78.4897 296.326 78.3891 296.414 78.3365C296.729 78.179 297.027 78.1002 297.307 78.1002C297.674 78.1002 297.989 78.2315 298.252 78.4941C298.515 78.7567 298.646 79.0631 298.646 79.4132C298.646 79.8859 298.401 80.3149 297.911 80.7C297.42 81.1027 296.764 81.4441 295.941 81.7242C295.118 82.0043 294.287 82.1444 293.446 82.1444C291.975 82.1444 290.693 81.838 289.599 81.2253C288.505 80.6125 287.66 79.7678 287.065 78.6911C286.469 77.6143 286.172 76.402 286.172 75.0539C286.172 73.5482 286.487 72.2264 287.117 71.0884C287.747 69.9505 288.579 69.0795 289.612 68.4755C290.645 67.8714 291.748 67.5694 292.921 67.5694C294.076 67.5694 295.166 67.8846 296.191 68.5148C297.215 69.1451 298.033 69.9942 298.646 71.0622C299.259 72.1301 299.565 73.2856 299.565 74.5287ZM292.921 70.4582C290.89 70.4582 289.691 71.4123 289.323 73.3206H296.204V73.1368C296.134 72.4015 295.775 71.7712 295.127 71.246C294.479 70.7208 293.744 70.4582 292.921 70.4582ZM320.969 82.1444C319.708 82.1444 318.588 81.9868 317.607 81.6717C316.627 81.3566 315.708 80.8226 314.85 80.0698C314.377 79.6496 314.141 79.1856 314.141 78.6779C314.141 78.2753 314.289 77.9207 314.587 77.6143C314.885 77.308 315.244 77.1548 315.664 77.1548C315.996 77.1548 316.294 77.2598 316.557 77.4699C317.257 78.0477 317.94 78.4678 318.605 78.7304C319.27 78.9931 320.058 79.1244 320.969 79.1244C321.949 79.1244 322.794 78.9055 323.503 78.4678C324.212 78.0301 324.567 77.4874 324.567 76.8396C324.567 76.0518 324.216 75.4347 323.516 74.9882C322.816 74.5418 321.704 74.2048 320.181 73.9772C316.347 73.4169 314.429 71.6312 314.429 68.6199C314.429 67.5169 314.718 66.5584 315.296 65.7443C315.874 64.9302 316.662 64.3087 317.66 63.8797C318.658 63.4508 319.769 63.2364 320.995 63.2364C322.098 63.2364 323.135 63.4027 324.107 63.7353C325.079 64.068 325.888 64.5056 326.536 65.0484C327.044 65.451 327.298 65.915 327.298 66.4402C327.298 66.8429 327.149 67.1974 326.851 67.5038C326.554 67.8102 326.204 67.9634 325.801 67.9634C325.538 67.9634 325.302 67.8846 325.092 67.727C324.637 67.3594 324.002 67.0223 323.188 66.716C322.374 66.4096 321.643 66.2564 320.995 66.2564C319.892 66.2564 319.038 66.4621 318.434 66.8735C317.83 67.2849 317.528 67.8233 317.528 68.4886C317.528 69.2414 317.839 69.8104 318.461 70.1956C319.082 70.5807 320.058 70.8959 321.389 71.141C322.895 71.4036 324.098 71.7406 325 72.152C325.902 72.5634 326.58 73.1237 327.035 73.8327C327.49 74.5418 327.718 75.4828 327.718 76.6558C327.718 77.7588 327.407 78.7261 326.786 79.5577C326.164 80.3893 325.337 81.0283 324.304 81.4747C323.271 81.9212 322.159 82.1444 320.969 82.1444ZM344.473 67.5694C344.928 67.5694 345.305 67.7183 345.602 68.0159C345.9 68.3135 346.049 68.6987 346.049 69.1714V80.2799C346.049 80.735 345.9 81.1158 345.602 81.4222C345.305 81.7286 344.928 81.8818 344.473 81.8818C344.018 81.8818 343.646 81.733 343.357 81.4353C343.068 81.1377 342.915 80.7613 342.897 80.3061C342.46 80.8138 341.869 81.2471 341.125 81.606C340.381 81.9649 339.597 82.1444 338.774 82.1444C337.566 82.1444 336.472 81.8336 335.492 81.2121C334.511 80.5906 333.736 79.7284 333.167 78.6254C332.598 77.5224 332.314 76.2706 332.314 74.8701C332.314 73.4695 332.594 72.2133 333.154 71.1016C333.714 69.9899 334.48 69.1232 335.452 68.5017C336.424 67.8802 337.496 67.5694 338.669 67.5694C339.51 67.5694 340.297 67.7226 341.033 68.029C341.768 68.3354 342.39 68.7249 342.897 69.1976V69.1714C342.897 68.7162 343.046 68.3354 343.344 68.029C343.641 67.7226 344.018 67.5694 344.473 67.5694ZM339.168 79.2557C340.306 79.2557 341.234 78.8399 341.952 78.0083C342.67 77.1767 343.029 76.1306 343.029 74.8701C343.029 73.6095 342.67 72.5591 341.952 71.7187C341.234 70.8784 340.306 70.4582 339.168 70.4582C338.048 70.4582 337.129 70.8784 336.411 71.7187C335.693 72.5591 335.334 73.6095 335.334 74.8701C335.334 76.1306 335.689 77.1767 336.398 78.0083C337.107 78.8399 338.03 79.2557 339.168 79.2557ZM362.568 67.8583C362.988 67.8583 363.338 67.994 363.618 68.2654C363.898 68.5367 364.038 68.8738 364.038 69.2764C364.038 69.4865 363.968 69.7491 363.828 70.0643L358.917 80.8839C358.795 81.1815 358.615 81.4178 358.379 81.5929C358.142 81.768 357.875 81.8643 357.578 81.8818L357.341 81.908C357.044 81.908 356.768 81.8161 356.514 81.6323C356.26 81.4485 356.063 81.199 355.923 80.8839L351.039 70.0643C350.916 69.7841 350.855 69.504 350.855 69.2239C350.855 68.8738 351.004 68.5542 351.301 68.2654C351.599 67.9765 351.967 67.8321 352.404 67.8321C352.737 67.8321 353.043 67.9196 353.323 68.0947C353.604 68.2697 353.814 68.5148 353.954 68.83L357.578 77.1285L361.176 68.8562C361.316 68.5236 361.508 68.2697 361.753 68.0947C361.999 67.9196 362.27 67.8408 362.568 67.8583ZM372.127 80.2799C372.127 80.735 371.978 81.1158 371.681 81.4222C371.383 81.7286 371.006 81.8818 370.551 81.8818C370.096 81.8818 369.72 81.7286 369.422 81.4222C369.124 81.1158 368.976 80.735 368.976 80.2799V69.434C368.976 68.9788 369.124 68.598 369.422 68.2916C369.72 67.9852 370.096 67.8321 370.551 67.8321C371.006 67.8321 371.383 67.9852 371.681 68.2916C371.978 68.598 372.127 68.9788 372.127 69.434V80.2799ZM370.525 66.1251C369.93 66.1251 369.51 66.0288 369.264 65.8362C369.019 65.6436 368.897 65.3022 368.897 64.812V64.3131C368.897 63.8229 369.028 63.4815 369.291 63.2889C369.553 63.0963 369.973 63 370.551 63C371.164 63 371.593 63.0963 371.838 63.2889C372.083 63.4815 372.206 63.8229 372.206 64.3131V64.812C372.206 65.3197 372.079 65.6655 371.825 65.8493C371.571 66.0332 371.138 66.1251 370.525 66.1251ZM391.482 74.8701C391.482 76.2706 391.167 77.5268 390.537 78.6385C389.906 79.7503 389.044 80.6125 387.95 81.2253C386.856 81.838 385.652 82.1444 384.339 82.1444C383.008 82.1444 381.8 81.838 380.715 81.2253C379.629 80.6125 378.771 79.7503 378.141 78.6385C377.511 77.5268 377.196 76.2706 377.196 74.8701C377.196 73.4695 377.511 72.2133 378.141 71.1016C378.771 69.9899 379.629 69.1232 380.715 68.5017C381.8 67.8802 383.008 67.5694 384.339 67.5694C385.652 67.5694 386.856 67.8802 387.95 68.5017C389.044 69.1232 389.906 69.9899 390.537 71.1016C391.167 72.2133 391.482 73.4695 391.482 74.8701ZM388.331 74.8701C388.331 74.0122 388.151 73.2462 387.792 72.5722C387.433 71.8982 386.952 71.3773 386.348 71.0097C385.744 70.642 385.074 70.4582 384.339 70.4582C383.603 70.4582 382.934 70.642 382.33 71.0097C381.726 71.3773 381.244 71.8982 380.885 72.5722C380.526 73.2462 380.347 74.0122 380.347 74.8701C380.347 75.7279 380.526 76.4895 380.885 77.1548C381.244 77.8201 381.726 78.3365 382.33 78.7042C382.934 79.0718 383.603 79.2557 384.339 79.2557C385.074 79.2557 385.744 79.0718 386.348 78.7042C386.952 78.3365 387.433 77.8201 387.792 77.1548C388.151 76.4895 388.331 75.7279 388.331 74.8701ZM404.035 67.5694C404.56 67.5694 405.003 67.7183 405.361 68.0159C405.72 68.3135 405.9 68.6637 405.9 69.0663C405.9 69.6091 405.76 70.0161 405.48 70.2875C405.199 70.5588 404.867 70.6945 404.482 70.6945C404.219 70.6945 403.921 70.6332 403.589 70.5107C403.536 70.4932 403.418 70.4582 403.234 70.4057C403.05 70.3531 402.853 70.3269 402.643 70.3269C402.188 70.3269 401.75 70.4669 401.33 70.747C400.91 71.0272 400.564 71.4517 400.293 72.0207C400.022 72.5897 399.886 73.2681 399.886 74.056V80.2799C399.886 80.735 399.737 81.1158 399.439 81.4222C399.142 81.7286 398.765 81.8818 398.31 81.8818C397.855 81.8818 397.478 81.7286 397.181 81.4222C396.883 81.1158 396.734 80.735 396.734 80.2799V69.434C396.734 68.9788 396.883 68.598 397.181 68.2916C397.478 67.9852 397.855 67.8321 398.31 67.8321C398.765 67.8321 399.142 67.9852 399.439 68.2916C399.737 68.598 399.886 68.9788 399.886 69.434V69.7754C400.289 69.0576 400.866 68.5105 401.619 68.1341C402.372 67.7577 403.177 67.5694 404.035 67.5694Z" fill="#24AE3C"/>
</g>
<path d="M98.8681 49.7539H99.2892C100.804 49.7539 101.927 49.1796 102.658 48.0311C103.152 47.2484 103.398 45.4959 103.398 42.7734V39.3023C103.398 36.4353 103.105 34.4743 102.518 33.4193C101.931 32.3644 100.787 31.8369 99.085 31.8369H98.8681C97.3367 31.8369 96.0478 32.6196 95.0014 34.185C93.955 35.7589 93.4317 37.6901 93.4317 39.9787V41.5994C93.4317 43.7263 93.8401 45.4703 94.6568 46.8315C95.8139 48.7798 97.2176 49.7539 98.8681 49.7539ZM102.48 28.9911C103.262 28.9911 103.654 28.0936 103.654 26.2985C103.654 23.3718 103.02 21.3513 101.752 20.2368C100.808 19.4286 100.336 18.8883 100.336 18.6161C100.336 18.0886 101.118 17.5739 102.684 17.072C104.241 16.5785 105.661 16.3318 106.946 16.3318C108.222 16.3318 109.056 16.4722 109.447 16.7529C109.839 17.0337 110.102 17.6462 110.239 18.5906C110.383 19.5434 110.455 24.1503 110.455 32.4112C110.455 40.6806 110.545 45.3512 110.723 46.4232C110.911 47.4951 111.255 48.3374 111.757 48.9499C111.783 49.001 112.097 49.2435 112.701 49.6773C113.297 50.1112 113.595 50.4685 113.595 50.7493V51.1704C113.595 51.4171 113.429 51.6851 113.097 51.9744C112.102 52.7996 109.949 53.2122 106.64 53.2122C105.781 53.2122 105.117 52.9145 104.649 52.319C104.181 51.7234 103.93 51.4257 103.896 51.4257C103.581 51.4427 103.041 51.6469 102.275 52.0382C100.497 53.0081 98.8553 53.493 97.3495 53.493C97.3155 53.493 97.2899 53.493 97.2729 53.493H96.6221C95.4055 53.493 94.2017 53.208 93.0106 52.638C90.5349 51.481 88.7908 49.4902 87.7784 46.6656C87.2595 45.2023 87 43.7305 87 42.2502V41.5739C87 41.5228 87 41.4803 87 41.4462C87 39.5405 87.3403 37.7497 88.0209 36.0737C89.9692 31.2329 93.5253 28.8124 98.6894 28.8124C99.9741 28.8124 100.731 28.821 100.961 28.838L101.484 28.889C102.046 28.9571 102.377 28.9911 102.48 28.9911ZM129.074 31.5817H128.347C127.3 31.5817 126.301 32.1262 125.348 33.2151C124.395 34.3041 123.919 35.6058 123.919 37.1201V37.5157C123.919 38.1283 124.259 38.4345 124.94 38.4345L125.182 38.4856H126.956L127.084 38.4601L131.244 38.2176C131.49 38.1666 131.656 38.141 131.741 38.141C132.592 38.141 133.018 37.6986 133.018 36.8138V35.9971C133.018 34.8826 132.618 33.866 131.818 32.9471C131.018 32.0368 130.104 31.5817 129.074 31.5817ZM124.212 43.4498C124.212 45.1088 124.995 46.5465 126.56 47.7631C127.717 48.6734 129.193 49.1286 130.989 49.1286C131.805 49.1286 133.018 48.8946 134.626 48.4267C136.225 47.9673 137.148 47.7376 137.395 47.7376C138.143 47.7376 138.518 48.1417 138.518 48.9499C138.518 49.9198 137.527 50.8982 135.544 51.8851C133.554 52.8719 131.495 53.3654 129.368 53.3654H128.27C128.245 53.3654 128.207 53.3654 128.156 53.3654C126.811 53.3654 125.437 53.0931 124.034 52.5487C121.277 51.4852 119.32 49.622 118.163 46.9592C117.364 45.13 116.964 43.3945 116.964 41.7525V40.604C116.964 38.928 117.253 37.3073 117.832 35.7419C118.929 32.7983 120.864 30.6799 123.638 29.3867C125.305 28.621 127.05 28.2382 128.87 28.2382H129.444C132.158 28.2382 134.443 29.0804 136.297 30.7649C137.284 31.6582 138.037 32.7345 138.556 33.9936C139.084 35.2612 139.347 36.5459 139.347 37.8475C139.347 39.1577 138.705 40.017 137.42 40.4253C135.625 41.0124 132.303 41.3059 127.454 41.3059C126.16 41.3059 125.297 41.4675 124.863 41.7908C124.429 42.1141 124.212 42.6671 124.212 43.4498ZM159.804 29.9865C159.804 29.2038 161.684 28.8124 165.444 28.8124C167.75 28.8124 168.903 29.2889 168.903 30.2417C168.903 30.8713 168.413 31.6285 167.435 32.5133C166.457 33.4066 165.717 34.3509 165.215 35.3463C165.198 35.3803 164.126 37.9879 161.999 43.169C159.872 48.3246 158.528 51.298 157.966 52.0892C157.396 52.889 156.545 53.2888 155.414 53.2888C154.291 53.2888 153.419 52.8422 152.798 51.9489C152.185 51.0471 150.901 48.1715 148.944 43.3222C146.979 38.4728 145.77 35.6228 145.32 34.772C144.877 33.9213 144.137 33.062 143.099 32.1942C142.061 31.3179 141.542 30.6671 141.542 30.2417V29.7568C141.542 29.1272 143.75 28.8124 148.165 28.8124L149.39 28.7869C151.118 28.7869 152.198 28.8975 152.632 29.1187C153.057 29.3314 153.27 29.676 153.27 30.1524C153.27 30.6203 153.147 31.0755 152.9 31.5179C152.653 31.9603 152.53 32.4707 152.53 33.0492C152.53 35.1761 153.636 38.7238 155.848 43.6922C156.307 44.7217 156.63 45.2364 156.818 45.2364C156.996 45.2364 157.311 44.7046 157.762 43.6412C159.821 38.7578 160.85 35.3846 160.85 33.5214C160.85 33.011 160.676 32.4069 160.327 31.7093C159.978 31.0117 159.804 30.4374 159.804 29.9865ZM174.313 21.1684V20.5175C174.313 19.5562 174.692 18.7394 175.449 18.0673C176.206 17.4038 177.023 17.072 177.899 17.072H178.703C178.95 17.123 179.154 17.1485 179.316 17.1485C180.116 17.1485 180.826 17.5058 181.447 18.2205C182.06 18.9351 182.366 19.6157 182.366 20.2623V20.9131C182.332 21.0833 182.315 21.2067 182.315 21.2832C182.315 21.9808 181.924 22.6615 181.141 23.325C180.358 23.9971 179.495 24.3332 178.55 24.3332H177.772C176.844 24.3332 176.045 24.0354 175.373 23.4399C174.701 22.8529 174.365 22.1765 174.365 21.4108L174.313 21.1684ZM179.048 52.9443H176.674C174.471 52.9443 173.148 52.8805 172.706 52.7528C172.263 52.6337 172.042 52.2764 172.042 51.6809C172.042 51.0939 172.459 50.3835 173.293 49.5497C174.118 48.7245 174.641 47.8907 174.862 47.0485C175.075 46.2062 175.181 44.0198 175.181 40.4891C175.181 36.9585 175.092 34.8784 174.913 34.2488C174.726 33.6192 174.156 33.0748 173.203 32.6153C172.25 32.1559 171.774 31.6072 171.774 30.9691C171.774 30.3311 172.212 29.8631 173.088 29.5654C175.088 28.9018 177.291 28.57 179.699 28.57H180.069C181.03 28.57 181.587 28.9741 181.741 29.7823C181.826 30.2502 181.868 33.0407 181.868 38.1538C181.868 43.2584 181.979 46.2488 182.2 47.1251C182.421 47.9928 183 48.9202 183.936 49.907C184.863 50.8854 185.327 51.498 185.327 51.7447V52.0382C185.327 52.6422 183.234 52.9443 179.048 52.9443ZM209.012 47.5334C209.658 47.5334 209.982 47.9758 209.982 48.8606C209.982 49.7539 208.935 50.7238 206.842 51.7702C204.749 52.8166 202.703 53.3399 200.704 53.3399H200.13C198.488 53.3399 196.927 53.0166 195.446 52.37C192.554 51.1024 190.559 48.9499 189.461 45.9127C188.934 44.4154 188.67 42.9266 188.67 41.4462V40.8592C188.67 37.4987 189.776 34.5891 191.988 32.1304C193.103 30.8968 194.451 29.9525 196.033 29.2974C197.624 28.6423 199.258 28.3148 200.934 28.3148C204.09 28.3148 206.523 28.7869 208.233 29.7313C209.246 30.3013 209.752 31.2244 209.752 32.5005C209.752 34.8146 209.02 35.9716 207.557 35.9716C206.664 35.9716 205.604 35.3123 204.379 33.9936C203.163 32.6834 201.874 32.0283 200.513 32.0283C198.862 32.0283 197.505 33.0492 196.442 35.0911C195.846 36.2566 195.54 38.0942 195.523 40.604C195.523 40.638 195.523 40.672 195.523 40.7061C195.523 43.1137 196.148 45.1003 197.399 46.6656C198.658 48.2396 200.257 49.0265 202.197 49.0265C203.278 49.0265 204.605 48.7798 206.179 48.2864C207.753 47.7844 208.697 47.5334 209.012 47.5334ZM225.602 31.5817H224.887C223.84 31.5817 222.837 32.1262 221.875 33.2151C220.922 34.3041 220.446 35.6058 220.446 37.1201V37.5157C220.446 38.1283 220.786 38.4345 221.467 38.4345L221.722 38.4856H223.483L223.611 38.4601L227.771 38.2176C228.026 38.1666 228.192 38.141 228.269 38.141C229.119 38.141 229.545 37.6986 229.545 36.8138V35.9971C229.545 34.8826 229.145 33.866 228.345 32.9471C227.554 32.0368 226.639 31.5817 225.602 31.5817ZM220.752 43.4498C220.752 45.1088 221.531 46.5465 223.088 47.7631C224.253 48.6734 225.733 49.1286 227.528 49.1286C228.345 49.1286 229.553 48.8946 231.153 48.4267C232.752 47.9673 233.679 47.7376 233.935 47.7376C234.683 47.7376 235.058 48.1417 235.058 48.9499C235.058 49.9198 234.062 50.8982 232.072 51.8851C230.089 52.8719 228.035 53.3654 225.908 53.3654H224.81C224.776 53.3654 224.734 53.3654 224.683 53.3654C223.339 53.3654 221.969 53.0931 220.574 52.5487C217.817 51.4852 215.856 49.622 214.691 46.9592C213.891 45.13 213.491 43.3945 213.491 41.7525V40.604C213.491 38.928 213.784 37.3073 214.371 35.7419C215.46 32.7983 217.396 30.6799 220.178 29.3867C221.837 28.621 223.581 28.2382 225.41 28.2382H225.984C228.69 28.2382 230.974 29.0804 232.837 30.7649C233.816 31.6582 234.569 32.7345 235.096 33.9936C235.615 35.2612 235.874 36.5459 235.874 37.8475C235.874 39.1577 235.236 40.017 233.96 40.4253C232.165 41.0124 228.839 41.3059 223.981 41.3059C222.688 41.3059 221.824 41.4675 221.39 41.7908C220.965 42.1141 220.752 42.6671 220.752 43.4498ZM256.535 29.3612C257.284 29.7951 257.658 30.7096 257.658 32.1049C257.658 33.5001 257.56 34.4232 257.365 34.8741C257.16 35.325 256.769 35.5505 256.191 35.5505C255.263 35.5505 254.264 34.8741 253.192 33.5214C252.12 32.1772 250.767 31.5051 249.134 31.5051C248.206 31.5051 247.466 31.7476 246.913 32.2325C246.369 32.7089 246.096 33.2407 246.096 33.8277C246.096 34.8231 246.577 35.6526 247.538 36.3162C248.006 36.6309 249.499 37.3158 252.018 38.3707C254.536 39.4257 256.339 40.5147 257.428 41.6377C258.517 42.7607 259.062 44.2835 259.062 46.2062C259.062 48.1375 258.237 49.8177 256.586 51.247C254.944 52.6763 252.834 53.3909 250.257 53.3909H248.942C245.718 53.3909 243.297 53.0081 241.681 52.2424C240.549 51.7149 239.984 50.4515 239.984 48.4522C239.984 46.4615 240.358 45.4661 241.107 45.4661C242.059 45.4661 243.238 46.2403 244.642 47.7887C246.045 49.3285 247.568 50.0985 249.21 50.0985C250.205 50.0985 251.048 49.8858 251.737 49.4604C252.426 49.0435 252.771 48.3799 252.771 47.4696C252.771 46.5678 252.29 45.7596 251.329 45.045C250.818 44.6621 249.427 43.9815 247.156 43.0031C244.884 42.0333 243.268 41.0932 242.306 40.1829C240.86 38.8216 240.137 37.1456 240.137 35.1549C240.137 33.1726 240.983 31.5306 242.676 30.229C244.378 28.9188 246.356 28.2637 248.61 28.2637H249.287C252.843 28.2637 255.259 28.6295 256.535 29.3612ZM276.902 42.6458C276.902 41.8971 276.668 41.5228 276.2 41.5228H275.562C275.146 41.6079 274.826 41.6504 274.605 41.6504C273.099 41.6504 271.828 42.0928 270.79 42.9776C269.76 43.8539 269.245 44.8493 269.245 45.9638V46.538C269.245 47.3803 269.513 48.1119 270.049 48.733C270.577 49.3455 271.224 49.6518 271.989 49.6518H272.793C273.891 49.6518 274.826 49.3115 275.601 48.6309C276.383 47.9503 276.775 47.2867 276.775 46.6401C276.843 46.3083 276.877 46.0914 276.877 45.9893L276.928 45.5937V44.5217L276.953 44.1134V43.0159C276.919 42.8542 276.902 42.7309 276.902 42.6458ZM287.022 50.5451V50.928C287.022 51.4895 286.397 52.0169 285.146 52.5104C283.904 52.9953 282.428 53.2378 280.718 53.2378C279.672 53.2378 278.766 52.7656 278 51.8213C277.583 51.2853 277.26 51.0173 277.03 51.0173C276.792 51.0003 276.392 51.1917 275.83 51.5916C273.933 52.8932 271.891 53.544 269.705 53.544C269.688 53.544 269.671 53.5526 269.654 53.5696C267.493 53.5696 265.762 53.0123 264.46 51.8978C263.167 50.7833 262.512 49.2222 262.495 47.2144C262.495 42.8925 265.817 40.1743 272.461 39.0599C274.061 38.8131 275.018 38.6217 275.333 38.4856C276.294 38.0857 276.775 37.1967 276.775 35.8185C276.775 34.4402 276.464 33.4491 275.843 32.8451C275.222 32.2325 274.495 31.9262 273.661 31.9262C272.351 31.9262 271.164 32.6281 270.101 34.0319C269.037 35.4356 267.799 36.1375 266.387 36.1375C265.553 36.1375 264.924 35.912 264.498 35.4611C264.073 35.0017 263.86 34.5296 263.86 34.0446C263.86 32.5813 264.626 31.42 266.157 30.5608C268.701 29.1315 271.394 28.4168 274.235 28.4168H275.537C276.966 28.4168 278.332 28.7189 279.633 29.3229C280.935 29.9355 281.943 30.8628 282.658 32.1049C283.372 33.347 283.73 36.129 283.73 40.4508C283.73 44.7727 283.866 47.2612 284.138 47.9163C284.419 48.5714 284.968 49.0563 285.784 49.3711C286.61 49.6773 287.022 50.0687 287.022 50.5451ZM291.004 32.1559C290.281 31.654 289.919 31.1691 289.919 30.7011C289.919 30.2247 290.357 29.7525 291.233 29.2846C292.118 28.8252 292.667 28.4509 292.88 28.1616C293.092 27.8809 293.437 27.1024 293.913 25.8263C294.39 24.5416 294.892 23.5548 295.419 22.8656C295.955 22.1765 296.653 21.832 297.512 21.832C298.38 21.832 299.005 22.1808 299.388 22.8784C299.55 23.1932 299.767 23.9418 300.039 25.1244C300.32 26.307 300.651 27.0641 301.034 27.3959C301.417 27.7277 302.144 28.0978 303.216 28.5062C304.297 28.9145 304.854 29.1272 304.888 29.1442C305.458 29.5866 305.743 30.1184 305.743 30.7394C305.743 31.2669 304.956 31.7391 303.382 32.1559C301.817 32.5728 300.813 33.2024 300.371 34.0446C299.928 34.8954 299.707 37.0138 299.707 40.3998C299.707 43.7943 299.971 45.9978 300.498 47.0102C301.017 48.0226 301.876 48.5288 303.076 48.5288L303.969 48.4522C304.369 48.4182 304.803 48.4012 305.271 48.4012C306.283 48.4012 306.79 48.784 306.79 49.5497C306.79 50.5281 306.173 51.3108 304.939 51.8978C303.178 52.7231 301.319 53.1357 299.362 53.1357C298.444 53.1357 297.529 52.889 296.619 52.3955C295.7 51.8936 295.002 51.2853 294.526 50.5706C293.581 49.1754 293.109 47.1846 293.109 44.5983L293.084 44.0623C293.067 43.705 293.058 43.3009 293.058 42.85V41.3824C293.058 38.5069 292.824 36.0524 292.356 34.0191C292.186 33.2704 291.735 32.6494 291.004 32.1559ZM338.565 51.247C338.565 52.0297 338.008 52.5401 336.894 52.7784C335.779 53.0166 334.193 53.1357 332.134 53.1357C330.075 53.1357 328.739 53.0038 328.127 52.7401C327.506 52.4763 327.195 52.0297 327.195 51.4001C327.195 51.1279 327.412 50.5877 327.846 49.7794C328.28 48.9627 328.577 48.2778 328.739 47.7248C328.909 47.1633 328.994 45.147 328.994 41.6759C328.994 38.2048 328.705 35.8567 328.127 34.6316C327.54 33.4151 326.438 32.8068 324.821 32.8068C323.196 32.8068 321.959 33.3513 321.108 34.4402C320.249 35.5292 319.819 37.5072 319.819 40.3743C319.819 41.3271 319.938 42.7904 320.176 44.7642C320.406 46.7465 320.738 48.2523 321.172 49.2817C321.606 50.3112 321.822 50.8769 321.822 50.979C321.822 51.7192 321.372 52.1913 320.47 52.3955C319.16 52.6763 317.177 52.8166 314.523 52.8166C311.877 52.8166 310.554 52.4083 310.554 51.5916C310.554 51.013 310.941 50.1835 311.715 49.1031C312.481 48.0226 312.919 47.0825 313.03 46.2828C313.14 45.4916 313.196 41.5058 313.196 34.3254C313.196 27.145 313.081 23.1166 312.851 22.2403C312.63 21.3555 312.268 20.6877 311.766 20.2368C310.592 19.1733 310.005 18.5778 310.005 18.4502C310.005 17.7696 310.363 17.2761 311.077 16.9699C312.6 16.3233 314.625 16 317.152 16C318.368 16 319.151 16.4424 319.5 17.3272C319.713 17.8717 319.819 20.0028 319.819 23.7206C319.819 27.43 319.853 29.4037 319.921 29.6419C320.091 30.2205 320.431 30.5097 320.942 30.5097C321.163 30.5097 321.635 30.3438 322.358 30.012C324.392 29.0847 326.238 28.621 327.897 28.621C330.909 28.621 333.035 29.8078 334.278 32.1815C335.179 33.8915 335.63 36.8138 335.63 40.9485C335.63 45.0917 335.745 47.4356 335.975 47.9801C336.205 48.5331 336.694 49.1669 337.442 49.8815C338.191 50.5962 338.565 51.0513 338.565 51.247ZM344.691 21.1684V20.5175C344.691 19.5562 345.069 18.7394 345.827 18.0673C346.584 17.4038 347.405 17.072 348.29 17.072H349.081C349.336 17.123 349.544 17.1485 349.706 17.1485C350.506 17.1485 351.212 17.5058 351.824 18.2205C352.437 18.9351 352.743 19.6157 352.743 20.2623V20.9131C352.709 21.0833 352.692 21.2067 352.692 21.2832C352.692 21.9808 352.305 22.6615 351.531 23.325C350.748 23.9971 349.885 24.3332 348.94 24.3332H348.162C347.235 24.3332 346.431 24.0354 345.75 23.4399C345.078 22.8529 344.742 22.1765 344.742 21.4108L344.691 21.1684ZM349.438 52.9443H347.065C344.853 52.9443 343.525 52.8805 343.083 52.7528C342.649 52.6337 342.432 52.2764 342.432 51.6809C342.432 51.0939 342.845 50.3835 343.67 49.5497C344.504 48.7245 345.027 47.8907 345.24 47.0485C345.461 46.2062 345.571 44.0198 345.571 40.4891C345.571 36.9585 345.478 34.8784 345.291 34.2488C345.112 33.6192 344.546 33.0748 343.593 32.6153C342.632 32.1559 342.151 31.6072 342.151 30.9691C342.151 30.3311 342.594 29.8631 343.479 29.5654C345.469 28.9018 347.669 28.57 350.076 28.57H350.459C351.42 28.57 351.978 28.9741 352.131 29.7823C352.207 30.2502 352.246 33.0407 352.246 38.1538C352.246 43.2584 352.36 46.2488 352.59 47.1251C352.811 47.9928 353.386 48.9202 354.313 49.907C355.249 50.8854 355.717 51.498 355.717 51.7447V52.0382C355.717 52.6422 353.624 52.9443 349.438 52.9443ZM364.382 45.5937H364.79C365.768 45.5937 366.67 45.9553 367.495 46.6784C368.312 47.4016 368.721 48.3076 368.721 49.3966V49.6518C368.721 50.6472 368.329 51.5405 367.547 52.3317C366.755 53.1229 365.794 53.5185 364.662 53.5185H364.382L364.241 53.493C363.127 53.493 362.191 53.1144 361.434 52.3572C360.677 51.6001 360.298 50.7238 360.298 49.7284V49.4476C360.298 48.4693 360.698 47.5802 361.498 46.7805C362.297 45.9893 363.259 45.5937 364.382 45.5937ZM393.771 47.5334C394.418 47.5334 394.741 47.9758 394.741 48.8606C394.741 49.7539 393.695 50.7238 391.602 51.7702C389.509 52.8166 387.467 53.3399 385.476 53.3399H384.902C383.26 53.3399 381.699 53.0166 380.219 52.37C377.326 51.1024 375.331 48.9499 374.234 45.9127C373.698 44.4154 373.43 42.9266 373.43 41.4462V40.8592C373.43 37.4987 374.536 34.5891 376.747 32.1304C377.862 30.8968 379.215 29.9525 380.806 29.2974C382.388 28.6423 384.017 28.3148 385.693 28.3148C388.85 28.3148 391.287 28.7869 393.006 29.7313C394.018 30.3013 394.524 31.2244 394.524 32.5005C394.524 34.8146 393.792 35.9716 392.329 35.9716C391.427 35.9716 390.368 35.3123 389.152 33.9936C387.926 32.6834 386.633 32.0283 385.272 32.0283C383.63 32.0283 382.277 33.0492 381.214 35.0911C380.61 36.2566 380.304 38.0942 380.295 40.604C380.295 40.638 380.295 40.672 380.295 40.7061C380.295 43.1137 380.916 45.1003 382.158 46.6656C383.417 48.2396 385.021 49.0265 386.969 49.0265C388.05 49.0265 389.373 48.7798 390.938 48.2864C392.512 47.7844 393.456 47.5334 393.771 47.5334ZM410.501 31.4796H410.029C408.6 31.4796 407.43 32.2878 406.52 33.9042C405.618 35.5122 405.167 37.4392 405.167 39.6852V41.0762C405.167 43.6029 405.69 45.7383 406.737 47.4824C407.783 49.2264 409.038 50.0985 410.501 50.0985H410.974C412.25 50.0985 413.368 49.4476 414.33 48.146C415.283 46.8443 415.759 45.1045 415.759 42.9266L415.81 42.4033L415.836 41.3569V41.0762L415.81 40.8082V40.2849C415.776 39.9191 415.759 39.6511 415.759 39.481C415.759 37.269 415.236 35.3846 414.189 33.8277C413.143 32.2623 411.914 31.4796 410.501 31.4796ZM410.527 28.1616H411.765C413.245 28.1616 414.768 28.5104 416.333 29.2081C419.303 30.5437 421.344 32.7047 422.459 35.6908C423.029 37.2392 423.314 38.8174 423.314 40.4253V40.872C423.314 42.6075 422.965 44.3048 422.267 45.9638C421.57 47.6228 420.63 49.001 419.447 50.0985C416.988 52.3275 414.164 53.442 410.974 53.442C410.727 53.442 410.476 53.4334 410.221 53.4164C408.63 53.4164 407.064 53.0974 405.524 52.4593C403.985 51.8213 402.725 50.9705 401.747 49.907C399.637 47.576 398.582 44.6579 398.582 41.1527V40.7316L398.608 40.3105C398.625 38.7621 398.914 37.2307 399.476 35.7164C400.573 32.8238 402.585 30.6884 405.512 29.3101C407.154 28.5445 408.825 28.1616 410.527 28.1616ZM469.74 50.5451C469.74 52.0935 467.541 52.8677 463.142 52.8677C461.696 52.8677 460.696 52.6975 460.143 52.3572C459.599 52.0169 459.327 51.4214 459.327 50.5706L459.646 48.9755C459.96 47.2995 460.118 44.7472 460.118 41.3186C460.118 37.8816 459.828 35.6058 459.25 34.4913C458.671 33.3683 457.527 32.8068 455.817 32.8068C455.23 32.8068 454.596 33.0322 453.916 33.4831C453.235 33.9425 452.725 34.5636 452.384 35.3463C452.044 36.129 451.874 38.1453 451.874 41.3952C451.874 44.6366 451.967 46.5678 452.155 47.1889C452.35 47.8014 452.78 48.5416 453.443 49.4094C454.107 50.2856 454.439 50.9705 454.439 51.4639C454.439 51.9489 454.12 52.3019 453.482 52.5231C452.844 52.7358 451.159 52.8422 448.428 52.8422C445.706 52.8422 444.132 52.7018 443.707 52.421C443.281 52.1403 443.069 51.6256 443.069 50.8769C443.069 50.6217 443.349 50.1325 443.911 49.4094C444.464 48.6862 444.821 48.0269 444.983 47.4313C445.136 46.8358 445.212 44.9173 445.212 41.6759C445.212 38.4345 444.949 36.1843 444.421 34.9252C443.885 33.6575 442.911 33.0237 441.499 33.0237C440.087 33.0237 438.891 33.6745 437.913 34.9762C437.232 35.8695 436.892 37.1159 436.892 38.7153C436.892 40.3062 436.969 42.1651 437.122 44.292C437.266 46.4189 437.432 47.9163 437.619 48.784C437.798 49.6433 437.887 50.375 437.887 50.979C437.887 51.5745 437.624 52.0339 437.096 52.3572C436.56 52.6805 435.297 52.8422 433.306 52.8422C429.452 52.8422 427.525 52.1445 427.525 50.7493C427.525 50.2984 427.899 49.6561 428.648 48.8223C429.388 47.9801 429.809 47.3718 429.911 46.9974C430.014 46.6231 430.065 44.7982 430.065 41.5228C430.065 38.2559 429.848 35.9971 429.414 34.7465C429.295 34.4317 428.967 33.8447 428.431 32.9854C427.895 32.1347 427.627 31.4838 427.627 31.0329C427.627 30.4034 428.159 29.9312 429.222 29.6164C431.111 29.0464 432.796 28.7614 434.276 28.7614C434.761 28.7614 435.344 29.1145 436.024 29.8206C436.705 30.5267 437.134 30.8798 437.313 30.8798L438.117 30.4331C439.095 29.8716 439.725 29.5228 440.006 29.3867C441.537 28.6891 442.983 28.3403 444.345 28.3403C445.706 28.3403 446.718 28.4892 447.382 28.7869C448.045 29.0847 448.769 29.5186 449.551 30.0886C450.334 30.6501 450.921 30.9308 451.312 30.9308C451.704 30.9308 452.78 30.5225 454.541 29.7057C456.302 28.8975 457.948 28.4934 459.48 28.4934C462.236 28.4934 464.261 29.7143 465.554 32.1559C466.422 33.7469 466.856 37.9581 466.856 44.7897C466.856 46.5168 466.949 47.576 467.136 47.9673C467.332 48.3587 467.813 48.8266 468.579 49.3711C469.353 49.907 469.74 50.2984 469.74 50.5451Z" fill="#2D2D2D"/>
<g clip-path="url(#clip1_6_40)">
<g clip-path="url(#clip2_6_40)">
<path d="M3.65855 64.81L0 61.2355C23.9688 37.8178 62.9681 37.8178 86.9363 61.2355L83.2778 64.81C61.3265 43.3633 25.6098 43.3633 3.65855 64.81Z" fill="#FFD200"/>
<path d="M10.5185 71.5122L6.85992 67.9378C27.0456 48.2161 59.8901 48.2161 80.0758 67.9378L76.4173 71.5122C58.2491 53.7611 28.6873 53.7617 10.5185 71.5122Z" fill="#FFD200"/>
<path d="M17.3789 78.2144L13.7204 74.64C30.1236 58.6139 56.8133 58.6139 73.2165 74.64L69.5579 78.2144C55.1716 64.1594 31.7647 64.1594 17.3789 78.2144Z" fill="#FFD200"/>
<path d="M24.2389 84.9167L20.5803 81.3422C33.201 69.0117 53.7359 69.0117 66.3565 81.3422L62.698 84.9167C52.0942 74.5572 34.8421 74.5578 24.2389 84.9167Z" fill="#FFD200"/>
<path d="M20.6651 81.4255L24.3236 85C48.2924 61.5822 48.2924 23.4794 24.3236 0.0622039L20.6651 3.63665C42.6164 25.0833 42.6164 59.9789 20.6651 81.4255Z" fill="#24AE3C"/>
<path d="M13.8051 74.7233L17.4637 78.2978C37.6494 58.5761 37.6494 26.4867 17.4637 6.76499L13.8051 10.3394C31.9739 28.09 31.9734 56.9722 13.8051 74.7233Z" fill="#24AE3C"/>
<path d="M6.94522 68.0205L10.6038 71.595C27.007 55.5689 27.007 29.4928 10.6038 13.4667L6.94522 17.0411C21.3309 31.0967 21.3309 53.9655 6.94522 68.0205Z" fill="#24AE3C"/>
<path d="M0.0852966 61.3183L3.74385 64.8928C16.3645 52.5622 16.3645 32.4994 3.74385 20.1689L0.0852966 23.7433C10.6885 34.1033 10.6879 50.9589 0.0852966 61.3183Z" fill="#24AE3C"/>
<g opacity="0.66">
<path d="M20.6651 81.4255L24.3236 85C48.2924 61.5822 48.2924 23.4794 24.3236 0.0622039L20.6651 3.63665C42.6164 25.0833 42.6164 59.9789 20.6651 81.4255Z" fill="#FFD200"/>
<path d="M13.8051 74.7233L17.4637 78.2978C37.6494 58.5761 37.6494 26.4867 17.4637 6.76499L13.8051 10.3394C31.9739 28.09 31.9734 56.9722 13.8051 74.7233Z" fill="#FFD200"/>
<path d="M6.94522 68.0205L10.6038 71.595C27.007 55.5689 27.007 29.4928 10.6038 13.4667L6.94522 17.0411C21.3309 31.0967 21.3309 53.9655 6.94522 68.0205Z" fill="#FFD200"/>
<path d="M0.0852966 61.3183L3.74385 64.8928C16.3645 52.5622 16.3645 32.4994 3.74385 20.1689L0.0852966 23.7433C10.6885 34.1033 10.6879 50.9589 0.0852966 61.3183Z" fill="#FFD200"/>
</g>
<path d="M83.3414 20.19L87 23.7644C63.0312 47.1822 24.0319 47.1822 0.0636902 23.7644L3.72224 20.19C25.6735 41.6367 61.3902 41.6367 83.3414 20.19Z" fill="#24AE3C"/>
<path d="M76.4815 13.4878L80.1401 17.0622C59.9544 36.7839 27.1099 36.7839 6.92416 17.0622L10.5827 13.4878C28.7509 31.2389 58.3127 31.2383 76.4815 13.4878Z" fill="#24AE3C"/>
<path d="M69.621 6.78554L73.2796 10.36C56.8764 26.3861 30.1867 26.3861 13.7835 10.36L17.4421 6.78554C31.8284 20.8405 55.2353 20.8405 69.621 6.78554Z" fill="#24AE3C"/>
<path d="M62.7611 0.0833244L66.4196 3.65777C53.799 15.9883 33.2641 15.9883 20.6434 3.65777L24.302 0.0833244C34.9057 10.4428 52.1579 10.4422 62.7611 0.0833244Z" fill="#24AE3C"/>
<g opacity="0.33">
<path d="M83.3414 20.19L87 23.7644C63.0312 47.1822 24.0319 47.1822 0.0636902 23.7644L3.72224 20.19C25.6735 41.6367 61.3902 41.6367 83.3414 20.19Z" fill="#FFD200"/>
<path d="M76.4815 13.4878L80.1401 17.0622C59.9544 36.7839 27.1099 36.7839 6.92416 17.0622L10.5827 13.4878C28.7509 31.2389 58.3127 31.2383 76.4815 13.4878Z" fill="#FFD200"/>
<path d="M69.621 6.78554L73.2796 10.36C56.8764 26.3861 30.1867 26.3861 13.7835 10.36L17.4421 6.78554C31.8284 20.8405 55.2353 20.8405 69.621 6.78554Z" fill="#FFD200"/>
<path d="M62.7611 0.0833244L66.4197 3.65777C53.799 15.9883 33.2641 15.9883 20.6435 3.65777L24.302 0.0833244C34.9058 10.4428 52.1579 10.4422 62.7611 0.0833244Z" fill="#FFD200"/>
</g>
<path d="M66.3349 3.57444L62.6764 -7.62939e-06C38.7076 23.4178 38.7076 61.5205 62.6764 84.9378L66.3349 81.3633C44.3836 59.9167 44.3836 25.0211 66.3349 3.57444Z" fill="#24AE3C"/>
<path d="M73.1949 10.2767L69.5363 6.70221C49.3506 26.4239 49.3506 58.5133 69.5363 78.235L73.1949 74.6606C55.0261 56.91 55.0267 28.0278 73.1949 10.2767Z" fill="#24AE3C"/>
<path d="M80.0548 16.9794L76.3962 13.405C59.993 29.4311 59.993 55.5072 76.3962 71.5333L80.0548 67.9589C65.6691 53.9033 65.6691 31.0344 80.0548 16.9794Z" fill="#24AE3C"/>
<path d="M86.9147 23.6817L83.2562 20.1072C70.6355 32.4378 70.6355 52.5005 83.2562 64.8311L86.9147 61.2566C76.3115 50.8966 76.3121 34.0411 86.9147 23.6817Z" fill="#24AE3C"/>
<path d="M66.203 47.9072C59.3142 45.2428 51.9905 43.8127 44.5827 43.6856C44.6174 45.3794 44.7265 47.0722 44.9068 48.7589C52.2468 48.9366 59.4807 50.5127 66.2025 53.3989C72.5702 56.1332 78.3606 60.003 83.2772 64.81L86.9357 61.2356C80.8344 55.2733 73.7572 50.8333 66.203 47.9072Z" fill="#FFD200"/>
<path d="M45.5522 53.195C45.8695 54.9172 46.2613 56.6283 46.7332 58.3233C53.5699 58.7834 60.2181 60.7131 66.203 63.9744C69.9476 66.0146 73.3851 68.5513 76.4179 71.5122L80.0764 67.9378C76.033 63.9863 71.3444 60.7202 66.203 58.2733C59.7536 55.2017 52.7215 53.4724 45.5522 53.195Z" fill="#FFD200"/>
<path d="M48.2105 62.8905C48.8923 64.7415 49.6673 66.5583 50.5328 68.3344C56.25 69.4152 61.6216 71.8108 66.203 75.3228C67.3797 76.2198 68.5 77.1853 69.5579 78.2139L73.2164 74.6394C71.0872 72.5613 68.736 70.7124 66.203 69.1244C60.6839 65.66 54.5137 63.5839 48.2105 62.8905Z" fill="#FFD200"/>
<path d="M61.161 83.5367C61.667 83.9582 62.1571 84.3976 62.6303 84.8539L66.203 81.3633V81.2C62.6211 77.7394 58.2572 75.1493 53.4629 73.6383C55.6703 77.1899 58.2503 80.5072 61.161 83.5367Z" fill="#FFD200"/>
</g>
</g>
<defs>
<clipPath id="clip0_6_40">
<rect width="279.9" height="19.1444" fill="white" transform="translate(126 63)"/>
</clipPath>
<clipPath id="clip1_6_40">
<rect width="87" height="85" fill="white"/>
</clipPath>
<clipPath id="clip2_6_40">
<rect width="87" height="85" fill="white"/>
</clipPath>
</defs>
</svg>
