<svg width="383" height="148" viewBox="0 0 383 148" fill="none" xmlns="http://www.w3.org/2000/svg">
<path d="M75.7576 140.957V147.791H73.8972V140.957L67.0014 130.522H69.2587L74.815 138.922L80.3713 130.522H82.6285L75.7576 140.957ZM90.07 134.539C91.9221 134.539 93.427 135.191 94.5845 136.496C95.6759 137.748 96.2216 139.339 96.2216 141.27C96.2216 143.2 95.6759 144.791 94.5845 146.043C93.427 147.348 91.9221 148 90.07 148C88.2179 148 86.7131 147.348 85.5555 146.043C84.4641 144.791 83.9184 143.2 83.9184 141.27C83.9184 139.339 84.4641 137.748 85.5555 136.496C86.7131 135.191 88.2179 134.539 90.07 134.539ZM90.07 146.226C91.4095 146.226 92.4678 145.739 93.2451 144.765C93.9892 143.843 94.3613 142.678 94.3613 141.27C94.3613 139.861 93.9892 138.696 93.2451 137.774C92.4678 136.8 91.4095 136.313 90.07 136.313C88.7305 136.313 87.6722 136.8 86.895 137.774C86.1508 138.696 85.7788 139.861 85.7788 141.27C85.7788 142.678 86.1508 143.843 86.895 144.765C87.6722 145.739 88.7305 146.226 90.07 146.226ZM111.973 147.791H110.112V145.757C109.666 146.383 109.12 146.913 108.475 147.348C107.83 147.783 107.094 148 106.268 148C105.441 148 104.73 147.878 104.134 147.635C103.539 147.391 103.018 147.026 102.572 146.539C101.546 145.478 101.034 144.078 101.034 142.339V134.748H102.894V142.287C102.894 143.487 103.217 144.443 103.862 145.157C104.507 145.87 105.342 146.226 106.367 146.226C107.409 146.226 108.293 145.861 109.021 145.13C109.749 144.383 110.112 143.426 110.112 142.261V134.748H111.973V147.791ZM124.102 134.539H124.226V136.496H124.003C122.664 136.496 121.572 137.061 120.729 138.191C119.935 139.27 119.538 140.557 119.538 142.052V147.791H117.678V134.748H119.538V137.957C119.935 136.6 120.795 135.6 122.118 134.957C122.664 134.678 123.325 134.539 124.102 134.539ZM136.877 130.522H143.798C144.773 130.522 145.716 130.717 146.625 131.109C147.535 131.5 148.337 132.07 149.031 132.817C150.569 134.47 151.338 136.583 151.338 139.157C151.338 141.73 150.569 143.843 149.031 145.496C148.337 146.243 147.535 146.813 146.625 147.204C145.716 147.596 144.773 147.791 143.798 147.791H136.877V130.522ZM138.737 145.939H143.723C145.443 145.939 146.84 145.27 147.915 143.93C148.957 142.643 149.478 141.052 149.478 139.157C149.478 137.261 148.957 135.67 147.915 134.383C146.84 133.043 145.443 132.374 143.723 132.374H138.737V145.939ZM161.955 146.226C163.625 146.226 164.824 145.496 165.552 144.035H167.586C167.156 145.217 166.473 146.174 165.539 146.904C164.605 147.635 163.402 148 161.93 148C160.061 148 158.54 147.348 157.366 146.043C156.225 144.774 155.654 143.183 155.654 141.27C155.654 139.339 156.2 137.748 157.291 136.496C158.449 135.191 159.954 134.539 161.806 134.539C163.658 134.539 165.163 135.191 166.32 136.496C167.412 137.748 167.958 139.339 167.958 141.27V142.052H157.564C157.697 143.252 158.151 144.243 158.929 145.026C159.722 145.826 160.731 146.226 161.955 146.226ZM161.806 136.313C160.665 136.313 159.706 136.687 158.929 137.435C158.201 138.148 157.754 139.078 157.589 140.226H166.023C165.857 139.078 165.411 138.148 164.683 137.435C163.906 136.687 162.947 136.313 161.806 136.313ZM180.98 134.748H183.014L178.177 147.791H175.994L171.133 134.748H173.167L177.086 145.704L180.98 134.748ZM187.231 147.791V134.748H189.091V147.791H187.231ZM187.157 130H189.166V132.557H187.157V130ZM200.526 146.226C201.32 146.226 202.023 145.991 202.635 145.522C203.247 145.052 203.693 144.443 203.974 143.696H205.984C205.603 144.983 204.909 146.017 203.9 146.8C202.842 147.6 201.585 148 200.13 148C198.311 148 196.831 147.348 195.69 146.043C194.582 144.774 194.028 143.183 194.028 141.27C194.028 139.357 194.582 137.765 195.69 136.496C196.831 135.191 198.311 134.539 200.13 134.539C201.585 134.539 202.842 134.939 203.9 135.739C204.909 136.522 205.603 137.557 205.984 138.843H203.974C203.693 138.096 203.247 137.487 202.635 137.017C202.023 136.548 201.32 136.313 200.526 136.313C199.733 136.313 199.059 136.443 198.505 136.704C197.951 136.965 197.484 137.322 197.103 137.774C196.293 138.713 195.888 139.878 195.888 141.27C195.888 142.661 196.293 143.826 197.103 144.765C197.93 145.739 199.071 146.226 200.526 146.226ZM216.302 146.226C217.973 146.226 219.172 145.496 219.899 144.035H221.933C221.503 145.217 220.821 146.174 219.887 146.904C218.952 147.635 217.749 148 216.278 148C214.409 148 212.888 147.348 211.714 146.043C210.573 144.774 210.002 143.183 210.002 141.27C210.002 139.339 210.548 137.748 211.639 136.496C212.797 135.191 214.302 134.539 216.154 134.539C218.006 134.539 219.511 135.191 220.668 136.496C221.76 137.748 222.305 139.339 222.305 141.27V142.052H211.912C212.044 143.252 212.499 144.243 213.276 145.026C214.07 145.826 215.079 146.226 216.302 146.226ZM216.154 136.313C215.013 136.313 214.053 136.687 213.276 137.435C212.549 138.148 212.102 139.078 211.937 140.226H220.37C220.205 139.078 219.759 138.148 219.031 137.435C218.254 136.687 217.295 136.313 216.154 136.313ZM237.114 133.17C236.8 133.457 236.589 133.774 236.481 134.122C236.374 134.47 236.32 134.839 236.32 135.23C236.32 135.622 236.481 135.983 236.804 136.313C237.126 136.643 237.552 136.922 238.081 137.148C238.61 137.374 239.214 137.574 239.892 137.748C240.57 137.922 241.26 138.1 241.963 138.283C242.666 138.465 243.356 138.674 244.034 138.909C244.712 139.143 245.316 139.443 245.845 139.809C247.019 140.591 247.606 141.661 247.606 143.017C247.606 144.635 247.032 145.87 245.882 146.722C244.733 147.574 243.141 148 241.107 148C238.809 148 237.056 147.496 235.849 146.487C234.774 145.583 234.162 144.296 234.013 142.626H235.948C236.014 143.809 236.56 144.713 237.585 145.339C238.478 145.878 239.66 146.148 241.132 146.148C244.208 146.148 245.746 145.13 245.746 143.096C245.746 142.4 245.469 141.852 244.915 141.452C244.361 141.052 243.666 140.722 242.831 140.461C241.996 140.2 241.095 139.957 240.128 139.73C239.16 139.504 238.259 139.213 237.424 138.857C236.589 138.5 235.894 138.03 235.34 137.448C234.786 136.865 234.509 136.078 234.509 135.087C234.509 133.678 235.022 132.53 236.047 131.643C237.072 130.757 238.619 130.313 240.686 130.313C242.769 130.313 244.382 130.817 245.523 131.826C246.565 132.713 247.118 133.852 247.185 135.243H245.275C245.109 133.817 244.233 132.87 242.645 132.4C242.083 132.226 241.384 132.139 240.549 132.139C239.714 132.139 239.011 132.239 238.441 132.439C237.87 132.639 237.428 132.883 237.114 133.17ZM262.241 147.791V145.704C261.249 147.235 259.769 148 257.801 148C256.015 148 254.56 147.348 253.435 146.043C252.344 144.757 251.798 143.165 251.798 141.27C251.798 139.374 252.344 137.783 253.435 136.496C254.56 135.191 256.057 134.539 257.925 134.539C259.794 134.539 261.233 135.313 262.241 136.861V134.748H264.102V147.791H262.241ZM258.049 146.226C259.389 146.226 260.447 145.739 261.224 144.765C261.968 143.843 262.34 142.678 262.34 141.27C262.34 139.861 261.968 138.696 261.224 137.774C260.447 136.8 259.389 136.313 258.049 136.313C256.726 136.313 255.651 136.8 254.825 137.774C254.047 138.696 253.659 139.861 253.659 141.27C253.659 142.678 254.047 143.843 254.825 144.765C255.651 145.739 256.726 146.226 258.049 146.226ZM278.166 134.748H280.2L275.363 147.791H273.18L268.318 134.748H270.352L274.272 145.704L278.166 134.748ZM284.417 147.791V134.748H286.277V147.791H284.417ZM284.342 130H286.352V132.557H284.342V130ZM297.365 134.539C299.217 134.539 300.722 135.191 301.88 136.496C302.971 137.748 303.517 139.339 303.517 141.27C303.517 143.2 302.971 144.791 301.88 146.043C300.722 147.348 299.217 148 297.365 148C295.513 148 294.008 147.348 292.851 146.043C291.759 144.791 291.213 143.2 291.213 141.27C291.213 139.339 291.759 137.748 292.851 136.496C294.008 135.191 295.513 134.539 297.365 134.539ZM297.365 146.226C298.705 146.226 299.763 145.739 300.54 144.765C301.284 143.843 301.656 142.678 301.656 141.27C301.656 139.861 301.284 138.696 300.54 137.774C299.763 136.8 298.705 136.313 297.365 136.313C296.026 136.313 294.967 136.8 294.19 137.774C293.446 138.696 293.074 139.861 293.074 141.27C293.074 142.678 293.446 143.843 294.19 144.765C294.967 145.739 296.026 146.226 297.365 146.226ZM314.877 134.539H315.001V136.496H314.778C313.439 136.496 312.347 137.061 311.504 138.191C310.71 139.27 310.313 140.557 310.313 142.052V147.791H308.453V134.748H310.313V137.957C310.71 136.6 311.57 135.6 312.893 134.957C313.439 134.678 314.1 134.539 314.877 134.539Z" fill="#1105FF"/>
<g clip-path="url(#clip0_4_21)">
<path d="M220.834 15.7827C220.817 15.7268 220.804 15.6694 220.772 15.6175L212.522 2.109C211.87 1.04326 209.478 0.00124836 208.168 0.00124836H166C164.789 0.00124836 162.356 0.945831 161.645 2.1095L153.396 15.6175C153.364 15.6694 153.351 15.7263 153.335 15.7827C153.119 16.1885 153.004 16.6442 153.001 17.1081V67.3712C153.002 68.1183 153.288 68.8346 153.795 69.3629C154.302 69.8912 154.99 70.1883 155.708 70.1891H191.873C192.046 70.1891 192.212 70.1175 192.334 69.99C192.457 69.8626 192.525 69.6897 192.525 69.5094C192.525 69.3291 192.457 69.1562 192.334 69.0287C192.212 68.9012 192.046 68.8296 191.873 68.8296H155.708C155.337 68.8291 154.981 68.6753 154.718 68.4019C154.455 68.1285 154.308 67.7578 154.307 67.3712V17.1081C154.308 16.7214 154.455 16.3508 154.718 16.0774C154.981 15.804 155.337 15.6502 155.708 15.6497H218.46C218.831 15.6501 219.187 15.8038 219.45 16.0773C219.712 16.3507 219.86 16.7214 219.86 17.1081V38.9635C219.86 39.1439 219.929 39.3168 220.052 39.4444C220.174 39.5719 220.34 39.6435 220.514 39.6435C220.687 39.6435 220.853 39.5719 220.975 39.4444C221.098 39.3168 221.167 39.1439 221.167 38.9635V17.1081C221.166 16.6264 221.039 16.1798 220.834 15.7827ZM162.747 2.83846C163.118 2.23115 165.033 1.36075 166 1.36075H208.168C209.134 1.36075 211.049 2.23115 211.421 2.83846L218.415 14.2902H155.753L162.747 2.83846Z" fill="#FF6600"/>
<path d="M194.975 15.7431L192.597 0.570931C192.568 0.393336 192.473 0.234729 192.333 0.129546C192.192 0.0243619 192.018 -0.0189085 191.847 0.00912761H182.32C182.235 -0.00549007 182.148 -0.00253781 182.065 0.0178151C181.981 0.0381681 181.902 0.0755206 181.833 0.127726C181.763 0.179931 181.704 0.24596 181.659 0.32202C181.614 0.39808 181.583 0.48267 181.57 0.570931L179.192 15.7431C179.186 15.7792 179.184 15.8158 179.184 15.8524V26.2556C179.184 26.6315 179.476 26.9356 179.837 26.9356H194.33C194.691 26.9356 194.983 26.6315 194.983 26.2556V15.8529C194.983 15.8163 194.98 15.7797 194.975 15.7431Z" fill="#FF6600"/>
<path d="M206.559 74.825C206.51 74.825 206.461 74.8185 206.412 74.8057C199.328 72.8804 194.38 66.206 194.38 58.5737C194.38 49.3247 201.608 41.7997 210.492 41.7997C219.375 41.7997 226.603 49.3247 226.603 58.5737C226.603 58.7341 226.542 58.888 226.433 59.0014C226.324 59.1148 226.176 59.1785 226.022 59.1785C225.868 59.1785 225.72 59.1148 225.611 59.0014C225.502 58.888 225.441 58.7341 225.441 58.5737C225.441 49.9914 218.735 43.0089 210.492 43.0089C202.248 43.0089 195.542 49.9909 195.542 58.5737C195.542 65.6561 200.133 71.8498 206.705 73.6356C207.016 73.7201 207.202 74.05 207.121 74.3739C207.052 74.6445 206.817 74.825 206.559 74.825Z" fill="#FF6600"/>
<path d="M219.788 49.2599C219.734 49.2038 219.67 49.1592 219.6 49.1288C219.529 49.0984 219.454 49.0827 219.378 49.0827C219.301 49.0827 219.226 49.0984 219.155 49.1288C219.085 49.1592 219.021 49.2038 218.967 49.2599L211.883 56.6346C211.483 56.3177 210.994 56.1453 210.492 56.1435C209.776 56.1435 209.142 56.4877 208.714 57.0174L203.515 53.8923C203.382 53.8169 203.226 53.7986 203.08 53.8414C202.934 53.8842 202.81 53.9846 202.734 54.1213C202.659 54.258 202.637 54.4201 202.675 54.573C202.712 54.7259 202.805 54.8576 202.935 54.9398L208.203 58.1069C208.174 58.2582 208.158 58.4135 208.158 58.5732C208.159 59.2176 208.405 59.8354 208.842 60.2911C209.28 60.7468 209.873 61.0031 210.492 61.0039C211.111 61.0031 211.704 60.7468 212.142 60.2911C212.579 59.8354 212.826 59.2176 212.826 58.5732C212.826 58.2191 212.749 57.8843 212.618 57.5807L219.789 50.115C219.897 50.0015 219.958 49.8477 219.958 49.6874C219.958 49.5271 219.897 49.3734 219.788 49.2599Z" fill="#FF6600"/>
<path d="M228.412 71.0748L226.679 71.1015V63.2135C226.679 62.9489 226.514 62.715 226.271 62.6364C226.153 62.597 226.026 62.5983 225.909 62.6402C225.791 62.682 225.69 62.7623 225.62 62.8688L219.902 71.4586C219.778 71.6445 219.765 71.8874 219.867 72.0877C219.97 72.2879 220.18 72.4284 220.388 72.4076L225.517 72.329V75.3942C225.517 75.5546 225.578 75.7084 225.687 75.8219C225.796 75.9353 225.944 75.999 226.098 75.999C226.252 75.999 226.399 75.9353 226.508 75.8219C226.617 75.7084 226.679 75.5546 226.679 75.3942V72.3107L228.429 72.284C228.583 72.2815 228.73 72.2155 228.837 72.1004C228.944 71.9853 229.004 71.8306 229.001 71.6703C228.997 71.3374 228.718 71.0778 228.412 71.0748ZM225.517 71.1193L221.501 71.1812L225.517 65.1472V71.1193Z" fill="#FF6600"/>
<path d="M219.018 74.7899H213.088L216.492 71.2455L216.494 71.2435C218.057 69.7816 218.824 68.1001 218.65 66.5062C218.511 65.2372 217.767 64.1012 216.658 63.4672C215.342 62.7165 213.995 62.7581 212.863 63.5835C211.6 64.5053 210.817 66.3411 211.043 67.8549C211.067 68.0129 211.15 68.1546 211.274 68.2491C211.398 68.3437 211.553 68.3834 211.705 68.3598C211.857 68.3352 211.994 68.2486 212.085 68.1192C212.176 67.9897 212.214 67.828 212.191 67.6694C212.031 66.5982 212.62 65.2382 213.53 64.574C214.061 64.1863 214.937 63.8644 216.098 64.528C216.889 64.9791 217.399 65.7506 217.496 66.6432C217.627 67.845 216.988 69.1669 215.695 70.3671L211.275 74.9674C211.194 75.052 211.139 75.1598 211.116 75.2771C211.094 75.3945 211.105 75.5161 211.149 75.6267C211.193 75.7372 211.268 75.8317 211.363 75.8982C211.459 75.9646 211.571 76.0001 211.686 76H219.019C219.095 76 219.171 75.9843 219.241 75.9539C219.312 75.9234 219.376 75.8788 219.43 75.8226C219.484 75.7664 219.526 75.6997 219.556 75.6263C219.585 75.5528 219.6 75.4742 219.6 75.3947C219.6 75.3152 219.585 75.2366 219.555 75.1632C219.526 75.0898 219.483 75.0231 219.429 74.9669C219.375 74.9107 219.311 74.8662 219.241 74.8358C219.17 74.8054 219.095 74.7898 219.018 74.7899Z" fill="#FF6600"/>
</g>
<path d="M11.8681 114.75H12.2892C13.8036 114.75 14.9266 114.176 15.6582 113.028C16.1517 112.245 16.3984 110.492 16.3984 107.77V104.299C16.3984 101.432 16.1049 99.4707 15.5179 98.4157C14.9308 97.3608 13.7866 96.8333 12.085 96.8333H11.8681C10.3367 96.8333 9.04783 97.616 8.00139 99.1814C6.95496 100.755 6.43174 102.687 6.43174 104.975V106.596C6.43174 108.723 6.84011 110.467 7.65683 111.828C8.81387 113.776 10.2176 114.75 11.8681 114.75ZM15.4796 93.9875C16.2623 93.9875 16.6536 93.09 16.6536 91.2949C16.6536 88.3683 16.0198 86.3477 14.7522 85.2332C13.8078 84.425 13.3357 83.8848 13.3357 83.6125C13.3357 83.085 14.1184 82.5703 15.6837 82.0684C17.2406 81.5749 18.6614 81.3282 19.9461 81.3282C21.2222 81.3282 22.0559 81.4686 22.4473 81.7494C22.8386 82.0301 23.1024 82.6427 23.2385 83.587C23.3831 84.5398 23.4554 89.1467 23.4554 97.4076C23.4554 105.677 23.5448 110.348 23.7234 111.42C23.9106 112.492 24.2551 113.334 24.7571 113.946C24.7826 113.997 25.0974 114.24 25.7014 114.674C26.297 115.108 26.5947 115.465 26.5947 115.746V116.167C26.5947 116.414 26.4288 116.682 26.097 116.971C25.1017 117.796 22.9492 118.209 19.6398 118.209C18.7805 118.209 18.1169 117.911 17.649 117.315C17.1811 116.72 16.9301 116.422 16.8961 116.422C16.5813 116.439 16.0411 116.643 15.2754 117.035C13.4973 118.004 11.8553 118.489 10.3495 118.489C10.3155 118.489 10.2899 118.489 10.2729 118.489H9.62209C8.4055 118.489 7.20168 118.204 6.01061 117.634C3.53491 116.477 1.79085 114.487 0.778445 111.662C0.259482 110.199 0 108.727 0 107.247V106.57C0 106.519 0 106.477 0 106.443C0 104.537 0.340304 102.746 1.02091 101.07C2.96915 96.2293 6.52532 93.8089 11.6894 93.8089C12.9741 93.8089 13.7313 93.8174 13.961 93.8344L14.4842 93.8854C15.0457 93.9535 15.3775 93.9875 15.4796 93.9875ZM42.0743 96.5781H41.3469C40.3005 96.5781 39.3008 97.1226 38.348 98.2116C37.3951 99.3005 36.9187 100.602 36.9187 102.117V102.512C36.9187 103.125 37.259 103.431 37.9396 103.431L38.1821 103.482H39.9559L40.0835 103.456L44.2437 103.214C44.4905 103.163 44.6564 103.137 44.7414 103.137C45.5922 103.137 46.0176 102.695 46.0176 101.81V100.994C46.0176 99.8791 45.6177 98.8624 44.818 97.9436C44.0183 97.0333 43.1037 96.5781 42.0743 96.5781ZM37.2122 108.446C37.2122 110.105 37.9949 111.543 39.5603 112.76C40.7173 113.67 42.1934 114.125 43.9885 114.125C44.8052 114.125 46.0176 113.891 47.6255 113.423C49.2249 112.964 50.148 112.734 50.3947 112.734C51.1434 112.734 51.5177 113.138 51.5177 113.946C51.5177 114.916 50.5266 115.895 48.5443 116.881C46.5536 117.868 44.4947 118.362 42.3678 118.362H41.2703C41.2448 118.362 41.2065 118.362 41.1555 118.362C39.8113 118.362 38.4373 118.09 37.0336 117.545C34.2771 116.482 32.3203 114.618 31.1633 111.956C30.3636 110.126 29.9637 108.391 29.9637 106.749V105.6C29.9637 103.924 30.253 102.304 30.8315 100.738C31.929 97.7947 33.8645 95.6763 36.638 94.3831C38.3054 93.6175 40.0495 93.2346 41.8701 93.2346H42.4444C45.1583 93.2346 47.4426 94.0769 49.2973 95.7614C50.2841 96.6547 51.0371 97.7309 51.556 98.99C52.0835 100.258 52.3472 101.542 52.3472 102.844C52.3472 104.154 51.7049 105.013 50.4203 105.422C48.6252 106.009 45.3029 106.302 40.4536 106.302C39.1605 106.302 38.2969 106.464 37.863 106.787C37.4292 107.111 37.2122 107.664 37.2122 108.446ZM72.8037 94.9829C72.8037 94.2002 74.6839 93.8089 78.4443 93.8089C80.7498 93.8089 81.9026 94.2853 81.9026 95.2382C81.9026 95.8677 81.4134 96.6249 80.435 97.5097C79.4567 98.403 78.7165 99.3473 78.2146 100.343C78.1975 100.377 77.1256 102.984 74.9987 108.165C72.8718 113.321 71.5276 116.294 70.9661 117.086C70.3961 117.885 69.5453 118.285 68.4138 118.285C67.2908 118.285 66.4188 117.839 65.7977 116.945C65.1852 116.043 63.9005 113.168 61.9438 108.319C59.9785 103.469 58.7705 100.619 58.3196 99.7685C57.8772 98.9177 57.137 98.0584 56.0991 97.1906C55.0611 96.3144 54.5422 95.6635 54.5422 95.2382V94.7532C54.5422 94.1237 56.7499 93.8089 61.1653 93.8089L62.3904 93.7834C64.1175 93.7834 65.1979 93.894 65.6318 94.1152C66.0572 94.3278 66.2699 94.6724 66.2699 95.1488C66.2699 95.6167 66.1465 96.0719 65.8998 96.5143C65.6531 96.9567 65.5297 97.4671 65.5297 98.0457C65.5297 100.173 66.6357 103.72 68.8477 108.689C69.3071 109.718 69.6304 110.233 69.8176 110.233C69.9962 110.233 70.311 109.701 70.7619 108.638C72.8207 103.754 73.8502 100.381 73.8502 98.5178C73.8502 98.0074 73.6758 97.4033 73.327 96.7057C72.9781 96.0081 72.8037 95.4338 72.8037 94.9829ZM87.3134 86.1648V85.514C87.3134 84.5526 87.692 83.7359 88.4492 83.0638C89.2064 82.4002 90.0231 82.0684 90.8994 82.0684H91.7034C91.9501 82.1194 92.1542 82.145 92.3159 82.145C93.1156 82.145 93.826 82.5023 94.447 83.2169C95.0596 83.9316 95.3659 84.6122 95.3659 85.2587V85.9096C95.3318 86.0797 95.3148 86.2031 95.3148 86.2797C95.3148 86.9773 94.9235 87.6579 94.1408 88.3215C93.3581 88.9936 92.4946 89.3296 91.5502 89.3296H90.7718C89.8444 89.3296 89.0447 89.0319 88.3726 88.4363C87.7005 87.8493 87.3645 87.173 87.3645 86.4073L87.3134 86.1648ZM92.0479 117.941H89.6743C87.4708 117.941 86.1479 117.877 85.7055 117.749C85.2631 117.63 85.0419 117.273 85.0419 116.677C85.0419 116.09 85.4588 115.38 86.2925 114.546C87.1178 113.721 87.641 112.887 87.8622 112.045C88.0749 111.203 88.1812 109.016 88.1812 105.486C88.1812 101.955 88.0919 99.8748 87.9132 99.2452C87.726 98.6157 87.156 98.0712 86.2032 97.6118C85.2503 97.1524 84.7739 96.6036 84.7739 95.9656C84.7739 95.3275 85.2121 94.8596 86.0883 94.5618C88.0876 93.8982 90.2911 93.5664 92.6987 93.5664H93.0688C94.0302 93.5664 94.5874 93.9705 94.7406 94.7787C94.8256 95.2467 94.8682 98.0372 94.8682 103.15C94.8682 108.255 94.9788 111.245 95.2 112.121C95.4212 112.989 95.9997 113.917 96.9355 114.903C97.8628 115.882 98.3265 116.494 98.3265 116.741V117.035C98.3265 117.639 96.2336 117.941 92.0479 117.941ZM122.012 112.53C122.658 112.53 122.982 112.972 122.982 113.857C122.982 114.75 121.935 115.72 119.842 116.767C117.749 117.813 115.703 118.336 113.704 118.336H113.13C111.488 118.336 109.927 118.013 108.446 117.366C105.554 116.099 103.559 113.946 102.461 110.909C101.934 109.412 101.67 107.923 101.67 106.443V105.856C101.67 102.495 102.776 99.5855 104.988 97.1268C106.102 95.8932 107.451 94.9489 109.033 94.2938C110.624 93.6387 112.258 93.3112 113.934 93.3112C117.09 93.3112 119.523 93.7834 121.233 94.7277C122.246 95.2977 122.752 96.2208 122.752 97.4969C122.752 99.811 122.02 100.968 120.557 100.968C119.664 100.968 118.604 100.309 117.379 98.99C116.163 97.6798 114.874 97.0248 113.513 97.0248C111.862 97.0248 110.505 98.0457 109.442 100.087C108.846 101.253 108.54 103.091 108.523 105.6C108.523 105.634 108.523 105.668 108.523 105.703C108.523 108.11 109.148 110.097 110.399 111.662C111.658 113.236 113.257 114.023 115.197 114.023C116.278 114.023 117.605 113.776 119.179 113.283C120.753 112.781 121.697 112.53 122.012 112.53ZM138.601 96.5781H137.887C136.84 96.5781 135.836 97.1226 134.875 98.2116C133.922 99.3005 133.446 100.602 133.446 102.117V102.512C133.446 103.125 133.786 103.431 134.467 103.431L134.722 103.482H136.483L136.611 103.456L140.771 103.214C141.026 103.163 141.192 103.137 141.269 103.137C142.119 103.137 142.545 102.695 142.545 101.81V100.994C142.545 99.8791 142.145 98.8624 141.345 97.9436C140.554 97.0333 139.639 96.5781 138.601 96.5781ZM133.752 108.446C133.752 110.105 134.531 111.543 136.087 112.76C137.253 113.67 138.733 114.125 140.528 114.125C141.345 114.125 142.553 113.891 144.153 113.423C145.752 112.964 146.679 112.734 146.935 112.734C147.683 112.734 148.058 113.138 148.058 113.946C148.058 114.916 147.062 115.895 145.071 116.881C143.089 117.868 141.035 118.362 138.908 118.362H137.81C137.776 118.362 137.734 118.362 137.683 118.362C136.338 118.362 134.969 118.09 133.573 117.545C130.817 116.482 128.856 114.618 127.69 111.956C126.891 110.126 126.491 108.391 126.491 106.749V105.6C126.491 103.924 126.784 102.304 127.371 100.738C128.46 97.7947 130.396 95.6763 133.178 94.3831C134.837 93.6175 136.581 93.2346 138.41 93.2346H138.984C141.69 93.2346 143.974 94.0769 145.837 95.7614C146.816 96.6547 147.568 97.7309 148.096 98.99C148.615 100.258 148.874 101.542 148.874 102.844C148.874 104.154 148.236 105.013 146.96 105.422C145.165 106.009 141.839 106.302 136.981 106.302C135.688 106.302 134.824 106.464 134.39 106.787C133.965 107.111 133.752 107.664 133.752 108.446ZM169.535 94.3576C170.284 94.7915 170.658 95.7061 170.658 97.1013C170.658 98.4966 170.56 99.4196 170.365 99.8705C170.16 100.321 169.769 100.547 169.191 100.547C168.263 100.547 167.264 99.8705 166.192 98.5178C165.12 97.1736 163.767 96.5015 162.133 96.5015C161.206 96.5015 160.466 96.744 159.913 97.2289C159.368 97.7054 159.096 98.2371 159.096 98.8241C159.096 99.8195 159.577 100.649 160.538 101.313C161.006 101.627 162.499 102.312 165.018 103.367C167.536 104.422 169.339 105.511 170.428 106.634C171.517 107.757 172.062 109.28 172.062 111.203C172.062 113.134 171.237 114.814 169.586 116.243C167.944 117.673 165.834 118.387 163.256 118.387H161.942C158.718 118.387 156.297 118.004 154.681 117.239C153.549 116.711 152.984 115.448 152.984 113.449C152.984 111.458 153.358 110.463 154.107 110.463C155.059 110.463 156.238 111.237 157.641 112.785C159.045 114.325 160.568 115.095 162.21 115.095C163.205 115.095 164.048 114.882 164.737 114.457C165.426 114.04 165.77 113.376 165.77 112.466C165.77 111.564 165.29 110.756 164.328 110.041C163.818 109.659 162.427 108.978 160.155 108C157.884 107.03 156.267 106.09 155.306 105.179C153.86 103.818 153.137 102.142 153.137 100.151C153.137 98.169 153.983 96.5271 155.676 95.2254C157.378 93.9152 159.356 93.2601 161.61 93.2601H162.287C165.843 93.2601 168.259 93.626 169.535 94.3576ZM189.902 107.642C189.902 106.894 189.668 106.519 189.2 106.519H188.562C188.145 106.604 187.826 106.647 187.605 106.647C186.099 106.647 184.827 107.089 183.79 107.974C182.76 108.85 182.245 109.846 182.245 110.96V111.534C182.245 112.377 182.513 113.108 183.049 113.729C183.577 114.342 184.223 114.648 184.989 114.648H185.793C186.891 114.648 187.826 114.308 188.601 113.627C189.383 112.947 189.775 112.283 189.775 111.637C189.843 111.305 189.877 111.088 189.877 110.986L189.928 110.59V109.518L189.953 109.11V108.012C189.919 107.851 189.902 107.727 189.902 107.642ZM200.022 115.542V115.924C200.022 116.486 199.397 117.013 198.146 117.507C196.904 117.992 195.428 118.234 193.718 118.234C192.671 118.234 191.765 117.762 191 116.818C190.583 116.282 190.26 116.014 190.03 116.014C189.792 115.997 189.392 116.188 188.83 116.588C186.933 117.89 184.891 118.54 182.705 118.54C182.688 118.54 182.671 118.549 182.654 118.566C180.493 118.566 178.762 118.009 177.46 116.894C176.167 115.78 175.512 114.219 175.495 112.211C175.495 107.889 178.817 105.171 185.461 104.056C187.061 103.81 188.018 103.618 188.333 103.482C189.294 103.082 189.775 102.193 189.775 100.815C189.775 99.4367 189.464 98.4455 188.843 97.8415C188.222 97.2289 187.495 96.9227 186.661 96.9227C185.351 96.9227 184.164 97.6245 183.1 99.0283C182.037 100.432 180.799 101.134 179.387 101.134C178.553 101.134 177.924 100.908 177.498 100.458C177.073 99.9982 176.86 99.526 176.86 99.0411C176.86 97.5777 177.626 96.4165 179.157 95.5572C181.701 94.1279 184.394 93.4133 187.235 93.4133H188.537C189.966 93.4133 191.332 93.7153 192.633 94.3193C193.935 94.9319 194.943 95.8592 195.658 97.1013C196.372 98.3434 196.73 101.125 196.73 105.447C196.73 109.769 196.866 112.258 197.138 112.913C197.419 113.568 197.967 114.053 198.784 114.367C199.609 114.674 200.022 115.065 200.022 115.542ZM204.004 97.1524C203.28 96.6504 202.919 96.1655 202.919 95.6976C202.919 95.2211 203.357 94.749 204.233 94.2811C205.118 93.8216 205.667 93.4473 205.88 93.158C206.092 92.8773 206.437 92.0989 206.913 90.8227C207.39 89.5381 207.892 88.5512 208.419 87.8621C208.955 87.1729 209.653 86.8284 210.512 86.8284C211.38 86.8284 212.005 87.1772 212.388 87.8748C212.549 88.1896 212.766 88.9383 213.039 90.1208C213.319 91.3034 213.651 92.0606 214.034 92.3924C214.417 92.7242 215.144 93.0942 216.216 93.5026C217.297 93.911 217.854 94.1237 217.888 94.1407C218.458 94.5831 218.743 95.1148 218.743 95.7359C218.743 96.2633 217.956 96.7355 216.382 97.1524C214.817 97.5692 213.813 98.1988 213.37 99.0411C212.928 99.8918 212.707 102.01 212.707 105.396C212.707 108.791 212.971 110.994 213.498 112.007C214.017 113.019 214.876 113.525 216.076 113.525L216.969 113.449C217.369 113.415 217.803 113.398 218.271 113.398C219.283 113.398 219.789 113.78 219.789 114.546C219.789 115.525 219.173 116.307 217.939 116.894C216.178 117.719 214.319 118.132 212.362 118.132C211.443 118.132 210.529 117.885 209.619 117.392C208.7 116.89 208.002 116.282 207.526 115.567C206.581 114.172 206.109 112.181 206.109 109.595L206.084 109.059C206.067 108.701 206.058 108.297 206.058 107.846V106.379C206.058 103.503 205.824 101.049 205.356 99.0155C205.186 98.2669 204.735 97.6458 204.004 97.1524ZM251.565 116.243C251.565 117.026 251.008 117.537 249.894 117.775C248.779 118.013 247.192 118.132 245.134 118.132C243.075 118.132 241.739 118 241.126 117.737C240.505 117.473 240.195 117.026 240.195 116.397C240.195 116.124 240.412 115.584 240.846 114.776C241.28 113.959 241.577 113.274 241.739 112.721C241.909 112.16 241.994 110.143 241.994 106.672C241.994 103.201 241.705 100.853 241.126 99.6281C240.539 98.4115 239.438 97.8032 237.821 97.8032C236.196 97.8032 234.958 98.3477 234.108 99.4367C233.248 100.526 232.819 102.504 232.819 105.371C232.819 106.324 232.938 107.787 233.176 109.761C233.406 111.743 233.738 113.249 234.172 114.278C234.605 115.308 234.822 115.873 234.822 115.975C234.822 116.716 234.371 117.188 233.47 117.392C232.159 117.673 230.177 117.813 227.523 117.813C224.877 117.813 223.554 117.405 223.554 116.588C223.554 116.009 223.941 115.18 224.715 114.1C225.481 113.019 225.919 112.079 226.03 111.279C226.14 110.488 226.196 106.502 226.196 99.3218C226.196 92.1414 226.081 88.113 225.851 87.2368C225.63 86.352 225.268 85.6841 224.766 85.2332C223.592 84.1698 223.005 83.5742 223.005 83.4466C223.005 82.766 223.363 82.2726 224.077 81.9663C225.6 81.3197 227.625 80.9964 230.152 80.9964C231.368 80.9964 232.151 81.4388 232.5 82.3236C232.712 82.8681 232.819 84.9993 232.819 88.7171C232.819 92.4264 232.853 94.4002 232.921 94.6384C233.091 95.2169 233.431 95.5061 233.942 95.5061C234.163 95.5061 234.635 95.3402 235.358 95.0085C237.392 94.0811 239.238 93.6175 240.897 93.6175C243.908 93.6175 246.035 94.8043 247.277 97.1779C248.179 98.8879 248.63 101.81 248.63 105.945C248.63 110.088 248.745 112.432 248.975 112.977C249.204 113.529 249.694 114.163 250.442 114.878C251.191 115.593 251.565 116.048 251.565 116.243ZM257.691 86.1648V85.514C257.691 84.5526 258.069 83.7359 258.827 83.0638C259.584 82.4002 260.405 82.0684 261.289 82.0684H262.081C262.336 82.1194 262.544 82.145 262.706 82.145C263.506 82.145 264.212 82.5023 264.824 83.2169C265.437 83.9316 265.743 84.6122 265.743 85.2587V85.9096C265.709 86.0797 265.692 86.2031 265.692 86.2797C265.692 86.9773 265.305 87.6579 264.531 88.3215C263.748 88.9936 262.885 89.3296 261.94 89.3296H261.162C260.235 89.3296 259.431 89.0319 258.75 88.4363C258.078 87.8493 257.742 87.173 257.742 86.4073L257.691 86.1648ZM262.438 117.941H260.064C257.852 117.941 256.525 117.877 256.083 117.749C255.649 117.63 255.432 117.273 255.432 116.677C255.432 116.09 255.845 115.38 256.67 114.546C257.504 113.721 258.027 112.887 258.239 112.045C258.461 111.203 258.571 109.016 258.571 105.486C258.571 101.955 258.478 99.8748 258.291 99.2452C258.112 98.6157 257.546 98.0712 256.593 97.6118C255.632 97.1524 255.151 96.6036 255.151 95.9656C255.151 95.3275 255.594 94.8596 256.478 94.5618C258.469 93.8982 260.668 93.5664 263.076 93.5664H263.459C264.42 93.5664 264.978 93.9705 265.131 94.7787C265.207 95.2467 265.246 98.0372 265.246 103.15C265.246 108.255 265.36 111.245 265.59 112.121C265.811 112.989 266.386 113.917 267.313 114.903C268.249 115.882 268.717 116.494 268.717 116.741V117.035C268.717 117.639 266.624 117.941 262.438 117.941ZM277.382 110.59H277.79C278.768 110.59 279.67 110.952 280.495 111.675C281.312 112.398 281.72 113.304 281.72 114.393V114.648C281.72 115.644 281.329 116.537 280.546 117.328C279.755 118.119 278.794 118.515 277.662 118.515H277.382L277.241 118.489C276.127 118.489 275.191 118.111 274.434 117.354C273.677 116.596 273.298 115.72 273.298 114.725V114.444C273.298 113.466 273.698 112.577 274.498 111.777C275.297 110.986 276.259 110.59 277.382 110.59ZM306.771 112.53C307.418 112.53 307.741 112.972 307.741 113.857C307.741 114.75 306.694 115.72 304.602 116.767C302.509 117.813 300.467 118.336 298.476 118.336H297.902C296.26 118.336 294.699 118.013 293.218 117.366C290.326 116.099 288.331 113.946 287.233 110.909C286.697 109.412 286.429 107.923 286.429 106.443V105.856C286.429 102.495 287.535 99.5855 289.747 97.1268C290.862 95.8932 292.215 94.9489 293.806 94.2938C295.388 93.6387 297.017 93.3112 298.693 93.3112C301.849 93.3112 304.287 93.7834 306.005 94.7277C307.018 95.2977 307.524 96.2208 307.524 97.4969C307.524 99.811 306.792 100.968 305.329 100.968C304.427 100.968 303.368 100.309 302.151 98.99C300.926 97.6798 299.633 97.0248 298.272 97.0248C296.63 97.0248 295.277 98.0457 294.214 100.087C293.61 101.253 293.304 103.091 293.295 105.6C293.295 105.634 293.295 105.668 293.295 105.703C293.295 108.11 293.916 110.097 295.158 111.662C296.417 113.236 298.021 114.023 299.969 114.023C301.05 114.023 302.373 113.776 303.938 113.283C305.512 112.781 306.456 112.53 306.771 112.53ZM323.501 96.476H323.029C321.6 96.476 320.43 97.2842 319.52 98.9007C318.618 100.509 318.167 102.436 318.167 104.682V106.073C318.167 108.599 318.69 110.735 319.737 112.479C320.783 114.223 322.038 115.095 323.501 115.095H323.973C325.25 115.095 326.368 114.444 327.33 113.142C328.283 111.841 328.759 110.101 328.759 107.923L328.81 107.4L328.835 106.353V106.073L328.81 105.805V105.281C328.776 104.916 328.759 104.648 328.759 104.477C328.759 102.265 328.236 100.381 327.189 98.8241C326.143 97.2587 324.914 96.476 323.501 96.476ZM323.527 93.158H324.765C326.245 93.158 327.768 93.5069 329.333 94.2045C332.302 95.5402 334.344 97.7011 335.459 100.687C336.029 102.236 336.314 103.814 336.314 105.422V105.868C336.314 107.604 335.965 109.301 335.267 110.96C334.57 112.619 333.63 113.997 332.447 115.095C329.988 117.324 327.164 118.438 323.973 118.438C323.727 118.438 323.476 118.43 323.22 118.413C321.63 118.413 320.064 118.094 318.524 117.456C316.984 116.818 315.725 115.967 314.747 114.903C312.637 112.572 311.582 109.654 311.582 106.149V105.728L311.608 105.307C311.625 103.759 311.914 102.227 312.475 100.713C313.573 97.8202 315.585 95.6848 318.512 94.3066C320.154 93.5409 321.825 93.158 323.527 93.158ZM382.74 115.542C382.74 117.09 380.54 117.864 376.142 117.864C374.696 117.864 373.696 117.694 373.143 117.354C372.599 117.013 372.326 116.418 372.326 115.567L372.645 113.972C372.96 112.296 373.118 109.744 373.118 106.315C373.118 102.878 372.828 100.602 372.25 99.4877C371.671 98.3647 370.527 97.8032 368.817 97.8032C368.23 97.8032 367.596 98.0286 366.916 98.4796C366.235 98.939 365.724 99.56 365.384 100.343C365.044 101.125 364.874 103.142 364.874 106.392C364.874 109.633 364.967 111.564 365.154 112.185C365.35 112.798 365.78 113.538 366.443 114.406C367.107 115.282 367.439 115.967 367.439 116.46C367.439 116.945 367.12 117.298 366.482 117.52C365.844 117.732 364.159 117.839 361.428 117.839C358.706 117.839 357.132 117.698 356.706 117.417C356.281 117.137 356.068 116.622 356.068 115.873C356.068 115.618 356.349 115.129 356.911 114.406C357.464 113.683 357.821 113.023 357.983 112.428C358.136 111.832 358.212 109.914 358.212 106.672C358.212 103.431 357.949 101.181 357.421 99.9216C356.885 98.654 355.911 98.0201 354.499 98.0201C353.086 98.0201 351.891 98.671 350.913 99.9726C350.232 100.866 349.892 102.112 349.892 103.712C349.892 105.303 349.968 107.162 350.122 109.288C350.266 111.415 350.432 112.913 350.619 113.78C350.798 114.64 350.887 115.371 350.887 115.975C350.887 116.571 350.623 117.03 350.096 117.354C349.56 117.677 348.297 117.839 346.306 117.839C342.452 117.839 340.525 117.141 340.525 115.746C340.525 115.295 340.899 114.653 341.648 113.819C342.388 112.977 342.809 112.368 342.911 111.994C343.013 111.62 343.064 109.795 343.064 106.519C343.064 103.252 342.848 100.994 342.414 99.7429C342.295 99.4281 341.967 98.8411 341.431 97.9819C340.895 97.1311 340.627 96.4803 340.627 96.0294C340.627 95.3998 341.159 94.9276 342.222 94.6128C344.111 94.0428 345.795 93.7578 347.276 93.7578C347.761 93.7578 348.343 94.1109 349.024 94.817C349.705 95.5232 350.134 95.8762 350.313 95.8762L351.117 95.4296C352.095 94.8681 352.725 94.5193 353.006 94.3831C354.537 93.6855 355.983 93.3367 357.344 93.3367C358.706 93.3367 359.718 93.4856 360.382 93.7834C361.045 94.0811 361.768 94.515 362.551 95.085C363.334 95.6465 363.921 95.9273 364.312 95.9273C364.704 95.9273 365.78 95.5189 367.541 94.7022C369.302 93.894 370.948 93.4898 372.479 93.4898C375.236 93.4898 377.261 94.7107 378.554 97.1524C379.422 98.7433 379.856 102.955 379.856 109.786C379.856 111.513 379.949 112.572 380.136 112.964C380.332 113.355 380.813 113.823 381.578 114.367C382.353 114.903 382.74 115.295 382.74 115.542Z" fill="black"/>
<defs>
<clipPath id="clip0_4_21">
<rect width="76" height="76" fill="white" transform="translate(153.001)"/>
</clipPath>
</defs>
</svg>
