<svg xmlns="http://www.w3.org/2000/svg" xmlns:xlink="http://www.w3.org/1999/xlink" xmlns:serif="http://www.serif.com/" viewBox="0 0 32 40" version="1.1" xml:space="preserve" style="" x="0px" y="0px" fill-rule="evenodd" clip-rule="evenodd" stroke-linejoin="round" stroke-miterlimit="2"><path d="M1.461,7.05C0.015,8.496 -0.342,10.626 0.321,13.143C1.193,16.454 3.874,20.516 7.679,24.321C11.484,28.126 15.546,30.807 18.857,31.679C21.374,32.342 23.504,31.985 24.95,30.539C24.95,30.539 27.714,27.775 27.714,27.775C28.095,27.394 28.095,26.775 27.714,26.394L21.818,20.498C21.437,20.117 20.818,20.117 20.437,20.498L17.964,22.971C16.187,22.218 14.272,20.919 12.676,19.324C11.081,17.728 9.782,15.813 9.029,14.036L11.502,11.563C11.883,11.182 11.883,10.563 11.502,10.182L5.606,4.286C5.225,3.905 4.606,3.905 4.225,4.286L1.461,7.05ZM14.466,7.089C17.139,7.088 19.813,8.108 21.853,10.147C23.893,12.188 24.912,14.862 24.912,17.535C24.912,18.087 25.36,18.535 25.912,18.535C26.464,18.535 26.912,18.087 26.912,17.535C26.912,14.35 25.697,11.164 23.267,8.733C20.837,6.303 17.651,5.088 14.465,5.089C13.913,5.089 13.465,5.537 13.465,6.089C13.465,6.641 13.914,7.089 14.466,7.089ZM14.466,12.177C15.838,12.176 17.209,12.7 18.255,13.746C19.302,14.792 19.825,16.163 19.825,17.535C19.825,18.087 20.272,18.535 20.824,18.535C21.376,18.536 21.825,18.088 21.825,17.536C21.826,15.652 21.107,13.769 19.669,12.332C18.233,10.895 16.349,10.176 14.465,10.177C13.913,10.177 13.465,10.625 13.465,11.177C13.466,11.729 13.914,12.177 14.466,12.177ZM14.465,2C18.441,2.001 22.417,3.517 25.45,6.55C28.483,9.583 30,13.559 30,17.535C30,18.087 30.448,18.535 31,18.535C31.552,18.535 32,18.087 32,17.535C32,13.047 30.288,8.559 26.864,5.136C23.441,1.712 18.953,0.001 14.465,-0C13.914,-0 13.465,0.448 13.465,1C13.465,1.552 13.913,2 14.465,2Z" fill="#f9b601"/></svg>