<svg xmlns:xlink="http://www.w3.org/1999/xlink" xmlns="http://www.w3.org/2000/svg" width="98.6406" height="100" x="506.1797" y="220.5" version="1.1" preserveAspectRatio="none" viewBox="14.399181365966797 13.897613525390625 71.21099853515625 72.19229888916016">
  <g transform="matrix(1 0 0 1 0 0)" class="aa9Ss0Q8kw3colors-00ee107ec-4a7e-4e9c-92a3-1cf97b08695a" fill="#24AE3C"><path d="m16.309 83.629c-0.16016 0.67969 0.039062 1.3984 0.55078 1.8906 0.37891 0.37109 0.87891 0.57031 1.3984 0.57031 0.17188 0 0.33984-0.019532 0.5-0.058594l16.27-4.2305c4.7109 2.1914 9.7383 3.3008 14.98 3.3008 19.629 0 35.602-15.969 35.602-35.602 0-19.629-15.98-35.602-35.609-35.602s-35.602 15.973-35.602 35.602c0 6.7812 1.8984 13.34 5.5117 19.031zm17.871-49.98 2.5781-2.4492c0.98047-0.92969 2.5312-0.89062 3.4609 0.089843l5.8086 6.1211c0.92969 0.98047 0.89062 2.5312-0.089844 3.4609l-2.5391 2.4219s-3.3594 2.0195 3.6797 8.8203l0.28906 0.30859c6.4297 7.3789 8.6211 4.1289 8.6211 4.1289l2.5391-2.4219c0.98047-0.92969 2.5312-0.89062 3.4609 0.089844l5.7109 6.0117c0.92969 0.98047 0.89062 2.5312-0.089844 3.4609l-2.5781 2.4492c-1.9688 1.8711-4.7305 2.7305-7.3906 2.1797-3.6094-0.73828-9.0117-3.3008-16.262-10.512 0.14062 0.16016 0.28125 0.30859 0.42188 0.48047l-0.87891-0.92187c0.14844 0.16016 0.30078 0.30078 0.44922 0.44922-6.8281-7.6016-9.1094-13.129-9.6602-16.77-0.39063-2.707 0.5-5.5273 2.4688-7.3984z" fill="#24AE3C"></path></g>
</svg>